<svg width="9" height="14" viewBox="0 0 9 14" fill="none" xmlns="http://www.w3.org/2000/svg">
<g clip-path="url(#clip0_62_2612)">
<path d="M0.383548 6.95519L6.43106 0.974855C6.60569 0.802164 6.88844 0.802164 7.06307 0.974855L7.93778 1.83946C8.11241 2.01215 8.11241 2.29177 7.93778 2.46446L3.39855 6.95327C3.22392 7.12596 3.22392 7.40557 3.39855 7.57826L7.93934 12.0694C8.11397 12.2421 8.11397 12.5217 7.93934 12.6944L7.06463 13.5594C6.89 13.7321 6.60725 13.7321 6.43261 13.5594L0.383548 7.58019C0.208918 7.4075 0.208918 7.12788 0.383548 6.95519Z" fill="white"/>
</g>
<defs>
<clipPath id="clip0_62_2612">
<rect width="7.81793" height="12.8437" fill="white" transform="matrix(-1 0 0 1 8.07031 0.845093)"/>
</clipPath>
</defs>
</svg>
