<svg width="64" height="64" viewBox="0 0 64 64" fill="none" xmlns="http://www.w3.org/2000/svg">
<g clip-path="url(#clip0_170_6339)">
<path d="M45.7866 64.0002C45.4357 64.0022 45.0878 63.9349 44.7629 63.8022C44.438 63.6695 44.1425 63.474 43.8933 63.2268L22.1066 41.4402C20.8649 40.2016 19.8798 38.7303 19.2076 37.1104C18.5354 35.4905 18.1895 33.754 18.1895 32.0002C18.1895 30.2464 18.5354 28.5098 19.2076 26.8899C19.8798 25.2701 20.8649 23.7987 22.1066 22.5602L43.8933 0.773502C44.1419 0.524866 44.4371 0.327637 44.762 0.193076C45.0868 0.0585154 45.435 -0.0107422 45.7866 -0.0107422C46.1382 -0.0107422 46.4864 0.0585154 46.8113 0.193076C47.1361 0.327637 47.4313 0.524866 47.68 0.773502C47.9286 1.02214 48.1258 1.31731 48.2604 1.64217C48.3949 1.96703 48.4642 2.31521 48.4642 2.66684C48.4642 3.01846 48.3949 3.36664 48.2604 3.6915C48.1258 4.01636 47.9286 4.31153 47.68 4.56017L25.8933 26.3468C24.3951 27.8468 23.5537 29.8802 23.5537 32.0002C23.5537 34.1202 24.3951 36.1535 25.8933 37.6535L47.68 59.4402C47.9299 59.6881 48.1283 59.983 48.2637 60.308C48.3991 60.6329 48.4688 60.9815 48.4688 61.3335C48.4688 61.6855 48.3991 62.0341 48.2637 62.359C48.1283 62.684 47.9299 62.9789 47.68 63.2268C47.4308 63.474 47.1353 63.6695 46.8104 63.8022C46.4855 63.9349 46.1376 64.0022 45.7866 64.0002Z" fill="black"/>
</g>
<defs>
<clipPath id="clip0_170_6339">
<rect width="64" height="64" fill="white"/>
</clipPath>
</defs>
</svg>
