<svg width="64" height="64" viewBox="0 0 64 64" fill="none" xmlns="http://www.w3.org/2000/svg">
<g clip-path="url(#clip0_170_6340)">
<path d="M18.6667 64.0002C18.3158 64.0022 17.9679 63.9349 17.643 63.8022C17.3181 63.6695 17.0226 63.474 16.7734 63.2268C16.5235 62.9789 16.3251 62.684 16.1897 62.359C16.0543 62.0341 15.9846 61.6855 15.9846 61.3335C15.9846 60.9815 16.0543 60.6329 16.1897 60.308C16.3251 59.983 16.5235 59.6881 16.7734 59.4402L38.5601 37.6535C40.0582 36.1535 40.8997 34.1202 40.8997 32.0002C40.8997 29.8802 40.0582 27.8468 38.5601 26.3468L16.7734 4.56017C16.2713 4.05803 15.9892 3.37697 15.9892 2.66684C15.9892 1.9567 16.2713 1.27565 16.7734 0.773502C17.2756 0.271359 17.9566 -0.0107422 18.6667 -0.0107422C19.3769 -0.0107422 20.0579 0.271359 20.5601 0.773502L42.3467 22.5602C43.5884 23.7987 44.5736 25.2701 45.2457 26.8899C45.9179 28.5098 46.2639 30.2464 46.2639 32.0002C46.2639 33.754 45.9179 35.4905 45.2457 37.1104C44.5736 38.7303 43.5884 40.2016 42.3467 41.4402L20.5601 63.2268C20.3109 63.474 20.0154 63.6695 19.6905 63.8022C19.3656 63.9349 19.0177 64.0022 18.6667 64.0002Z" fill="black"/>
</g>
<defs>
<clipPath id="clip0_170_6340">
<rect width="64" height="64" fill="white"/>
</clipPath>
</defs>
</svg>
