<svg width="204" height="171" viewBox="0 0 204 171" fill="none" xmlns="http://www.w3.org/2000/svg">
<g clip-path="url(#clip0_4_1403)">
<path d="M118.879 92.1653C118.718 92.2061 118.069 92.2061 117.786 92.2061H96.9V97.0633H118.151C118.312 97.0633 119.566 97.0633 119.809 97.0225C124.14 96.6186 126.123 93.016 126.123 89.858C126.123 86.7001 124.059 83.1383 120.132 82.7752C119.362 82.6936 118.716 82.6936 118.432 82.6936H104.548C103.94 82.6936 103.253 82.6528 103.01 82.5712C101.916 82.2876 101.512 81.3166 101.512 80.5067C101.512 79.7784 101.916 78.8074 103.051 78.483C103.375 78.4014 103.738 78.3606 104.507 78.3606H124.542V73.585H104.183C103.332 73.585 102.685 73.6258 102.159 73.7074C98.6789 74.1929 96.2493 76.9856 96.2493 80.5475C96.2493 83.4626 98.071 86.8613 102.078 87.4284C102.806 87.51 103.818 87.51 104.262 87.51H117.781C118.024 87.51 118.632 87.51 118.753 87.5508C120.291 87.7528 120.817 88.887 120.817 89.8988C120.817 90.9107 120.209 91.9225 118.875 92.1653H118.879Z" fill="black"/>
<path d="M79.2928 92.1653C79.1316 92.2061 78.4829 92.2061 78.2402 92.2061H57.3138V97.0633H78.5645C78.7257 97.0633 79.9803 97.0633 80.223 97.0225C84.554 96.6186 86.5368 93.016 86.5368 89.858C86.5368 86.7001 84.4724 83.1383 80.5454 82.7752C79.7763 82.6936 79.1296 82.6936 78.846 82.6936H64.9618C64.3539 82.6936 63.6664 82.6528 63.4236 82.5712C62.3302 82.2876 61.9263 81.3166 61.9263 80.5067C61.9263 79.7784 62.3302 78.8074 63.4644 78.483C63.7888 78.4014 64.1519 78.3606 64.921 78.3606H84.9558V73.585H64.5966C63.746 73.585 63.0993 73.6258 62.573 73.7074C59.0927 74.1929 56.6631 76.9856 56.6631 80.5475C56.6631 83.4626 58.4848 86.8613 62.4914 87.4284C63.2196 87.51 64.2315 87.51 64.6762 87.51H78.1953C78.438 87.51 79.046 87.51 79.1663 87.5508C80.7045 87.7528 81.2308 88.887 81.2308 89.8988C81.2308 90.9107 80.6637 91.9225 79.2887 92.1653H79.2928Z" fill="black"/>
<path d="M46.4262 73.4238H41.165V97.1837H46.4262V73.4238Z" fill="black"/>
<path d="M29.5474 97.1837V73.4238H24.2862V91.1535L6.76056 73.4238H0V97.1837H5.26116V79.3745L22.9092 97.1837H29.5474Z" fill="black"/>
<path d="M198.78 73.4238V91.1535L181.254 73.4238H174.493V97.1837H179.755V79.3745L197.362 97.1837H204V73.4238H198.78Z" fill="black"/>
<path d="M147.09 73.4238L132.276 97.1837H138.671L141.303 92.9344H158.586L161.217 97.1837H167.572L152.757 73.4238H147.09ZM155.874 88.4403H144.014L149.964 78.8869L155.874 88.4403Z" fill="black"/>
<path d="M29.2637 59.9454C39.8696 28.9802 69.0927 8.17632 102.041 8.17632C134.989 8.17632 164.253 28.9802 174.818 59.9454L174.899 60.1882H198.092V57.3954L188.459 56.2612C182.508 55.5737 181.254 52.9421 179.636 49.623L179.232 48.8131C165.305 19.1862 134.989 0 102.041 0C69.0927 0 38.7762 19.1862 24.8532 48.8947L24.4493 49.7046C22.8295 53.0237 21.5749 55.6553 15.6263 56.3428L5.99341 57.477V60.2698H29.1454L29.2678 59.9454H29.2637Z" fill="black"/>
<path d="M174.897 110.46L174.816 110.702C164.212 141.668 134.987 162.431 102.039 162.431C69.0908 162.431 39.827 141.627 29.2618 110.662L29.1802 110.419H6.03027V113.212L15.6632 114.346C21.6138 115.033 22.8684 117.665 24.4862 120.984L24.8901 121.794C38.8131 151.505 69.1316 170.689 102.078 170.689C135.024 170.689 165.342 151.502 179.265 121.833L179.669 121.023C181.289 117.704 182.543 115.072 188.492 114.385L198.125 113.25V110.458H174.891L174.897 110.46Z" fill="black"/>
</g>
<defs>
<clipPath id="clip0_4_1403">
<rect width="204" height="170.689" fill="white"/>
</clipPath>
</defs>
</svg>
