<svg width="75" height="75" viewBox="0 0 75 75" fill="none" xmlns="http://www.w3.org/2000/svg">
  <path d="M5 37.5C5 19.5507 19.5507 5 37.5 5C55.4493 5 70 19.5507 70 37.5C70 55.4493 55.4493 70 37.5 70C19.5507 70 5 55.4493 5 37.5Z" fill="#B8B8B8"/>
  <path d="M37.5 2.5C56.83 2.5 72.5 18.17 72.5 37.5C72.5 56.83 56.83 72.5 37.5 72.5C18.17 72.5 2.5 56.83 2.5 37.5C2.5 18.17 18.17 2.5 37.5 2.5Z" stroke="white" stroke-opacity="0.5" stroke-width="5"/>
  <path d="M47.5 30.1385L44.8615 27.5L37.5 34.8615L30.1385 27.5L27.5 30.1385L34.8615 37.5L27.5 44.8615L30.1385 47.5L37.5 40.1385L44.8615 47.5L47.5 44.8615L40.1385 37.5L47.5 30.1385Z" fill="white"/>
</svg>