<svg width="53" height="64" viewBox="0 0 53 64" fill="none" xmlns="http://www.w3.org/2000/svg">
<path d="M46.6507 21.2424L21.2107 2.57577C19.2237 1.12079 16.8726 0.24455 14.418 0.044201C11.9635 -0.156148 9.5014 0.327224 7.30479 1.44072C5.10817 2.55421 3.26287 4.25432 1.97349 6.35253C0.684106 8.45073 0.00102937 10.8651 0 13.3278V50.6611C0.00043939 53.1249 0.683555 55.5405 1.97353 57.6396C3.26351 59.7388 5.1099 61.4394 7.30779 62.5529C9.50567 63.6663 11.9691 64.149 14.4247 63.9473C16.8802 63.7457 19.2319 62.8675 21.2187 61.4104L46.6587 42.7438C48.3474 41.5054 49.7206 39.8866 50.6672 38.0186C51.6138 36.1506 52.1071 34.0859 52.1071 31.9918C52.1071 29.8976 51.6138 27.8329 50.6672 25.9649C49.7206 24.0969 48.3474 22.4782 46.6587 21.2398L46.6507 21.2424ZM43.4933 38.4424L18.0533 57.1091C16.8614 57.9801 15.4516 58.5043 13.9802 58.6237C12.5087 58.7431 11.0329 58.4529 9.71618 57.7854C8.39941 57.118 7.29302 56.0991 6.51948 54.8417C5.74593 53.5843 5.3354 52.1374 5.33333 50.6611V13.3278C5.31854 11.8487 5.72132 10.3955 6.4954 9.13503C7.26949 7.8746 8.38347 6.85814 9.70933 6.20243C10.837 5.62881 12.0841 5.32915 13.3493 5.32777C15.045 5.33424 16.6939 5.8848 18.0533 6.89843L43.4933 25.5651C44.5053 26.3083 45.3282 27.2792 45.8953 28.3994C46.4625 29.5196 46.758 30.7575 46.758 32.0131C46.758 33.2687 46.4625 34.5066 45.8953 35.6268C45.3282 36.747 44.5053 37.7179 43.4933 38.4611V38.4424Z" fill="black"/>
</svg>
