<svg width="365" height="30" viewBox="0 0 365 30" fill="none" xmlns="http://www.w3.org/2000/svg">
<path d="M0 24.6539V5.35547H2.78656V24.644H0V24.6539ZM17.0356 5.35547C12.7569 8.88314 9.37747 12.0057 6.76878 14.9701C10.1186 17.8752 13.7154 21.1756 17.0356 24.644H13.1126C10.0296 21.4424 6.64032 18.3199 3.02372 15.2072C5.81028 11.9167 8.96245 8.64598 12.7569 5.35547H17.0356Z" fill="#1F4B78"/>
<path d="M28.4583 24.6539V5.35547H31.2448V24.644H28.4583V24.6539Z" fill="#1F4B78"/>
<path d="M61.7886 6.24506V9.1502C59.8321 8.14229 57.6582 7.6087 55.4052 7.6087C50.7116 7.6087 46.9467 10.0988 46.9467 15.1482C46.9467 20.1976 51.5218 22.3913 55.6128 22.3913C58.0732 22.3913 59.3776 22.0949 61.9369 21.087V23.8142C60.6622 24.3478 58.5871 25 55.4052 25C50.0297 25 44.012 22.3024 44.012 15.1779C44.012 8.05336 49.4171 5 55.4645 5C57.6286 5 60.2175 5.5336 61.7886 6.24506Z" fill="#1F4B78"/>
<path d="M74.7034 24.6539V5.35547H77.4899V24.644H74.7034V24.6539ZM91.7389 5.35547C87.4603 8.88314 84.0808 12.0057 81.4721 14.9701C84.8219 17.8752 88.4188 21.1756 91.7389 24.644H87.816C84.733 21.4424 81.3437 18.3199 77.7271 15.2072C80.5136 11.9167 83.6658 8.64598 87.4603 5.35547H91.7389Z" fill="#1F4B78"/>
<path d="M116.255 6.00791V8.67589C113.765 7.90514 112.095 7.51976 110.109 7.51976C107.589 7.51976 105.03 8.14229 105.03 10.2767C105.03 11.6996 106.245 12.5 107.846 12.9447L112.747 14.3379C115.118 14.9901 117.085 16.4427 117.085 19.3874C117.085 22.9743 114.091 25 108.893 25C106.373 25 104.17 24.5257 101.947 23.6957V20.8794C104.199 21.6206 106.344 22.4506 108.893 22.4506C112.124 22.4506 114.209 21.2945 114.209 19.4862C114.209 17.915 112.994 17.1146 111.334 16.67L106.788 15.4249C104.328 14.7727 102.213 13.3794 102.213 10.2866C102.213 6.52174 105.8 5 110.109 5C112.51 5 114.447 5.41502 116.255 6.00791Z" fill="#1F4B78"/>
<g clip-path="url(#clip0_14_12983)">
<path d="M153.085 26.0001C153.063 18.7071 149.396 15.0404 142.085 15C149.378 14.9781 153.045 11.3114 153.085 4C153.107 11.293 156.774 14.9597 164.085 15C156.792 15.022 153.125 18.6886 153.085 26.0001Z" fill="#DFDFDF"/>
</g>
<path d="M313.657 4.125L315.106 4.82227L315.11 4.82324C315.407 4.9718 315.622 5.21869 315.622 5.50586C315.622 5.64933 315.575 5.80569 315.475 5.92969C315.377 6.04943 315.232 6.13342 315.052 6.14551L314.787 6.2334C314.134 7.82125 313.377 9.49745 312.502 11.1123L312.499 11.1182H312.498L310.646 14.3115L310.781 14.292L314.022 13.5859C313.801 12.8933 313.612 12.4086 313.27 11.9258V11.9248C313.234 11.8808 313.202 11.8312 313.178 11.7803C313.152 11.7266 313.126 11.652 313.126 11.5723C313.126 11.3048 313.343 11.0588 313.612 11.0586L313.675 11.0645C313.734 11.0751 313.787 11.0992 313.827 11.1221C313.884 11.1545 313.94 11.1977 313.994 11.2451C314.102 11.3405 314.221 11.472 314.344 11.625C314.589 11.9324 314.869 12.3505 315.131 12.8047C315.393 13.2593 315.642 13.7567 315.826 14.2236C316.008 14.6844 316.136 15.1389 316.136 15.5C316.136 15.9377 316.056 16.275 315.923 16.5107C315.791 16.7439 315.586 16.9043 315.347 16.9043C315.168 16.9042 314.945 16.8554 314.764 16.7061C314.579 16.5542 314.464 16.32 314.458 16.0049L314.336 14.9941L312.694 15.5703V29.2021C312.694 29.4015 312.588 29.5507 312.47 29.6514C312.354 29.7501 312.209 29.8193 312.079 29.8672C311.947 29.916 311.814 29.9483 311.713 29.9688C311.662 29.979 311.618 29.9872 311.583 29.9922C311.555 29.9962 311.518 30.001 311.492 30.001C311.404 30.0009 311.316 29.9785 311.237 29.9287C311.159 29.8794 311.103 29.8108 311.062 29.7354C310.986 29.5908 310.96 29.4034 310.96 29.2021V16.0762L308.678 16.6318C308.674 16.6578 308.67 16.696 308.668 16.751C308.666 16.822 308.666 16.9102 308.666 17.0234C308.666 17.1642 308.634 17.3209 308.527 17.4443C308.416 17.5737 308.255 17.6299 308.078 17.6299C307.869 17.6298 307.68 17.5448 307.533 17.3789C307.394 17.2212 307.3 16.9991 307.24 16.7285L306.809 14.9199L306.745 14.6523L307.02 14.6377L309.29 14.5156C311.379 10.9527 312.946 6.29252 313.175 5.27148L313.331 4.2959L313.379 3.99121L313.657 4.125ZM200.905 1.25684C200.749 2.66092 200.437 4.22142 199.96 5.9375L199.905 6.19434H204.265C204.512 5.70817 204.787 5.32217 205.099 5.04688C206.068 5.06832 206.91 5.63723 207.614 6.73535C207.156 6.99222 206.807 7.34097 206.55 7.78125L205.457 11.5996H206.604C206.871 11.1132 207.165 10.746 207.495 10.5166C208.449 10.5626 209.322 11.0769 210.102 12.0771C209.679 12.3341 209.33 12.655 209.036 13.0312L207.944 17.2988H208.862C209.11 16.7208 209.44 16.3537 209.862 16.1885C210.725 16.2344 211.468 16.7573 212.102 17.7852C211.698 18.0421 211.377 18.3363 211.129 18.6758C211.019 19.6759 210.872 20.6668 210.697 21.667C210.624 22.4287 210.385 23.6584 209.981 25.3652C209.734 26.4939 209.44 27.4671 209.092 28.293C208.688 29.2015 208.229 29.6611 207.715 29.6611C207.063 29.6427 206.715 29.2753 206.65 28.5781C206.1 27.7522 205.191 27.2011 203.925 26.9258C204.063 26.779 204.64 26.6783 205.668 26.6416C206.164 26.6416 206.669 26.7426 207.183 26.9629C207.531 26.7518 207.972 25.2829 208.532 22.5664C208.798 21.0614 208.99 19.7764 209.101 18.7119H194.307C193.196 20.3638 192.058 21.7126 190.893 22.7588C190.278 23.3094 189.681 23.7227 189.085 23.998C192.37 19.749 195.077 14.2886 197.197 7.59863H190.296L189.782 6.19434H197.666C198.217 4.26714 198.749 2.25703 199.244 0.173828L200.905 1.25684ZM346.165 0.375977C346.89 0.376014 347.431 0.504014 347.798 0.760742C348.293 1.05441 348.551 1.77966 348.569 2.92676L348.578 2.9082V6.06543H351.616L352.735 4.44141C353.121 4.73507 353.314 5.27624 353.342 6.06543C353.342 7.01975 352.864 7.49695 351.91 7.49707H346.981C346.945 9.11229 346.88 10.6637 346.779 12.1504H349.671C349.937 11.4714 350.285 11.0217 350.698 10.8105C351.598 10.8564 352.36 11.3698 352.993 12.3701C352.589 12.6638 352.267 13.0033 352.02 13.3887L351.846 16.8311C351.69 19.0151 351.552 20.878 351.414 22.4014C351.221 23.9707 350.992 25.3657 350.726 26.5771C350.423 27.7883 350.065 28.6324 349.661 29.1279C349.468 29.4215 349.129 29.5781 348.634 29.5781C348.001 29.4955 347.689 29.1835 347.688 28.6514C347.514 28.266 347.202 27.9264 346.743 27.6328C346.358 27.3758 345.898 27.2099 345.366 27.1182C345.596 26.9255 346.192 26.834 347.146 26.834C347.587 26.8799 347.955 26.9809 348.267 27.1553C348.569 26.9622 348.918 25.5304 349.294 22.8604C349.542 20.9057 349.726 18.9417 349.836 16.9688C349.928 15.8032 349.991 14.6552 350.01 13.5264H346.688C346.036 21.2076 344.43 26.4209 341.87 29.165C343.862 23.5211 344.898 16.2985 344.99 7.50684H342.356L341.842 6.0752H346.568V2.91797C346.568 1.66984 346.211 0.870814 345.504 0.53125C345.642 0.421201 345.862 0.375977 346.165 0.375977ZM357.691 1.19238C357.691 2.32117 357.535 3.61507 357.232 5.07422C357.159 5.43212 357.076 5.76259 357.003 6.06543H362.904L364.024 4.44141C364.41 4.73514 364.602 5.27652 364.63 6.06543C364.63 7.01979 364.153 7.49698 363.198 7.49707H362.051C361.821 13.2054 360.821 17.8865 359.041 21.5391C359.537 22.4107 360.106 23.2277 360.729 23.9893C361.739 25.2006 363.116 26.3478 364.859 27.4307C364.401 27.6876 363.95 28.0642 363.51 28.5781C363.4 28.8348 363.225 28.9629 362.996 28.9629C362.822 28.9445 362.592 28.8167 362.308 28.5781C361.885 28.3028 361.381 27.8432 360.794 27.21C359.72 26.0628 358.82 24.778 358.067 23.3555C356.425 26.0535 354.296 28.1097 351.681 29.5322C353.993 27.0727 355.81 24.3189 357.122 21.2812C356.59 19.8132 356.196 18.3634 355.948 16.9229C355.645 15.1425 355.48 13.2425 355.462 11.2236V10.4893C354.507 12.2972 353.598 13.4804 352.735 14.0586C354.305 9.22237 355.397 4.64324 356.03 0.330078L357.691 1.19238ZM235.394 1.02734C235.394 1.41276 235.284 1.85332 235.055 2.36719C234.77 3.00043 234.393 3.56066 233.935 4.01953C233.338 4.57 232.787 4.96397 232.273 5.19336H240.817C241.083 4.61531 241.378 4.22102 241.708 3.98242C242.699 4.00078 243.553 4.56101 244.26 5.63477C243.783 5.97433 243.433 6.35049 243.231 6.74512V27.8623C243.231 28.6879 242.901 29.1101 242.231 29.1377C241.506 29.1193 241.139 28.6696 241.139 27.7979V27.5137H228.383V28.2471C228.383 28.9903 228.071 29.3947 227.438 29.459C226.749 29.4131 226.401 29.0088 226.373 28.2471V4.27637C227.713 4.27643 228.383 4.5697 228.383 5.16602L228.373 5.17578V5.20312H231.787C232.567 3.35856 233.118 1.62394 233.421 0.00878906L235.394 1.02734ZM328.391 9.05664L329.717 10.3193C329.88 10.4676 329.967 10.7317 329.967 10.9668C329.967 11.104 329.936 11.3093 329.823 11.4883C329.701 11.6811 329.49 11.829 329.178 11.8291H324.057V17.4463H326.31L327.619 16.1191L327.774 15.9619L327.938 16.1113L329.214 17.2861L329.229 17.3008C329.422 17.5147 329.572 17.7881 329.572 18.0605C329.572 18.2776 329.509 18.4862 329.375 18.6436C329.238 18.8044 329.04 18.8954 328.811 18.8955H324.065V26.2539L325.407 26.4766H325.616L325.589 26.4395H326.048C327.445 26.4395 329.01 26.3756 330.756 26.0938L330.774 26.0908H330.793C330.892 26.0909 331.001 26.1235 331.083 26.209C331.165 26.294 331.196 26.4052 331.196 26.5127C331.196 26.6711 331.116 26.803 331.022 26.9043C330.928 27.0061 330.799 27.1001 330.653 27.1875L330.64 27.1953L330.625 27.2012C330.413 27.2912 330.241 27.5224 330.203 27.8438C330.188 28.0294 330.153 28.1905 330.098 28.3125C330.07 28.3739 330.033 28.4363 329.981 28.4863C329.931 28.5357 329.854 28.5823 329.755 28.585L329.756 28.5869C329.074 28.6142 328.449 28.6514 327.837 28.6514C325.848 28.6513 323.973 28.5276 322.33 27.6025C320.81 26.7461 319.521 25.2215 318.501 22.5645C318.22 23.6728 317.772 25.1722 317.002 26.6904L316.999 26.6953C316.637 27.3681 316.223 28.0332 315.863 28.5322C315.684 28.7809 315.513 28.9936 315.367 29.1465C315.295 29.2224 315.222 29.2903 315.153 29.3398C315.094 29.3824 314.998 29.4404 314.888 29.4404C314.828 29.4404 314.762 29.4317 314.697 29.4014C314.628 29.3687 314.576 29.3175 314.542 29.2559C314.485 29.1527 314.484 29.0278 314.484 28.9541C314.484 28.8956 314.482 28.7844 314.53 28.6709L314.541 28.6475L314.556 28.627C315.253 27.6698 316.559 25.5544 317.24 21.7314C317.496 20.1852 317.697 18.6444 317.752 17.1074L317.724 16.0479L317.717 15.7646L317.995 15.8164L319.372 16.0732H319.374C319.764 16.1491 320.073 16.4036 320.073 16.7764C320.073 16.8542 320.066 16.937 320.035 17.0195C320.003 17.1048 319.953 17.1747 319.89 17.2363C319.791 17.3324 319.637 17.427 319.438 17.5488L318.96 20.5146C319.653 22.414 320.716 24.4391 322.321 25.5371V11.8203H316.933L316.894 11.6387L316.692 10.6934L316.633 10.416H326.663L328.073 9.05762L328.231 8.90527L328.391 9.05664ZM275.563 1.12793C276.499 1.14636 277.307 1.72516 277.995 2.84473C277.537 3.22996 277.206 3.62416 276.995 4.01855V13.8301C276.995 14.6556 276.674 15.087 276.022 15.1055C275.334 15.0871 274.994 14.6558 274.994 13.8301V13.8018H262.926V24.2188C262.963 25.173 263.651 25.7057 264.991 25.8066C266.771 25.8709 268.68 25.8975 270.727 25.8975C275.067 25.8975 277.417 25.7421 277.775 25.4209C278.115 23.3376 278.546 22.0253 279.069 21.4746C278.959 22.2363 278.895 22.9615 278.895 23.6406C278.895 24.5949 279.051 25.1548 279.354 25.3291C279.923 25.3475 280.226 25.7236 280.244 26.4395C280.226 27.036 279.867 27.403 279.179 27.5498C277.325 27.871 274.553 28.0273 270.864 28.0273C268.441 28.0273 266.257 27.9535 264.33 27.8066C262.054 27.4671 260.916 26.3839 260.916 24.5576V11.5625C262.256 11.5625 262.926 11.8381 262.926 12.3887H274.994V3.77148H259.943L259.43 2.43164H274.7C274.966 1.7984 275.251 1.35736 275.563 1.12793ZM308.85 18.9121L309.969 19.2354L309.979 19.2383L309.99 19.2432C310.268 19.3545 310.492 19.584 310.492 19.8691C310.492 20.0781 310.422 20.2433 310.292 20.3506C310.171 20.4507 310.029 20.4746 309.933 20.4746C309.903 20.4746 309.878 20.4775 309.86 20.4814C309.858 20.4819 309.856 20.482 309.854 20.4824C309.685 22.1404 309.232 23.9672 308.771 25.3799C308.54 26.0893 308.306 26.7001 308.103 27.1367C308.002 27.3538 307.905 27.5359 307.817 27.666C307.774 27.73 307.727 27.7903 307.678 27.8369C307.636 27.8756 307.551 27.9453 307.436 27.9453C307.31 27.9451 307.19 27.8951 307.113 27.7861C307.046 27.6912 307.032 27.5798 307.032 27.4951C307.032 27.4674 307.032 27.4258 307.038 27.3828C307.044 27.3443 307.055 27.3093 307.068 27.2744C307.37 26.233 307.68 25.0396 307.907 23.7207L308.391 20.0732V19.2568L306.979 18.8496H308.85V18.9121ZM193.738 21.3184C194.004 21.6397 194.16 22.5304 194.196 23.9893C194.178 24.7784 194.104 25.3568 193.967 25.7422C193.848 26.0999 193.691 26.3935 193.48 26.6045C193.306 26.8614 193.114 27.0731 192.912 27.2383C192.646 27.431 192.361 27.5225 192.049 27.5225C191.48 27.5223 191.159 27.1918 191.104 26.5312C191.104 26.0632 191.398 25.586 191.994 25.0996C192.838 24.2278 193.417 22.9706 193.738 21.3096V21.3184ZM195.748 21.1533C197.657 21.5113 198.657 22.7137 198.758 24.751C198.721 25.7052 198.363 26.1912 197.693 26.2188C197.023 26.2188 196.693 25.7601 196.693 24.8516C196.693 23.9431 196.592 23.2455 196.381 22.6582C196.225 22.1076 196.014 21.6118 195.748 21.1621V21.1533ZM228.373 26.127H241.13V20.3643H228.373V26.127ZM199.649 20.4941C201.57 20.8358 202.585 21.9369 202.677 23.8057C202.64 24.7233 202.291 25.1824 201.648 25.21C200.997 25.2098 200.676 24.7599 200.676 23.8701C200.676 23.0809 200.575 22.4192 200.364 21.8594C200.154 21.3463 199.915 20.8974 199.649 20.4941ZM313.75 18.125C313.847 18.125 313.925 18.1689 313.976 18.2061C314.03 18.2455 314.08 18.2966 314.125 18.3506C314.215 18.4591 314.31 18.608 314.404 18.7793C314.594 19.1241 314.802 19.5949 314.994 20.1133C315.376 21.1443 315.714 22.4104 315.714 23.292C315.714 23.5235 315.666 23.836 315.545 24.0986C315.425 24.3569 315.2 24.6317 314.824 24.6318H314.745L314.683 24.583L314.353 24.3262L314.286 24.2754L314.269 24.1934L314.168 23.7158L314.16 23.6797L314.164 23.6436C314.19 23.401 314.19 23.1653 314.19 22.8789C314.19 21.4706 313.962 19.8985 313.428 18.873L313.423 18.8662L313.42 18.8574C313.407 18.8269 313.39 18.7892 313.378 18.7559C313.372 18.7391 313.365 18.7191 313.359 18.6992C313.355 18.6828 313.347 18.6495 313.347 18.6113C313.347 18.4909 313.392 18.3809 313.448 18.3018C313.477 18.2614 313.514 18.221 313.559 18.1895C313.6 18.1597 313.667 18.1251 313.75 18.125ZM203.255 19.7861C204.246 19.7861 205.045 20.0517 205.632 20.584C206.32 21.1346 206.706 21.8969 206.779 22.8789C206.779 23.7322 206.485 24.1819 205.889 24.2461C205.274 24.2461 204.888 23.8142 204.714 22.9424C204.622 22.3277 204.448 21.7677 204.2 21.2539C203.952 20.7676 203.64 20.2816 203.255 19.7861ZM199.649 20.4941C199.646 20.4935 199.642 20.4928 199.639 20.4922H199.648L199.649 20.4941ZM356.627 7.50684C356.361 8.36016 356.086 9.12177 355.792 9.80078L355.801 9.79199C356.012 11.8476 356.315 13.784 356.719 15.5918C357.003 16.9315 357.407 18.1703 357.921 19.3174C359.224 15.7109 359.931 11.7741 360.041 7.50684H356.627ZM228.373 18.96H241.13V13.4814H228.373V18.96ZM197.409 12.9766C196.84 14.2888 196.216 15.5367 195.546 16.7021L195.197 17.3076H205.916L207.036 12.9766H197.409ZM228.373 12.0859H241.13V6.5791H228.373V12.0859ZM199.474 7.58887C199.015 8.96548 198.529 10.3056 198.015 11.5996H203.429L204.549 7.58887H199.474ZM310.833 0.414062L312.01 0.935547H312.023L312.072 0.959961C312.362 1.10461 312.585 1.32175 312.585 1.64258C312.585 1.76172 312.548 1.91139 312.462 2.03711C312.37 2.17079 312.215 2.28516 311.997 2.28516C311.931 2.2852 311.896 2.29945 311.878 2.31152C311.862 2.32272 311.843 2.34279 311.829 2.38477C311.452 3.62066 310.509 5.73746 309.668 6.9082C310.052 7.49619 310.387 8.01168 310.628 8.48438C310.888 8.99365 311.052 9.47473 311.052 9.9668C311.052 10.2331 310.996 10.5089 310.879 10.7266C310.762 10.9436 310.558 11.1406 310.263 11.1406C310.05 11.1406 309.855 11.0777 309.697 10.9424C309.542 10.8093 309.439 10.6218 309.38 10.4023L309.376 10.3828C309.201 9.38919 308.888 8.44157 308.532 7.66699C308.173 6.88594 307.78 6.30278 307.458 6.01758V6.0166C307.404 5.96892 307.357 5.91144 307.321 5.85156C307.297 5.80981 307.27 5.75432 307.259 5.69141L307.253 5.625L307.26 5.55469C307.274 5.48171 307.308 5.4027 307.356 5.33691C307.428 5.23929 307.555 5.13873 307.739 5.13867C307.8 5.13866 307.951 5.13624 308.092 5.25977L308.097 5.26465L308.843 5.95508L309.575 4.13281L310.289 1.54492L310.517 0.571289L310.579 0.301758L310.833 0.414062ZM322.572 0.0595703L323.88 0.341797H323.881C324.11 0.378292 324.301 0.456287 324.437 0.587891C324.577 0.724648 324.635 0.897453 324.635 1.07324C324.635 1.37757 324.504 1.69101 324.172 1.79688C324.095 1.82133 324.028 1.89978 324.028 2.05566V3.98242H328.554L329.274 2.96875L329.466 2.7002L329.651 2.97168L330.615 4.38184C330.846 4.61255 330.948 4.88277 330.948 5.15723C330.948 5.51126 330.833 5.74362 330.651 5.87402C330.483 5.99458 330.303 5.99219 330.26 5.99219C330.219 5.99209 330.172 5.98267 330.146 5.97754C330.113 5.97081 330.074 5.962 330.04 5.9541C330.004 5.94587 329.972 5.93901 329.946 5.93359C329.938 5.93175 329.93 5.92972 329.925 5.92871C329.807 5.9301 329.726 5.97838 329.667 6.0752L329.661 6.08496L329.66 6.08398L327.798 8.83789L327.765 8.8877L327.711 8.91406C327.692 8.92365 327.681 8.93124 327.648 8.9502C327.636 8.95748 327.616 8.96811 327.594 8.97754C327.574 8.98583 327.532 9.00292 327.479 9.00293C327.403 9.00289 327.337 8.97242 327.295 8.94727C327.248 8.91908 327.203 8.88098 327.164 8.83691C327.087 8.7492 327.021 8.61893 327.021 8.46094V8.31445L327.046 8.26562C327.523 7.32851 327.922 6.34033 328.194 5.40527H317.964L317.833 6.57812L317.832 6.58496L317.83 6.59277C317.792 6.80515 317.643 7.57231 317.363 8.29102C317.224 8.64951 317.046 9.01068 316.824 9.28613C316.604 9.55931 316.312 9.7832 315.943 9.7832C315.713 9.78319 315.483 9.76534 315.32 9.55078C315.252 9.46061 315.205 9.3481 315.165 9.22656C315.124 9.10302 315.083 8.94675 315.033 8.75879L315.025 8.72949V8.7002C315.025 8.5343 315.108 8.36666 315.202 8.2207C315.299 8.06986 315.434 7.90423 315.589 7.73047C316.356 6.74844 317.173 5.46653 317.173 3.00098C317.173 2.89669 317.202 2.78328 317.269 2.69043C317.338 2.59297 317.454 2.51474 317.604 2.51465L317.69 2.52344C317.885 2.56534 318.036 2.74635 318.036 2.96387V3.96387H322.294V0L322.572 0.0595703ZM192.765 0.742188C193.811 1.06337 194.665 1.53166 195.316 2.14648C195.885 2.66034 196.216 3.23876 196.289 3.89941C196.289 4.85386 195.977 5.34063 195.344 5.36816C194.793 5.3681 194.417 4.95481 194.225 4.12891C194.114 3.61503 193.976 3.17448 193.82 2.78906C193.536 1.99992 193.178 1.32089 192.756 0.751953L192.765 0.742188Z" fill="#A2A2A2"/>
<defs>
<clipPath id="clip0_14_12983">
<rect width="15.5564" height="15.5564" fill="white" transform="translate(153.085 4) rotate(45)"/>
</clipPath>
</defs>
</svg>
