<svg width="390" height="30" viewBox="0 0 390 30" fill="none" xmlns="http://www.w3.org/2000/svg">
<path d="M13.3033 6.0095V8.67816C10.9845 7.90855 9.44528 7.51874 7.5962 7.51874C5.24738 7.51874 2.87856 8.13843 2.87856 10.2774C2.87856 11.7066 4.008 12.5062 5.49725 12.946L10.045 14.3453C12.2539 14.995 14.073 16.4543 14.073 19.3928C14.073 22.981 11.2844 25 6.45677 25C4.10795 25 2.06897 24.5202 0 23.6907V20.8721C2.09895 21.6117 4.08796 22.4413 6.45677 22.4413C9.46527 22.4413 11.3943 21.2819 11.3943 19.4728C11.3943 17.9035 10.2649 17.094 8.71564 16.6542L4.49775 15.4048C2.2089 14.7651 0.249875 13.3658 0.249875 10.2774C0.249875 6.50925 3.58821 5 7.58621 5C9.82509 5 11.6142 5.41979 13.2934 6.0095H13.3033Z" fill="#781F2B"/>
<path d="M26.8763 7.9081V13.4553H36.1517V15.9741H26.8763V22.091H36.9513V24.6397H24.2876V5.35938H36.9513V7.9081H26.8763Z" fill="#781F2B"/>
<path d="M60.8698 24.6397L49.9952 9.08751V24.6397H47.4265V5.35938H50.405L60.48 19.7822V5.35938H63.0487V24.6497H60.8698V24.6397Z" fill="#781F2B"/>
<path d="M81.8189 7.9081V24.6397H79.2302V7.9081H72.4436V5.35938H88.6155V7.9081H81.8289H81.8189Z" fill="#781F2B"/>
<path d="M109.855 24.6397C108.446 22.4108 106.487 19.8022 104.528 17.5733H100.58V24.6397H97.9912V5.35938H105.527C107.766 5.35938 112.174 6.36887 112.174 11.3564C112.174 14.8846 109.935 16.7237 107.756 17.3234C109.306 19.1025 111.345 21.7712 113.304 24.6497H109.855V24.6397ZM105.168 15.0245C106.907 15.0245 109.475 14.4948 109.475 11.4363C109.475 8.76767 107.407 7.9081 105.278 7.9081H100.59V15.0345H105.168V15.0245Z" fill="#781F2B"/>
<path d="M136.342 24.64C135.902 23.2107 135.352 21.4915 134.682 19.6525H124.917C124.198 21.6115 123.618 23.3606 123.258 24.64H120.469C123.178 15.8244 127.036 7.42857 128.226 5.34961H131.284C132.034 6.62897 135.862 14.3451 139.04 24.64H136.332H136.342ZM133.783 17.1637C132.513 13.7554 131.054 10.2472 129.805 7.87835C128.675 10.1672 127.156 13.7554 125.857 17.1637H133.773H133.783Z" fill="#781F2B"/>
<g clip-path="url(#clip0_14_13000)">
<path d="M175.04 26.0001C175.018 18.7071 171.351 15.0404 164.04 15C171.333 14.9781 175 11.3114 175.04 4C175.062 11.293 178.729 14.9597 186.04 15C178.747 15.022 175.08 18.6886 175.04 26.0001Z" fill="#DFDFDF"/>
</g>
<path d="M338.34 4.1123L339.846 4.80664L339.85 4.80859C340.149 4.95351 340.373 5.20457 340.373 5.48926C340.373 5.75321 340.187 6.1039 339.792 6.12695L339.546 6.20508C338.866 7.80068 338.081 9.49442 337.161 11.1191L337.158 11.125L335.232 14.3184L335.388 14.2949L338.762 13.5898C338.535 12.9039 338.334 12.4177 337.974 11.9268V11.9258C337.938 11.8826 337.905 11.8325 337.879 11.7812C337.854 11.7307 337.821 11.6518 337.821 11.5674C337.822 11.2903 338.049 11.0537 338.309 11.0537L338.369 11.0586C338.428 11.0686 338.48 11.0918 338.521 11.1143C338.58 11.146 338.638 11.1891 338.693 11.2363C338.805 11.3311 338.929 11.4616 339.056 11.6143C339.31 11.9209 339.599 12.3383 339.871 12.792C340.143 13.2462 340.402 13.7437 340.593 14.2109C340.781 14.6718 340.914 15.1272 340.914 15.4902C340.914 15.9262 340.831 16.2631 340.691 16.499C340.553 16.7335 340.342 16.8875 340.103 16.8877C339.921 16.8876 339.696 16.8374 339.512 16.6914C339.324 16.5425 339.2 16.3109 339.193 15.9961L339.065 14.9717L337.334 15.5605V29.2061C337.334 29.4078 337.222 29.5573 337.102 29.6562C336.982 29.7537 336.833 29.8218 336.699 29.8691C336.563 29.9172 336.427 29.9496 336.322 29.9697C336.226 29.9882 336.137 29.9999 336.099 30C335.909 29.9999 335.758 29.9044 335.667 29.7422C335.586 29.5977 335.558 29.4097 335.558 29.2061V16.0625L333.154 16.623C333.15 16.6485 333.146 16.687 333.144 16.7461C333.141 16.8159 333.142 16.9029 333.142 17.0146C333.142 17.1594 333.106 17.3163 332.997 17.4385C332.883 17.5651 332.721 17.6181 332.546 17.6182C332.337 17.6181 332.144 17.5339 331.993 17.3691C331.849 17.2116 331.751 16.9901 331.696 16.7178L331.245 14.9141L331.179 14.6475L331.452 14.6338L333.82 14.5137C334.9 12.7473 335.848 10.708 336.557 8.9707C337.277 7.20414 337.746 5.76613 337.861 5.25684L338.022 4.28027L338.071 3.98828L338.34 4.1123ZM222.854 1.5127C222.7 2.91946 222.384 4.47977 221.906 6.20215L221.853 6.45508H226.208C226.46 5.96854 226.73 5.58007 227.036 5.30957C228.007 5.33045 228.843 5.89882 229.554 6.99609C229.094 7.24859 228.742 7.59991 228.489 8.05078L227.398 11.874H228.543C228.813 11.3871 229.112 11.0264 229.437 10.792C230.392 10.8372 231.258 11.3517 232.042 12.3525C231.618 12.605 231.267 12.9299 230.979 13.3086L229.887 17.5732H230.807C231.059 16.9963 231.393 16.6264 231.808 16.4551C232.664 16.5002 233.413 17.0328 234.044 18.0518C233.638 18.3042 233.314 18.6017 233.07 18.9443C232.953 19.9453 232.809 20.9375 232.638 21.9385C232.557 22.705 232.322 23.9315 231.916 25.6357C231.664 26.7629 231.375 27.7368 231.023 28.5664C230.618 29.4772 230.167 29.9375 229.644 29.9375C228.994 29.9195 228.642 29.5579 228.579 28.8545C228.02 28.0252 227.119 27.4748 225.856 27.1953C225.992 27.0512 226.569 26.9523 227.605 26.9072C228.101 26.9072 228.607 27.0152 229.13 27.2227C229.473 27.0057 229.923 25.5449 230.482 22.8223C230.753 21.3164 230.942 20.0267 231.06 18.9717H216.252C215.143 20.6308 214.007 21.9745 212.844 23.0205C212.231 23.5705 211.626 23.9851 211.04 24.2646C214.331 20.0173 217.037 14.5436 219.156 7.85254H212.239L211.726 6.45508H219.616C220.166 4.52527 220.698 2.51377 221.194 0.430664L222.854 1.5127ZM370.862 0.620117C371.593 0.620122 372.133 0.746627 372.494 0.999023C372.99 1.2966 373.251 2.01793 373.27 3.16309L373.288 3.17188V6.32812H376.327L377.445 4.70508C377.824 5.00262 378.032 5.54377 378.05 6.32812C378.05 7.28401 377.571 7.7627 376.615 7.7627H371.683C371.647 9.37658 371.575 10.9274 371.484 12.415H374.379C374.649 11.7389 374.993 11.2884 375.407 11.0811C376.309 11.1261 377.066 11.6399 377.697 12.6406C377.292 12.9382 376.967 13.2815 376.724 13.6602L376.553 17.1045C376.399 19.2958 376.255 21.1537 376.12 22.6777C375.931 24.2466 375.696 25.6443 375.435 26.8525C375.128 28.0609 374.776 28.9093 374.37 29.4053C374.181 29.7027 373.838 29.8555 373.342 29.8555C372.711 29.7742 372.396 29.4592 372.396 28.9365C372.224 28.5578 371.908 28.2146 371.448 27.917C371.07 27.6646 370.609 27.4935 370.068 27.4033C370.294 27.214 370.889 27.1143 371.845 27.1143C372.287 27.1593 372.657 27.2584 372.964 27.4297C373.27 27.239 373.613 25.8055 373.991 23.1289C374.244 21.1722 374.424 19.2062 374.532 17.2314C374.631 16.0591 374.686 14.9134 374.704 13.7861H371.376C370.727 21.4782 369.122 26.6902 366.561 29.4316C368.544 23.7776 369.591 16.5547 369.69 7.7627H367.048L366.534 6.32812H371.268V3.17188C371.268 1.91863 370.916 1.12487 370.204 0.782227C370.339 0.674146 370.556 0.620117 370.862 0.620117ZM291.803 0.557617C292.587 0.557617 293.137 0.692362 293.462 0.97168C293.904 1.28728 294.121 2.09906 294.121 3.39746V7.47363H300.117C300.388 6.83337 300.677 6.39117 301.011 6.13867C302.003 6.15688 302.859 6.74359 303.562 7.88867C303.085 8.26742 302.742 8.66451 302.534 9.07031V28.1875C302.534 29.0352 302.201 29.4864 301.533 29.5225C300.83 29.4773 300.46 29.0534 300.442 28.251H285.734V28.6299C285.734 29.3691 285.418 29.7748 284.787 29.8379C284.102 29.7928 283.742 29.3871 283.724 28.6299V6.45508C285.058 6.45515 285.734 6.75255 285.734 7.34766H285.726V7.47363H292.119V3.14551C292.119 1.87428 291.785 1.06253 291.118 0.719727C291.235 0.611604 291.46 0.557656 291.803 0.557617ZM382.396 1.4502C382.396 2.57734 382.243 3.87617 381.937 5.33691C381.855 5.69736 381.783 6.03072 381.711 6.32812H387.617L388.735 4.70508C389.114 5.00262 389.322 5.54378 389.34 6.32812C389.34 7.28389 388.862 7.76257 387.906 7.7627H386.761C386.535 13.4798 385.525 18.1604 383.749 21.8125C384.245 22.687 384.813 23.4983 385.444 24.2646C386.454 25.473 387.834 26.6188 389.574 27.71C389.114 27.9624 388.663 28.3496 388.23 28.8545C388.113 29.1069 387.942 29.2333 387.717 29.2334C387.545 29.2154 387.311 29.089 387.031 28.8545C386.607 28.5749 386.102 28.1246 385.507 27.4844C384.434 26.3392 383.533 25.0494 382.784 23.6338C381.143 26.3299 379.006 28.3948 376.391 29.8105C378.708 27.3488 380.52 24.5984 381.837 21.5596C381.305 20.0988 380.909 18.638 380.665 17.1953C380.358 15.4099 380.196 13.5069 380.178 11.4961V10.7656C379.222 12.569 378.311 13.7588 377.454 14.3359C379.023 9.4936 380.124 4.91287 380.755 0.602539L382.396 1.4502ZM258.329 1.29688C258.329 1.67544 258.213 2.12618 257.987 2.63086C257.699 3.27112 257.328 3.82112 256.868 4.29004C256.273 4.84012 255.723 5.23722 255.209 5.47168H263.758C264.028 4.89454 264.318 4.49813 264.651 4.26367C265.643 4.28185 266.5 4.84086 267.203 5.92285C266.725 6.26553 266.382 6.63522 266.175 7.04102V28.1699C266.175 28.9994 265.841 29.4234 265.174 29.4414C264.444 29.4233 264.083 28.9721 264.083 28.1064V27.8184H251.322V28.5488C251.322 29.2879 251.007 29.6937 250.376 29.7568C249.691 29.7118 249.33 29.315 249.312 28.5488V4.54297C250.646 4.54297 251.322 4.84052 251.322 5.43555H251.313V5.47168H254.723C255.507 3.62312 256.048 1.89146 256.354 0.277344L258.329 1.29688ZM353.646 9.04785L355.026 10.3105L355.084 10.3701C355.212 10.5211 355.289 10.7419 355.289 10.9541C355.289 11.0952 355.256 11.3024 355.137 11.4805C355.009 11.6715 354.792 11.8113 354.478 11.8115H349.139V17.4385H351.5L352.868 16.1133L353.019 15.9678L353.175 16.1064L354.5 17.2783L354.511 17.2871V17.2881C354.731 17.5088 354.865 17.7891 354.865 18.0518C354.865 18.2705 354.8 18.4792 354.66 18.6357C354.517 18.7953 354.313 18.8807 354.08 18.8809H349.139V26.2539L350.544 26.4736H351.015V26.4561H351.24C352.694 26.456 354.323 26.3934 356.128 26.1074L356.146 26.1045H356.164C356.261 26.1047 356.368 26.1328 356.453 26.2119C356.541 26.2937 356.578 26.4062 356.578 26.5195C356.578 26.6811 356.496 26.8133 356.397 26.915C356.299 27.0164 356.164 27.108 356.013 27.1934L356 27.2012L355.985 27.2061C355.761 27.2961 355.584 27.5326 355.539 27.8496C355.523 28.0357 355.486 28.1948 355.43 28.3154C355.401 28.3769 355.363 28.4387 355.312 28.4873C355.262 28.5344 355.187 28.5787 355.092 28.582L355.093 28.584C354.38 28.6201 353.735 28.6474 353.098 28.6475C351.031 28.6475 349.085 28.5228 347.382 27.5996C345.798 26.7412 344.455 25.21 343.393 22.5312C343.103 23.6417 342.635 25.1537 341.826 26.6963L341.824 26.7012C341.45 27.3714 341.021 28.0367 340.646 28.5361C340.46 28.7847 340.283 28.9974 340.131 29.1504C340.055 29.2263 339.98 29.2937 339.909 29.3428C339.847 29.3857 339.751 29.4403 339.643 29.4404C339.512 29.4403 339.377 29.3962 339.296 29.2646C339.232 29.1612 339.229 29.039 339.229 28.9629C339.229 28.9053 339.226 28.7962 339.273 28.6846L339.284 28.6602L339.301 28.6377C340.023 27.6778 341.386 25.5536 342.091 21.7344C342.351 20.188 342.566 18.6491 342.619 17.1143L342.592 16.0547L342.585 15.7793L342.856 15.8271L344.29 16.0801H344.292C344.688 16.1531 345.009 16.3996 345.009 16.7803C345.009 16.8583 345.001 16.9416 344.968 17.0244C344.934 17.1092 344.88 17.1775 344.815 17.2373C344.714 17.3316 344.556 17.427 344.348 17.5508L343.843 20.5254C344.56 22.4328 345.677 24.4741 347.362 25.5625V11.8115H341.761L341.723 11.6338L341.515 10.6875L341.455 10.4131H351.873L353.341 9.04883L353.493 8.90723L353.646 9.04785ZM334.536 19.2412L334.551 19.2451L334.563 19.251C334.829 19.3636 335.071 19.575 335.071 19.873C335.071 20.0842 334.998 20.25 334.866 20.3564C334.743 20.4552 334.6 20.4775 334.503 20.4775C334.468 20.4775 334.44 20.4802 334.419 20.4844C334.415 20.4852 334.411 20.4865 334.408 20.4873C334.233 22.1483 333.761 23.9749 333.283 25.3867C333.043 26.0957 332.799 26.7064 332.588 27.1426C332.483 27.3594 332.382 27.541 332.29 27.6709C332.245 27.735 332.196 27.7948 332.145 27.8408C332.1 27.8802 332.016 27.9442 331.905 27.9443C331.776 27.9442 331.658 27.8921 331.58 27.7881C331.51 27.6943 331.491 27.5835 331.491 27.4932C331.491 27.4287 331.491 27.3601 331.527 27.2656C331.84 26.228 332.153 25.04 332.395 23.7197L332.897 20.0615V19.0703H333.126L333.184 18.8623L334.536 19.2412ZM215.682 21.6045C215.948 21.9274 216.099 22.8167 216.135 24.2734C216.117 25.058 216.035 25.6447 215.909 26.0234C215.792 26.3839 215.63 26.6725 215.423 26.8799C215.252 27.1324 215.062 27.3492 214.846 27.5205C214.575 27.7099 214.286 27.8086 213.988 27.8086C213.411 27.8084 213.096 27.4745 213.042 26.8164C213.042 26.3476 213.34 25.8696 213.935 25.3828C214.772 24.5097 215.357 23.2503 215.682 21.6045ZM285.726 26.8525H292.119V18.4395H285.726V26.8525ZM294.121 26.8525H300.434V18.4395H294.121V26.8525ZM217.691 21.4346C219.6 21.7965 220.599 22.9952 220.698 25.0312C220.662 25.9871 220.31 26.4742 219.634 26.4922C218.967 26.4922 218.633 26.0319 218.633 25.1211C218.633 24.2105 218.525 23.516 218.317 22.9209C218.165 22.375 217.959 21.874 217.691 21.4346ZM251.313 26.4023H264.074V20.6309H251.313V26.4023ZM221.598 20.7686C223.517 21.1144 224.522 22.2138 224.621 24.0752C224.585 24.9859 224.242 25.4556 223.593 25.4736C222.944 25.4736 222.619 25.0314 222.619 24.1387C222.619 23.3542 222.51 22.687 222.303 22.1279C222.097 21.6187 221.856 21.1714 221.598 20.7686ZM338.547 18.1309C338.611 18.1442 338.665 18.1736 338.704 18.2012C338.759 18.2399 338.811 18.2908 338.857 18.3447C338.951 18.4531 339.049 18.6018 339.147 18.7734C339.345 19.1188 339.561 19.591 339.761 20.1104C340.158 21.1425 340.509 22.4097 340.509 23.291C340.509 23.5252 340.456 23.8379 340.329 24.0996C340.203 24.3584 339.972 24.6248 339.598 24.625H339.523L339.464 24.5811L339.121 24.3291L339.054 24.2793L339.035 24.1973L338.967 23.8945H338.887L338.914 23.6455C338.94 23.4072 338.939 23.1668 338.939 22.876C338.939 21.4653 338.706 19.896 338.146 18.8721L338.142 18.8623L338.138 18.8525C338.125 18.8226 338.108 18.7847 338.095 18.749C338.084 18.7202 338.064 18.6625 338.064 18.6016C338.065 18.4775 338.117 18.3668 338.178 18.2891C338.231 18.2218 338.336 18.1241 338.479 18.124L338.547 18.1309ZM225.204 20.0625C226.193 20.0636 226.984 20.3346 227.578 20.8564C228.263 21.4065 228.651 22.1726 228.724 23.1465C228.724 23.9942 228.426 24.4545 227.831 24.5176C227.218 24.5176 226.831 24.0845 226.659 23.21C226.56 22.5968 226.388 22.0284 226.145 21.5234C225.894 21.0393 225.58 20.5555 225.204 20.0625ZM215.682 21.6045C215.679 21.6016 215.677 21.5985 215.675 21.5957H215.684C215.683 21.5986 215.682 21.6015 215.682 21.6045ZM217.691 21.4346C217.69 21.4342 217.687 21.4339 217.686 21.4336V21.4238C217.688 21.4271 217.689 21.4313 217.691 21.4346ZM221.598 20.7686C221.592 20.7676 221.587 20.7666 221.582 20.7656L221.591 20.7568C221.593 20.7606 221.595 20.7648 221.598 20.7686ZM225.204 20.0625C225.202 20.0625 225.2 20.0625 225.198 20.0625V20.0537C225.2 20.0565 225.202 20.0597 225.204 20.0625ZM381.35 7.7627C381.079 8.61013 380.809 9.37656 380.521 10.0527L380.512 10.0615C380.719 12.1266 381.025 14.0568 381.431 15.8604C381.719 17.195 382.117 18.4397 382.64 19.585C383.938 15.9779 384.651 12.037 384.759 7.7627H381.35ZM251.313 19.2334H264.074V13.75H251.313V19.2334ZM219.346 13.2451C218.769 14.5617 218.146 15.8064 217.479 16.9697L217.136 17.5732H227.858L228.977 13.2363H219.336L219.346 13.2451ZM285.726 17.0322H292.119V8.84473H285.726V17.0322ZM294.121 17.0322H300.434V8.84473H294.121V17.0322ZM251.313 12.3525H264.074V6.84277H251.313V12.3525ZM221.41 7.86133C220.95 9.24096 220.463 10.5846 219.949 11.874H225.369L226.487 7.86133H221.41ZM335.43 0.40332L336.701 0.944336L336.741 0.961914L336.758 0.978516C337.032 1.12027 337.244 1.33521 337.244 1.63867C337.244 1.76236 337.205 1.91399 337.115 2.03906C337.02 2.17139 336.864 2.27903 336.649 2.2793C336.526 2.2793 336.483 2.32955 336.465 2.38184C336.076 3.61508 335.09 5.73492 334.228 6.90332C334.625 7.493 334.971 8.00755 335.22 8.47949C335.488 8.98809 335.657 9.4688 335.657 9.96289C335.657 10.2315 335.597 10.5088 335.474 10.7266C335.35 10.9444 335.14 11.1345 334.846 11.1348C334.632 11.1348 334.432 11.0747 334.27 10.9424C334.108 10.8108 334.001 10.6223 333.942 10.3984L333.939 10.3896L333.938 10.3818C333.757 9.38833 333.432 8.44237 333.062 7.66797C332.69 6.88783 332.283 6.30207 331.947 6.01172V6.01074C331.887 5.96139 331.838 5.90169 331.803 5.8418C331.777 5.79786 331.751 5.74178 331.74 5.67969L331.734 5.61621L331.744 5.53613C331.75 5.51129 331.758 5.48788 331.766 5.46777C331.783 5.42318 331.809 5.37415 331.845 5.32812C331.917 5.23515 332.043 5.1377 332.222 5.1377C332.276 5.13765 332.437 5.13386 332.577 5.25684L332.578 5.25781L333.379 5.96777L334.153 4.11816L334.888 1.54199L335.122 0.558594L335.185 0.298828L335.43 0.40332ZM347.616 0.0566406L348.981 0.342773H348.982C349.219 0.378005 349.415 0.452864 349.555 0.582031C349.701 0.7176 349.761 0.892175 349.761 1.07129C349.761 1.38719 349.617 1.6907 349.285 1.79199C349.197 1.81891 349.13 1.89987 349.13 2.05371V3.9834H353.851L354.603 2.96582L354.788 2.71582L354.968 2.96973L355.966 4.37793C356.207 4.60808 356.308 4.88675 356.308 5.15625C356.308 5.5112 356.187 5.74191 356.002 5.87012C355.832 5.98745 355.651 5.98537 355.604 5.98535C355.566 5.98535 355.519 5.97671 355.493 5.97168C355.46 5.96518 355.42 5.95692 355.385 5.94922C355.348 5.94121 355.314 5.93304 355.287 5.92773C355.253 5.92103 355.25 5.92285 355.262 5.92285C355.136 5.92288 355.038 5.97858 354.968 6.07812L353.039 8.8291L353.015 8.86426L352.979 8.8877C352.946 8.90986 352.909 8.93118 352.873 8.94824C352.848 8.96028 352.787 8.98816 352.719 8.98828C352.646 8.98827 352.582 8.9616 352.536 8.93555C352.487 8.90749 352.441 8.86998 352.401 8.8252C352.323 8.73534 352.259 8.60472 352.259 8.44727V8.29199L352.285 8.24219C352.786 7.30443 353.198 6.31571 353.482 5.37207H342.828L342.689 6.56152L342.688 6.57031L342.687 6.5791C342.645 6.7894 342.489 7.55793 342.199 8.27734C342.055 8.63575 341.871 8.9966 341.643 9.27148C341.415 9.54499 341.116 9.76349 340.743 9.76367C340.503 9.76367 340.272 9.74451 340.107 9.53223C340.038 9.44207 339.99 9.32965 339.949 9.20801C339.907 9.08445 339.865 8.92801 339.813 8.74121L339.806 8.71191V8.68164C339.806 8.51657 339.89 8.34934 339.987 8.2041C340.088 8.05388 340.227 7.88964 340.388 7.71875C341.187 6.73547 342.033 5.44909 342.033 2.98242C342.033 2.87428 342.067 2.76231 342.135 2.67285C342.205 2.58044 342.32 2.50488 342.466 2.50488L342.555 2.51465C342.754 2.55885 342.898 2.74777 342.898 2.95605V3.96582H347.344V0L347.616 0.0566406ZM214.701 1.00781C215.756 1.32344 216.604 1.79281 217.253 2.41504C217.83 2.92903 218.155 3.5058 218.228 4.16406C218.228 5.11991 217.911 5.6067 217.28 5.63379C216.721 5.63379 216.351 5.21926 216.162 4.38965C216.045 3.87563 215.909 3.43343 215.756 3.05469C215.467 2.2703 215.116 1.58463 214.692 1.0166L214.701 1.00781Z" fill="#A2A2A2"/>
<defs>
<clipPath id="clip0_14_13000">
<rect width="15.5564" height="15.5564" fill="white" transform="translate(175.04 4) rotate(45)"/>
</clipPath>
</defs>
</svg>
