<svg width="285" height="80" viewBox="0 0 285 80" fill="none" xmlns="http://www.w3.org/2000/svg">
<path d="M37.799 50.601C37.6954 51.3148 37.6148 51.8502 37.563 52.2071C37.4766 52.8 37.4075 53.2491 37.3672 53.5426C36.8779 56.87 36.2562 59.4835 35.5021 61.3832C32.6929 69.1662 26.3548 73.0576 16.4994 73.0576C12.9361 73.0576 10.1211 72.8216 8.04869 72.3438C5.98206 71.8718 4.23781 70.801 2.82167 69.1374C1.08892 67.1744 0.162103 64.9177 0.0296999 62.3676C-0.102703 59.8116 0.208159 56.0122 0.950766 50.9637L4.22053 28.7776C5.11281 22.7216 7.3579 18.2775 10.95 15.4567C14.5422 12.636 19.372 11.2256 25.428 11.2256C29.0489 11.2256 31.8869 11.5364 33.9305 12.1582C35.9741 12.7799 37.6666 14.0003 39.0079 15.8136C40.3434 17.627 41.0918 20.016 41.2472 22.9864C41.3451 25.1221 41.0976 28.2422 40.4931 32.3409L40.0211 35.5474H24.8754L26.0555 27.5284C26.1533 26.8779 26.2282 26.3713 26.28 26.0144C26.5448 24.2298 26.6657 23.1936 26.6484 22.8943C26.5678 21.4091 25.8194 20.6665 24.3918 20.6665C22.3712 20.6665 21.1738 21.9444 20.7996 24.5004L15.7223 58.9827C15.256 62.1315 16.0044 63.7031 17.9674 63.7031C19.2166 63.7031 20.0628 63.1965 20.5061 62.1891C20.9493 61.1817 21.4041 59.1323 21.8589 56.041L22.9987 48.2868H38.1444L37.8048 50.601H37.799Z" fill="#EA1C3D"/>
<path d="M69.9031 72.7815H56.0929L61.3027 37.4127C61.6193 35.2769 61.8035 33.6133 61.861 32.4217C61.9186 31.2358 61.3775 30.6371 60.255 30.6371C59.3627 30.6371 58.7007 31.0976 58.2689 32.0187C57.8372 32.9398 57.4515 34.5574 57.1061 36.8715L51.8215 72.7757H38.0977L47.1241 11.479H60.8479L58.8273 25.2028C60.1744 24.1321 61.4639 23.4183 62.7073 23.0671C63.945 22.7102 65.5165 22.5318 67.422 22.5318C69.4426 22.5318 71.1638 22.8426 72.5857 23.4701C74.0076 24.0976 74.9747 25.0877 75.487 26.452C75.867 27.5228 75.9878 28.9907 75.8612 30.8616C75.7346 32.7325 75.4525 35.1561 75.015 38.1207L69.9088 72.7815H69.9031Z" fill="#EA1C3D"/>
<path d="M105.544 72.7809H92.0907L92.747 68.3252C91.6014 70.0465 90.4041 71.2381 89.1491 71.8886C87.8942 72.5448 86.1672 72.8672 83.9739 72.8672C82.0742 72.8672 80.4623 72.6139 79.1383 72.1073C77.8143 71.6008 76.9393 70.8179 76.5017 69.7471C76.0642 68.6764 75.8282 67.4445 75.7995 66.0514C75.7649 64.6583 75.8686 63.1558 76.1046 61.5497L76.709 57.4509C77.2444 53.83 78.0388 51.3489 79.098 50.0134C80.1572 48.6778 82.4541 47.2674 86.0002 45.7822L93.409 42.6621C94.5546 42.1268 95.3778 41.4878 95.8729 40.7452C96.3679 40.0026 96.7536 38.7131 97.0242 36.871C97.6459 32.6571 97.243 30.5444 95.8153 30.5444C95.1015 30.5444 94.5028 30.7804 94.0192 31.2582C93.5357 31.736 93.1672 32.801 92.9255 34.4647L92.0735 40.2559H79.2419L79.478 38.6498C79.95 35.4433 80.5775 32.8874 81.3661 30.9877C82.149 29.088 83.5249 27.3034 85.4937 25.6398C86.9846 24.3906 88.5965 23.6192 90.335 23.3256C92.0735 23.0262 94.3934 22.8823 97.3063 22.8823C100.812 22.8823 103.575 23.1817 105.596 23.7746C107.616 24.3675 109.056 25.4958 109.908 27.1595C110.76 28.8232 111.093 31.1086 110.903 34.0214C110.713 36.9343 110.167 41.4475 109.263 47.5668L105.55 72.7809H105.544ZM93.3745 61.6475L95.2511 48.9081C93.1154 50.5142 91.7799 51.7001 91.2503 52.4714C90.4098 53.7206 89.7881 55.7412 89.3794 58.5274C89.2124 59.6557 89.0512 60.7552 88.8958 61.826C88.7864 63.7832 89.4427 64.7676 90.8703 64.7676C92.298 64.7676 93.0751 63.7314 93.3802 61.6475H93.3745Z" fill="#EA1C3D"/>
<path d="M144.941 57.5493C144.153 62.8972 143.168 66.5815 141.977 68.5963C140.232 71.5667 137.314 73.0519 133.215 73.0519C131.315 73.0519 129.761 72.7123 128.558 72.0272C127.349 71.3479 126.278 70.1448 125.346 68.4178L123.642 80.0002H109.918L118.38 22.5317H132.455L131.442 26.9873C132.812 25.3236 134.28 24.1493 135.834 23.47C137.389 22.7907 139.116 22.4453 141.021 22.4453C142.685 22.4453 144.118 22.6986 145.321 23.1994C146.524 23.706 147.411 24.5522 147.975 25.7381C148.539 26.924 148.81 28.248 148.775 29.7044C148.741 31.1609 148.505 33.3714 148.067 36.3418L144.947 57.5493H144.941ZM130.527 61.0205L134.044 37.142C134.234 35.8353 134.372 34.9142 134.453 34.3788C134.637 33.1296 134.718 32.1798 134.695 31.5293C134.672 30.873 134.153 30.5507 133.146 30.5507C131.661 30.5507 130.711 31.9783 130.291 34.8278L126.445 60.9342C126.071 63.4901 126.624 64.7681 128.109 64.7681C128.88 64.7681 129.433 64.4573 129.761 63.8298C130.089 63.2081 130.348 62.2697 130.532 61.0205H130.527Z" fill="#EA1C3D"/>
<path d="M168.533 72.7811H163.007C159.679 72.7811 157.446 72.6314 156.3 72.3379C154.182 71.8025 152.737 70.5245 151.965 68.5039C151.712 67.7901 151.672 66.4718 151.839 64.5376C152.006 62.6091 152.305 60.1568 152.743 57.1864L156.496 31.7075H153.554L154.723 23.7749H157.664L158.845 15.7559H172.741L171.561 23.7749H175.216L174.048 31.7075H170.392L166.443 58.5277C165.971 61.7341 165.845 63.5763 166.075 64.0541C166.299 64.5319 167.514 64.7679 169.713 64.7679L168.533 72.7869V72.7811Z" fill="#EA1C3D"/>
<path d="M206.283 55.4075C206.179 56.1213 206.099 56.6567 206.047 57.0136C205.696 59.3911 205.27 61.2735 204.769 62.6724C204.268 64.0713 203.289 65.6543 201.839 67.4389C200.158 69.5746 198.385 71.0195 196.525 71.7621C194.666 72.5047 192.191 72.8732 189.099 72.8732C185.058 72.8732 181.863 72.1766 179.52 70.7777C177.172 69.3846 175.721 67.1396 175.162 64.054C174.886 62.6897 174.869 60.9972 175.111 58.9766C175.347 56.9561 175.537 55.4708 175.681 54.521L177.834 39.9106C178.139 37.8325 178.478 36.0479 178.841 34.5627C179.209 33.0775 179.762 31.6211 180.51 30.1992C181.915 27.5281 183.878 25.5824 186.405 24.362C188.932 23.1473 191.978 22.5371 195.541 22.5371C198.627 22.5371 201.148 22.9689 203.099 23.8266C205.051 24.6901 206.536 26.1005 207.555 28.0577C208.39 29.6638 208.827 31.6211 208.873 33.941C208.919 36.2552 208.718 38.932 208.269 41.96L207.284 48.6435H190.268L188.679 59.4257C188.455 60.9684 188.322 62.2464 188.293 63.2538C188.265 64.267 188.84 64.7678 190.032 64.7678C191.039 64.7678 191.805 64.3246 192.323 63.4323C192.841 62.54 193.221 61.262 193.469 59.6041L194.361 53.5481H206.565L206.289 55.419L206.283 55.4075ZM195.495 40.3539L196.019 36.7905C196.122 36.0767 196.197 35.5759 196.243 35.2766C196.508 33.492 196.566 32.2773 196.427 31.6211C196.284 30.9706 195.829 30.6425 195.057 30.6425C194.165 30.6425 193.549 30.9073 193.204 31.4426C192.858 31.978 192.582 32.9278 192.381 34.2922L191.488 40.3482H195.495V40.3539Z" fill="#EA1C3D"/>
<path d="M235.998 39.3696H235.019C231.571 39.3696 229.274 40.4691 228.117 42.6682C227.38 44.0382 226.609 47.4519 225.809 52.915L222.884 72.7812H209.074L216.471 22.5314H230.282L228.687 29.1228C230.109 26.7453 231.456 25.0241 232.746 23.9533C234.363 22.6466 236.32 21.8752 238.612 21.6392L235.998 39.3696Z" fill="#EA1C3D"/>
<path d="M273.459 72.7812H255.372L262.072 27.2922C262.458 24.6845 262.182 22.8308 261.249 21.7371C260.317 20.6433 258.296 20.0964 255.199 20.0964H252.557L253.8 11.6342C257.945 10.7879 261.646 9.34302 264.91 7.29941C267.708 5.53788 270.569 3.10283 273.499 0H284.184L273.465 72.7812H273.459Z" fill="#EA1C3D"/>
</svg>
