<svg width="289" height="80" viewBox="0 0 289 80" fill="none" xmlns="http://www.w3.org/2000/svg">
<path d="M37.799 50.6007C37.6954 51.3146 37.6148 51.8499 37.563 52.2068C37.4767 52.7998 37.4076 53.2488 37.3673 53.5424C36.8779 56.8697 36.2562 59.4832 35.5021 61.3829C32.6929 69.1659 26.3548 73.0574 16.4994 73.0574C12.9361 73.0574 10.1211 72.8214 8.04873 72.3436C5.9821 71.8715 4.23779 70.8008 2.82166 69.1371C1.08891 67.1741 0.162104 64.9175 0.029701 62.3673C-0.102702 59.8114 0.208143 56.012 0.950749 50.9634L4.22055 28.7773C5.11283 22.7213 7.35788 18.2772 10.95 15.4565C14.5422 12.6357 19.372 11.2253 25.428 11.2253C29.0489 11.2253 31.8869 11.5362 33.9306 12.1579C35.9742 12.7796 37.6666 14 39.0079 15.8134C40.3434 17.6267 41.0918 20.0157 41.2472 22.9862C41.3451 25.1219 41.0976 28.242 40.4931 32.3407L40.0211 35.5471H24.8754L26.0554 27.5281C26.1533 26.8776 26.2281 26.3711 26.28 26.0141C26.5448 24.2296 26.6657 23.1934 26.6484 22.894C26.5678 21.4088 25.8195 20.6662 24.3918 20.6662C22.3713 20.6662 21.1739 21.9442 20.7997 24.5001L15.7223 58.9824C15.256 62.1313 16.0044 63.7029 17.9674 63.7029C19.2166 63.7029 20.0628 63.1963 20.5061 62.1889C20.9494 61.1814 21.4041 59.1321 21.8589 56.0408L22.9987 48.2866H38.1444L37.8048 50.6007H37.799Z" fill="#EA1C3D"/>
<path d="M69.9031 72.7812H56.0929L61.3027 37.4124C61.6193 35.2767 61.8035 33.613 61.8611 32.4214C61.9186 31.2355 61.3775 30.6369 60.255 30.6369C59.3627 30.6369 58.7007 31.0974 58.2689 32.0185C57.8372 32.9395 57.4515 34.5571 57.1061 36.8713L51.8215 72.7755H38.0977L47.1241 11.4788H60.8479L58.8273 25.2026C60.1744 24.1319 61.4639 23.418 62.7073 23.0669C63.945 22.71 65.5166 22.5315 67.422 22.5315C69.4426 22.5315 71.1638 22.8424 72.5857 23.4698C74.0076 24.0973 74.9747 25.0875 75.4871 26.4518C75.867 27.5225 75.9878 28.9905 75.8612 30.8614C75.7345 32.7323 75.4525 35.1558 75.015 38.1205L69.9088 72.7812H69.9031Z" fill="#EA1C3D"/>
<path d="M105.544 72.7811H92.0908L92.747 68.3255C91.6015 70.0467 90.4041 71.2383 89.1491 71.8888C87.8942 72.5451 86.1672 72.8675 83.9739 72.8675C82.0742 72.8675 80.4624 72.6142 79.1383 72.1076C77.8143 71.601 76.9393 70.8181 76.5017 69.7474C76.0642 68.6766 75.8282 67.4447 75.7995 66.0516C75.7649 64.6585 75.8686 63.156 76.1046 61.5499L76.709 57.4512C77.2444 53.8303 78.0388 51.3491 79.098 50.0136C80.1572 48.6781 82.4541 47.2677 86.0002 45.7825L93.409 42.6624C94.5546 42.127 95.3778 41.488 95.8729 40.7454C96.3679 40.0028 96.7536 38.7133 97.0242 36.8712C97.6459 32.6573 97.2429 30.5447 95.8153 30.5447C95.1015 30.5447 94.5028 30.7807 94.0192 31.2585C93.5357 31.7363 93.1672 32.8013 92.9255 34.4649L92.0735 40.2561H79.2419L79.478 38.65C79.95 35.4436 80.5775 32.8876 81.3662 30.9879C82.1491 29.0882 83.5248 27.3037 85.4936 25.64C86.9846 24.3908 88.5965 23.6194 90.335 23.3258C92.0735 23.0265 94.3934 22.8826 97.3062 22.8826C100.812 22.8826 103.575 23.1819 105.596 23.7748C107.616 24.3678 109.056 25.4961 109.908 27.1597C110.76 28.8234 111.093 31.1088 110.903 34.0217C110.713 36.9345 110.167 41.4477 109.263 47.567L105.55 72.7811H105.544ZM93.3745 61.6478L95.2512 48.9083C93.1154 50.5144 91.7799 51.7003 91.2503 52.4717C90.4098 53.7209 89.7881 55.7415 89.3793 58.5277C89.2124 59.656 89.0512 60.7555 88.8958 61.8262C88.7864 63.7835 89.4427 64.7679 90.8704 64.7679C92.298 64.7679 93.0752 63.7317 93.3803 61.6478H93.3745Z" fill="#EA1C3D"/>
<path d="M144.941 57.549C144.153 62.897 143.168 66.5812 141.977 68.596C140.232 71.5665 137.314 73.0517 133.215 73.0517C131.315 73.0517 129.761 72.712 128.558 72.027C127.349 71.3477 126.278 70.1446 125.346 68.4176L123.642 79.9999H109.918L118.38 22.5314H132.455L131.442 26.9871C132.812 25.3234 134.28 24.149 135.834 23.4697C137.389 22.7905 139.116 22.4451 141.021 22.4451C142.685 22.4451 144.118 22.6984 145.321 23.1992C146.524 23.7058 147.411 24.552 147.975 25.7379C148.539 26.9237 148.81 28.2478 148.775 29.7042C148.741 31.1606 148.505 33.3712 148.067 36.3416L144.947 57.549H144.941ZM130.533 61.0203L134.05 37.1418C134.24 35.835 134.378 34.9139 134.459 34.3786C134.643 33.1294 134.723 32.1795 134.7 31.529C134.677 30.8728 134.159 30.5504 133.152 30.5504C131.667 30.5504 130.717 31.9781 130.296 34.8276L126.451 60.934C126.077 63.4899 126.629 64.7679 128.115 64.7679C128.886 64.7679 129.439 64.457 129.767 63.8295C130.095 63.2078 130.354 62.2695 130.538 61.0203H130.533Z" fill="#EA1C3D"/>
<path d="M168.539 72.7814H163.013C159.685 72.7814 157.452 72.6317 156.306 72.3381C154.188 71.8027 152.743 70.5248 151.971 68.5042C151.718 67.7904 151.678 66.4721 151.845 64.5379C152.012 62.6094 152.311 60.1571 152.748 57.1866L156.502 31.7077H153.56L154.729 23.7751H157.67L158.85 15.7561H172.747L171.567 23.7751H175.222L174.054 31.7077H170.398L166.449 58.5279C165.977 61.7344 165.851 63.5765 166.081 64.0543C166.305 64.5321 167.52 64.7681 169.719 64.7681L168.539 72.7871V72.7814Z" fill="#EA1C3D"/>
<path d="M206.291 55.4075C206.187 56.1213 206.106 56.6567 206.055 57.0136C205.703 59.3911 205.278 61.2735 204.777 62.6724C204.276 64.0713 203.297 65.6543 201.847 67.4389C200.166 69.5746 198.393 71.0195 196.533 71.7621C194.674 72.5047 192.198 72.8731 189.107 72.8731C185.066 72.8731 181.871 72.1766 179.528 70.7777C177.179 69.3846 175.729 67.1396 175.17 64.054C174.894 62.6897 174.877 60.9972 175.118 58.9766C175.354 56.9561 175.544 55.4708 175.688 54.521L177.841 39.9106C178.146 37.8325 178.486 36.0479 178.849 34.5627C179.217 33.0775 179.77 31.6211 180.518 30.1992C181.923 27.5281 183.886 25.5824 186.413 24.362C188.94 23.1473 191.985 22.5371 195.549 22.5371C198.634 22.5371 201.156 22.9689 203.107 23.8266C205.059 24.6901 206.544 26.1005 207.563 28.0577C208.398 29.6638 208.835 31.6211 208.881 33.941C208.927 36.2552 208.726 38.932 208.277 41.96L207.292 48.6435H190.276L188.687 59.4257C188.462 60.9684 188.33 62.2464 188.301 63.2538C188.272 64.267 188.848 64.7678 190.04 64.7678C191.047 64.7678 191.813 64.3245 192.331 63.4323C192.849 62.54 193.229 61.262 193.476 59.6041L194.369 53.5481H206.573L206.296 55.419L206.291 55.4075ZM195.497 40.3539L196.021 36.7905C196.124 36.0767 196.199 35.5759 196.245 35.2766C196.51 33.492 196.568 32.2773 196.43 31.6211C196.286 30.9706 195.831 30.6425 195.059 30.6425C194.167 30.6425 193.551 30.9073 193.206 31.4426C192.86 31.978 192.584 32.9278 192.383 34.2922L191.49 40.3482H195.497V40.3539Z" fill="#EA1C3D"/>
<path d="M236 39.3696H235.021C231.573 39.3696 229.276 40.4691 228.119 42.6682C227.382 44.0382 226.611 47.4519 225.811 52.915L222.886 72.7811H209.076L216.473 22.5314H230.284L228.689 29.1228C230.111 26.7453 231.458 25.0241 232.747 23.9533C234.365 22.6466 236.322 21.8752 238.614 21.6392L236 39.3696Z" fill="#EA1C3D"/>
<path d="M288.247 18.6112C287.683 22.4221 286.302 26.4115 284.097 30.5677C282.278 33.9642 279.33 38.4371 275.26 43.9807C271.185 49.5301 267.075 55.0738 262.93 60.6174H280.505L278.697 72.8848H243.346L244.848 62.6955C251.175 53.6173 255.492 47.3771 257.795 43.9807C260.523 40.0317 263.684 35.2824 267.276 29.733C269.636 25.9221 271.185 23.1992 271.91 21.5701C272.635 19.941 273.125 18.2601 273.378 16.5273C273.919 12.8546 272.975 11.0182 270.552 11.0182C269.164 11.0182 268.128 11.7148 267.437 13.0964C266.746 14.4837 266.217 16.4237 265.854 18.9163L264.876 25.571H250.317L250.668 23.182C250.87 21.7946 251.088 20.4418 251.319 19.1293C251.549 17.811 251.866 16.464 252.28 15.0766C253.696 10.1547 256.085 6.41289 259.447 3.84543C262.803 1.28373 266.908 0 271.76 0C274.253 0 276.435 0.259049 278.3 0.782903C280.165 1.301 281.84 2.15298 283.331 3.33309C287.585 6.93675 289.226 12.0314 288.253 18.617L288.247 18.6112Z" fill="#EA1C3D"/>
</svg>
