<svg width="289" height="80" viewBox="0 0 289 80" fill="none" xmlns="http://www.w3.org/2000/svg">
<path d="M37.8262 50.5796C37.7226 51.2939 37.642 51.8297 37.5901 52.1868C37.5037 52.7802 37.4345 53.2295 37.3942 53.5233C36.9045 56.8531 36.2824 59.4685 35.5277 61.3695C32.7164 69.1581 26.3738 73.0524 16.5113 73.0524C12.9454 73.0524 10.1284 72.8162 8.05453 72.3381C5.98641 71.8657 4.24084 70.7942 2.82369 69.1293C1.08969 67.1649 0.162221 64.9066 0.0297224 62.3546C-0.102776 59.7968 0.208293 55.9947 0.951434 50.9425L4.22359 28.7404C5.11652 22.6801 7.36319 18.2327 10.9579 15.41C14.5527 12.5872 19.386 11.1758 25.4463 11.1758C29.0699 11.1758 31.9099 11.4869 33.955 12.109C36.0001 12.7312 37.6937 13.9525 39.036 15.7671C40.3725 17.5818 41.1214 19.9725 41.277 22.9451C41.3749 25.0823 41.1272 28.2047 40.5223 32.3063L40.0499 35.5151H24.8933L26.0742 27.4903C26.1722 26.8394 26.2471 26.3324 26.2989 25.9752C26.5639 24.1894 26.6849 23.1525 26.6676 22.8529C26.587 21.3666 25.8381 20.6235 24.4094 20.6235C22.3874 20.6235 21.1891 21.9024 20.8147 24.4602L15.7336 58.9673C15.267 62.1184 16.0159 63.6911 17.9804 63.6911C19.2304 63.6911 20.0773 63.1842 20.5209 62.176C20.9645 61.1679 21.4196 59.1171 21.8747 56.0235L23.0153 48.2637H38.1719L37.832 50.5796H37.8262Z" fill="#EA1C3D"/>
<path d="M69.9534 72.7758H56.1332L61.3468 37.3816C61.6636 35.2443 61.8479 33.5794 61.9055 32.3869C61.9632 31.2002 61.4216 30.6011 60.2983 30.6011C59.4053 30.6011 58.7429 31.062 58.3108 31.9837C57.8788 32.9054 57.4928 34.5242 57.1471 36.84L51.8587 72.7701H38.125L47.1579 11.4292H60.8916L58.8696 25.1629C60.2176 24.0914 61.508 23.3771 62.7524 23.0257C63.9909 22.6685 65.5637 22.4899 67.4705 22.4899C69.4925 22.4899 71.215 22.801 72.6379 23.4289C74.0608 24.0568 75.0286 25.0477 75.5414 26.413C75.9216 27.4845 76.0425 28.9535 75.9158 30.8258C75.789 32.698 75.5068 35.1233 75.0689 38.0901L69.9591 72.7758H69.9534Z" fill="#EA1C3D"/>
<path d="M105.618 72.7761H92.1553L92.812 68.3172C91.6656 70.0397 90.4674 71.2322 89.2115 71.8831C87.9556 72.5399 86.2274 72.8625 84.0326 72.8625C82.1315 72.8625 80.5185 72.609 79.1935 72.1021C77.8685 71.5951 76.9928 70.8116 76.555 69.7401C76.1172 68.6686 75.881 67.4358 75.8522 66.0417C75.8176 64.6476 75.9213 63.144 76.1575 61.5368L76.7624 57.4351C77.2982 53.8116 78.0931 51.3286 79.1531 49.9921C80.2131 48.6556 82.5116 47.2443 86.0603 45.758L93.4744 42.6356C94.6208 42.0999 95.4446 41.4604 95.9401 40.7173C96.4355 39.9741 96.8215 38.6837 97.0922 36.8403C97.7144 32.6234 97.3111 30.5092 95.8825 30.5092C95.1681 30.5092 94.569 30.7453 94.0851 31.2235C93.6012 31.7016 93.2325 32.7674 92.9905 34.4323L92.138 40.2276H79.2971L79.5333 38.6204C80.0057 35.4116 80.6337 32.8538 81.4229 30.9527C82.2064 29.0517 83.5832 27.2658 85.5533 25.601C87.0454 24.3509 88.6584 23.5789 90.3982 23.2851C92.1379 22.9856 94.4595 22.8416 97.3745 22.8416C100.883 22.8416 103.648 23.1411 105.67 23.7345C107.692 24.3278 109.132 25.4569 109.985 27.1218C110.837 28.7867 111.172 31.0737 110.981 33.9887C110.791 36.9036 110.244 41.4201 109.34 47.5438L105.624 72.7761H105.618ZM93.4399 61.6347L95.3179 48.8861C93.1807 50.4933 91.8441 51.6801 91.3141 52.452C90.4731 53.7021 89.8509 55.7241 89.4419 58.5124C89.2748 59.6415 89.1135 60.7418 88.958 61.8133C88.8485 63.7719 89.5053 64.757 90.934 64.757C92.3626 64.757 93.1403 63.7201 93.4457 61.6347H93.4399Z" fill="#EA1C3D"/>
<path d="M145.047 57.5328C144.257 62.8846 143.272 66.5715 142.08 68.5878C140.334 71.5604 137.414 73.0466 133.312 73.0466C131.411 73.0466 129.855 72.7068 128.651 72.0212C127.442 71.3414 126.37 70.1375 125.437 68.4092L123.732 79.9999H109.998L118.466 22.49H132.552L131.538 26.9488C132.909 25.284 134.378 24.1088 135.933 23.429C137.489 22.7492 139.217 22.4036 141.124 22.4036C142.788 22.4036 144.223 22.657 145.427 23.1582C146.631 23.6652 147.518 24.512 148.083 25.6987C148.647 26.8855 148.918 28.2104 148.883 29.6679C148.849 31.1254 148.613 33.3375 148.175 36.3101L145.052 57.5328H145.047ZM130.627 61.0066L134.147 37.1109C134.337 35.8032 134.476 34.8814 134.556 34.3457C134.741 33.0956 134.821 32.1451 134.798 31.4941C134.775 30.8374 134.257 30.5148 133.249 30.5148C131.762 30.5148 130.812 31.9434 130.391 34.795L126.543 60.9202C126.169 63.478 126.722 64.7569 128.208 64.7569C128.98 64.7569 129.533 64.4458 129.861 63.8179C130.19 63.1957 130.449 62.2567 130.633 61.0066H130.627Z" fill="#EA1C3D"/>
<path d="M168.66 72.7761H163.13C159.8 72.7761 157.565 72.6263 156.419 72.3325C154.299 71.7967 152.853 70.5179 152.081 68.4958C151.827 67.7815 151.787 66.4623 151.954 64.5266C152.121 62.5968 152.421 60.1427 152.859 57.1701L156.615 31.6729H153.671L154.84 23.7345H157.784L158.965 15.7097H172.872L171.691 23.7345H175.349L174.179 31.6729H170.521L166.569 58.5124C166.097 61.7211 165.97 63.5646 166.201 64.0427C166.425 64.5209 167.641 64.7571 169.841 64.7571L168.66 72.7818V72.7761Z" fill="#EA1C3D"/>
<path d="M206.438 55.3899C206.335 56.1043 206.254 56.64 206.202 56.9972C205.851 59.3764 205.424 61.2602 204.923 62.6601C204.422 64.0599 203.443 65.6441 201.991 67.43C200.309 69.5672 198.534 71.0132 196.674 71.7563C194.813 72.4995 192.336 72.8682 189.242 72.8682C185.198 72.8682 182.001 72.1711 179.656 70.7713C177.306 69.3771 175.854 67.1304 175.295 64.0427C175.019 62.6773 175.002 60.9837 175.244 58.9616C175.48 56.9396 175.67 55.4533 175.814 54.5028L177.968 39.8819C178.274 37.8023 178.614 36.0164 178.977 34.5301C179.345 33.0439 179.898 31.5864 180.647 30.1635C182.053 27.4905 184.017 25.5433 186.546 24.322C189.075 23.1065 192.123 22.4958 195.689 22.4958C198.776 22.4958 201.3 22.9279 203.253 23.7863C205.205 24.6504 206.692 26.0618 207.711 28.0204C208.547 29.6277 208.985 31.5864 209.031 33.908C209.077 36.2238 208.875 38.9026 208.426 41.9328L207.441 48.621H190.412L188.822 59.411C188.597 60.9549 188.465 62.2338 188.436 63.2419C188.407 64.2558 188.983 64.757 190.176 64.757C191.184 64.757 191.95 64.3134 192.468 63.4205C192.987 62.5276 193.367 61.2487 193.615 59.5896L194.508 53.5292H206.721L206.444 55.4015L206.438 55.3899ZM195.637 40.3255L196.161 36.7596C196.265 36.0452 196.34 35.544 196.386 35.2445C196.651 33.4586 196.708 32.2431 196.57 31.5864C196.426 30.9354 195.971 30.607 195.199 30.607C194.306 30.607 193.69 30.872 193.344 31.4078C192.998 31.9435 192.722 32.8941 192.52 34.2594L191.627 40.3197H195.637V40.3255Z" fill="#EA1C3D"/>
<path d="M236.17 39.3404H235.19C231.74 39.3404 229.441 40.4407 228.283 42.6413C227.546 44.0124 226.774 47.4285 225.973 52.8955L223.047 72.776H209.227L216.629 22.4901H230.449L228.854 29.0862C230.276 26.707 231.625 24.9845 232.915 23.913C234.534 22.6053 236.492 21.8334 238.785 21.5972L236.17 39.3404Z" fill="#EA1C3D"/>
<path d="M284.544 60.0217H279.884L277.994 72.8336H261.691L263.575 60.0217H244.098L245.941 47.5323L267.129 0H288.726L281.727 47.5323H286.388L284.55 60.0217H284.544ZM265.424 47.5323L269.992 16.6256L258.096 47.5265H265.418L265.424 47.5323Z" fill="#EA1C3D"/>
</svg>
