<svg width="290" height="80" viewBox="0 0 290 80" fill="none" xmlns="http://www.w3.org/2000/svg">
<path d="M37.8017 50.5987C37.6981 51.3126 37.6175 51.848 37.5657 52.2049C37.4793 52.7979 37.4102 53.2469 37.3699 53.5406C36.8806 56.8681 36.2588 59.4818 35.5047 61.3817C32.6952 69.1652 26.3567 73.057 16.5006 73.057C12.937 73.057 10.1218 72.8209 8.04927 72.3431C5.98249 71.871 4.23811 70.8002 2.82188 69.1364C1.089 67.1733 0.162114 64.9165 0.029702 62.3661C-0.10271 59.81 0.208174 56.0103 0.950834 50.9614L4.22084 28.7737C5.11318 22.7173 7.35843 18.2728 10.9508 15.4519C14.5432 12.6309 19.3734 11.2205 25.4298 11.2205C29.051 11.2205 31.8892 11.5313 33.933 12.1531C35.9767 12.7749 37.6693 13.9954 39.0107 15.8088C40.3463 17.6223 41.0948 20.0115 41.2502 22.9821C41.3481 25.118 41.1005 28.2383 40.496 32.3373L40.024 35.544H24.8771L26.0573 27.5244C26.1552 26.8739 26.2301 26.3673 26.2819 26.0103C26.5467 24.2256 26.6676 23.1894 26.6503 22.89C26.5697 21.4047 25.8213 20.662 24.3936 20.662C22.3728 20.662 21.1754 21.9401 20.8011 24.4962L15.7234 58.981C15.2571 62.1301 16.0055 63.7018 17.9687 63.7018C19.218 63.7018 20.0643 63.1951 20.5075 62.1876C20.9508 61.1802 21.4056 59.1307 21.8604 56.0391L23.0003 48.2844H38.1471L37.8075 50.5987H37.8017Z" fill="#EA1C3D"/>
<path d="M69.9093 72.7808H56.0981L61.3082 37.4094C61.6249 35.2735 61.8091 33.6098 61.8667 32.418C61.9242 31.2321 61.3831 30.6334 60.2605 30.6334C59.3681 30.6334 58.706 31.0939 58.2743 32.015C57.8425 32.9362 57.4568 34.5539 57.1114 36.8682L51.8264 72.775H38.1016L47.1286 11.4739H60.8534L58.8327 25.1987C60.1799 24.1279 61.4694 23.414 62.713 23.0628C63.9507 22.7059 65.5224 22.5274 67.428 22.5274C69.4487 22.5274 71.1701 22.8383 72.5921 23.4658C74.014 24.0933 74.9813 25.0836 75.4936 26.448C75.8736 27.5188 75.9945 28.9868 75.8678 30.8579C75.7412 32.7289 75.4591 35.1526 75.0215 38.1175L69.915 72.7808H69.9093Z" fill="#EA1C3D"/>
<path d="M105.55 72.7806H92.0958L92.7521 68.3246C91.6065 70.0459 90.409 71.2377 89.154 71.8882C87.8989 72.5445 86.1718 72.8669 83.9784 72.8669C82.0786 72.8669 80.4666 72.6136 79.1424 72.107C77.8183 71.6004 76.9432 70.8174 76.5057 69.7466C76.0682 68.6758 75.8321 67.4438 75.8034 66.0506C75.7688 64.6574 75.8725 63.1548 76.1085 61.5485L76.713 57.4495C77.2484 53.8283 78.0428 51.347 79.1021 50.0114C80.1614 48.6758 82.4585 47.2653 86.0048 45.78L93.4142 42.6597C94.5599 42.1242 95.3831 41.4852 95.8782 40.7426C96.3733 39.9999 96.759 38.7103 97.0296 36.8681C97.6514 32.6539 97.2484 30.5411 95.8206 30.5411C95.1068 30.5411 94.508 30.7771 94.0244 31.2549C93.5409 31.7328 93.1724 32.7978 92.9306 34.4616L92.0786 40.2532H79.2461L79.4821 38.647C79.9542 35.4403 80.5817 32.8842 81.3704 30.9843C82.1534 29.0845 83.5293 27.2998 85.4983 25.636C86.9893 24.3868 88.6013 23.6153 90.3399 23.3217C92.0786 23.0223 94.3986 22.8784 97.3117 22.8784C100.818 22.8784 103.581 23.1778 105.602 23.7708C107.623 24.3637 109.062 25.4921 109.914 27.1559C110.766 28.8197 111.1 31.1052 110.91 34.0183C110.72 36.9314 110.173 41.4449 109.269 47.5647L105.556 72.7806H105.55ZM93.3797 61.6464L95.2564 48.9061C93.1206 50.5123 91.785 51.6982 91.2553 52.4697C90.4148 53.719 89.793 55.7397 89.3843 58.5261C89.2173 59.6545 89.0561 60.7541 88.9007 61.8249C88.7913 63.7823 89.4476 64.7667 90.8753 64.7667C92.3031 64.7667 93.0803 63.7305 93.3854 61.6464H93.3797Z" fill="#EA1C3D"/>
<path d="M144.952 57.5474C144.163 62.8957 143.179 66.5802 141.987 68.5952C140.242 71.5659 137.324 73.0512 133.225 73.0512C131.325 73.0512 129.77 72.7115 128.567 72.0264C127.358 71.3471 126.287 70.1439 125.355 68.4167L123.651 79.9999H109.926L118.389 22.5273H132.465L131.451 26.9832C132.822 25.3194 134.29 24.145 135.844 23.4657C137.398 22.7863 139.126 22.4409 141.031 22.4409C142.695 22.4409 144.128 22.6942 145.332 23.1951C146.535 23.7017 147.421 24.548 147.986 25.734C148.55 26.9199 148.82 28.244 148.786 29.7006C148.751 31.1571 148.515 33.3678 148.078 36.3384L144.957 57.5474H144.952ZM130.536 61.0189L134.054 37.1387C134.244 35.8318 134.382 34.9107 134.462 34.3753C134.647 33.126 134.727 32.1761 134.704 31.5255C134.681 30.8692 134.163 30.5469 133.155 30.5469C131.67 30.5469 130.72 31.9746 130.3 34.8243L126.454 60.9326C126.08 63.4887 126.633 64.7668 128.118 64.7668C128.89 64.7668 129.442 64.4559 129.77 63.8284C130.098 63.2066 130.358 62.2682 130.542 61.0189H130.536Z" fill="#EA1C3D"/>
<path d="M168.544 72.7808H163.017C159.69 72.7808 157.456 72.6311 156.31 72.3375C154.192 71.8021 152.747 70.5241 151.975 68.5033C151.722 67.7895 151.682 66.4711 151.849 64.5367C152.016 62.6081 152.315 60.1556 152.752 57.185L156.506 31.7043H153.564L154.733 23.771H157.675L158.855 15.7515H172.752L171.572 23.771H175.228L174.059 31.7043H170.404L166.454 58.5264C165.982 61.7331 165.855 63.5753 166.086 64.0532C166.31 64.531 167.525 64.767 169.724 64.767L168.544 72.7866V72.7808Z" fill="#EA1C3D"/>
<path d="M206.299 55.4057C206.195 56.1196 206.115 56.655 206.063 57.012C205.712 59.3896 205.286 61.2722 204.785 62.6711C204.284 64.0701 203.305 65.6533 201.854 67.438C200.173 69.5738 198.4 71.0189 196.541 71.7615C194.681 72.5042 192.206 72.8726 189.114 72.8726C185.073 72.8726 181.877 72.176 179.534 70.7771C177.185 69.3839 175.735 67.1386 175.176 64.0528C174.9 62.6884 174.883 60.9958 175.124 58.9751C175.36 56.9544 175.55 55.4691 175.694 54.5191L177.847 39.9077C178.153 37.8294 178.492 36.0448 178.855 34.5594C179.223 33.0741 179.776 31.6176 180.524 30.1956C181.929 27.5243 183.892 25.5784 186.42 24.3579C188.947 23.1432 191.993 22.533 195.556 22.533C198.642 22.533 201.163 22.9647 203.115 23.8225C205.067 24.6861 206.552 26.0966 207.571 28.054C208.406 29.6602 208.843 31.6176 208.889 33.9377C208.935 36.252 208.734 38.9291 208.285 41.9573L207.3 48.6412H190.283L188.694 59.4242C188.469 60.967 188.337 62.2451 188.308 63.2526C188.279 64.2658 188.855 64.7667 190.047 64.7667C191.054 64.7667 191.82 64.3234 192.338 63.4311C192.856 62.5387 193.236 61.2607 193.484 59.6026L194.376 53.5462H206.581L206.305 55.4172L206.299 55.4057ZM195.51 40.351L196.034 36.7874C196.138 36.0735 196.212 35.5727 196.258 35.2733C196.523 33.4886 196.581 32.2739 196.443 31.6176C196.299 30.967 195.844 30.6389 195.073 30.6389C194.18 30.6389 193.564 30.9037 193.219 31.4391C192.873 31.9745 192.597 32.9244 192.396 34.2889L191.503 40.3453H195.51V40.351Z" fill="#EA1C3D"/>
<path d="M236.018 39.3667H235.039C231.59 39.3667 229.293 40.4663 228.136 42.6655C227.399 44.0357 226.628 47.4496 225.828 52.9131L222.903 72.7807H209.092L216.49 22.5274H230.301L228.706 29.1192C230.128 26.7415 231.475 25.0202 232.765 23.9493C234.383 22.6425 236.34 21.871 238.631 21.635L236.018 39.3667Z" fill="#EA1C3D"/>
<path d="M285.517 50.6621C284.884 54.9626 284.101 58.4053 283.174 61.0017C282.247 63.5982 280.825 65.8492 278.902 67.7548C275.373 71.3011 270.612 73.0743 264.607 73.0743C258.263 73.0743 253.64 71.7962 250.744 69.2343C247.849 66.6782 246.766 62.8728 247.515 57.8238L248.459 49.3264L248.822 46.8682H264.584L262.955 57.9217C262.535 60.7887 263.208 62.2222 264.982 62.2222C266.346 62.2222 267.284 61.5429 267.791 60.1727C268.298 58.8083 268.827 56.2522 269.38 52.4986L270.105 47.5878C270.71 43.4945 270.376 40.9039 269.104 39.81C268.131 38.9925 265.77 38.5838 262.017 38.5838L263.525 28.3477H264.446C268.269 28.3477 270.693 27.9735 271.723 27.2193C272.754 26.4709 273.531 24.3178 274.055 20.7715L274.642 16.7818C274.953 14.669 275.051 13.3045 274.936 12.6885C274.705 11.4623 273.98 10.8463 272.748 10.8463C270.837 10.8463 269.674 12.2453 269.265 15.0432L268.378 21.0823H252.616L253.203 17.0927C254.17 10.5412 256.173 6.05642 259.23 3.6327C262.282 1.21474 267.152 0 273.836 0C280.111 0 284.55 1.48532 287.152 4.4502C289.749 7.42084 290.572 12.1416 289.616 18.6241C289.023 22.6483 287.929 25.688 286.329 27.7317C285.229 29.1652 283.496 30.5297 281.119 31.825C284.066 33.1203 285.765 35.0144 286.219 37.5072C286.674 40 286.432 44.3811 285.511 50.6621H285.517Z" fill="#EA1C3D"/>
</svg>
