<svg width="30" height="30" viewBox="0 0 30 30" fill="none" xmlns="http://www.w3.org/2000/svg">
<circle cx="15" cy="15" r="12" fill="#1F4B78"/>
<circle cx="15" cy="15" r="13.5" stroke="white" stroke-opacity="0.5" stroke-width="3"/>
<path d="M18.5392 13.3201L14.5642 10.4034C14.2537 10.1761 13.8863 10.0392 13.5028 10.0079C13.1193 9.97658 12.7346 10.0521 12.3914 10.2261C12.0482 10.4001 11.7598 10.6657 11.5584 10.9936C11.3569 11.3214 11.2502 11.6986 11.25 12.0834V17.9168C11.2501 18.3017 11.3568 18.6792 11.5584 19.0072C11.7599 19.3352 12.0484 19.6009 12.3918 19.7749C12.7353 19.9488 13.1202 20.0243 13.5039 19.9927C13.8875 19.9612 14.255 19.824 14.5654 19.5964L18.5404 16.6797C18.8043 16.4862 19.0189 16.2333 19.1668 15.9414C19.3147 15.6495 19.3917 15.3269 19.3917 14.9997C19.3917 14.6725 19.3147 14.3499 19.1668 14.058C19.0189 13.7661 18.8043 13.5132 18.5404 13.3197L18.5392 13.3201ZM18.0458 16.0076L14.0708 18.9243C13.8846 19.0604 13.6643 19.1423 13.4344 19.1609C13.2045 19.1796 12.9739 19.1342 12.7682 19.03C12.5624 18.9257 12.3895 18.7665 12.2687 18.57C12.1478 18.3735 12.0837 18.1474 12.0833 17.9168V12.0834C12.081 11.8523 12.144 11.6253 12.2649 11.4283C12.3859 11.2314 12.5599 11.0726 12.7671 10.9701C12.9433 10.8805 13.1381 10.8337 13.3358 10.8334C13.6008 10.8345 13.8584 10.9205 14.0708 11.0789L18.0458 13.9955C18.204 14.1116 18.3325 14.2634 18.4211 14.4384C18.5098 14.6134 18.5559 14.8068 18.5559 15.003C18.5559 15.1992 18.5098 15.3926 18.4211 15.5677C18.3325 15.7427 18.204 15.8944 18.0458 16.0105V16.0076Z" fill="white"/>
</svg>
