<svg width="168" height="104" viewBox="0 0 168 104" fill="none" xmlns="http://www.w3.org/2000/svg">
<g clip-path="url(#clip0_14_15381)">
<g clip-path="url(#clip1_14_15381)">
<path d="M7.60752 94.337C7.60752 96.8019 4.75053 99.0566 2.38371 100.611H7.80359V102.026H0.0869141V100.695C2.24366 99.1407 5.99696 96.4657 5.99696 94.4631C5.99696 93.4127 5.38075 92.5164 3.53211 92.5164C2.55177 92.5164 1.44538 92.8245 0.409026 93.3287V91.7881C1.36136 91.396 2.53776 91.0879 3.71417 91.0879C6.13701 91.0879 7.60752 92.3203 7.60752 94.323V94.337Z" fill="white"/>
<path d="M32.1721 96.6475C32.1721 100.023 30.2674 102.235 27.4804 102.235C24.6935 102.235 22.7888 100.023 22.7888 96.6475C22.7888 93.2723 24.5534 91.1016 27.4804 91.1016C30.4075 91.1016 32.1721 93.3283 32.1721 96.6475ZM24.3153 96.6475C24.3153 99.4344 25.9119 100.779 27.4804 100.779C28.9229 100.779 30.6455 99.4485 30.6455 96.6475C30.6455 93.8465 29.091 92.516 27.4244 92.516C25.8839 92.516 24.3013 93.7345 24.3013 96.6475H24.3153Z" fill="white"/>
<path d="M54.8178 94.337C54.8178 96.8019 51.9608 99.0566 49.594 100.611H55.0139V102.026H47.2832V100.695C49.44 99.1407 53.1932 96.4657 53.1932 94.4631C53.1932 93.4127 52.577 92.5164 50.7284 92.5164C49.7481 92.5164 48.6417 92.8245 47.6053 93.3287V91.7881C48.5576 91.396 49.7341 91.0879 50.9105 91.0879C53.3333 91.0879 54.8038 92.3203 54.8038 94.323L54.8178 94.337Z" fill="white"/>
<path d="M77.0856 92.5724C75.139 92.8385 72.8422 93.8608 72.0019 95.6114C72.352 95.2473 73.4724 94.7711 74.3407 94.7711C76.8195 94.7711 78.234 96.4097 78.234 98.3704C78.234 100.331 76.7215 102.236 74.0746 102.236C71.6798 102.236 70.0132 100.653 70.0132 98.0063C70.0132 94.1269 73.1363 91.7321 77.0856 91.1299V92.5724ZM71.5957 98.4264C71.5957 99.7709 72.464 100.793 74.1026 100.793C75.6011 100.793 76.6655 99.8549 76.6655 98.4124C76.6655 96.8719 75.4891 96.1016 74.1586 96.1016C72.6601 96.1016 71.5957 97.0399 71.5957 98.4264Z" fill="white"/>
<path d="M95.712 99.1679C95.3198 100.162 94.6196 101.255 94.0174 101.955C93.8213 101.829 93.4012 101.563 93.1631 101.451C93.8073 100.792 94.3815 99.8401 94.7176 98.9298L95.726 99.1679H95.712ZM97.7427 98.1875V103.061H96.5383V98.1875H93.2471V97.2912H96.5383V95.8207H93.1631V94.9384H97.7147C98.0228 94.2942 98.4149 93.3698 98.611 92.7256L99.7314 92.9217C99.4373 93.5939 99.1151 94.3502 98.807 94.9384H100.908V95.8207H97.7427V97.2912H100.726V98.1875H97.7427ZM100.67 92.6276H93.4432V91.7593H96.6783C96.4682 91.3391 96.1881 90.863 95.95 90.4848L97.1405 90.2188C97.4906 90.6949 97.8547 91.2971 98.0788 91.7593H100.67V92.6276ZM95.1378 94.8824C95.0537 94.3642 94.7876 93.5519 94.5076 92.9357L95.4879 92.7396C95.824 93.3418 96.1041 94.1261 96.1601 94.6443L95.1378 94.8824ZM99.3392 98.8457C99.8714 99.532 100.446 100.442 100.726 101.045L99.8574 101.465C99.5913 100.862 99.0031 99.8961 98.4989 99.2239L99.3392 98.8457ZM108.12 95.9747H106.314V103.047H105.123V95.9747H102.854V96.4649C102.854 98.4676 102.644 101.227 101.132 103.047C100.936 102.851 100.46 102.529 100.194 102.417C101.58 100.736 101.706 98.3276 101.706 96.4649V91.6332C103.555 91.3812 105.655 90.961 106.846 90.5409L107.826 91.3111C106.468 91.7453 104.591 92.0954 102.854 92.3195V94.9804H108.106V95.9607L108.12 95.9747Z" fill="white"/>
<path d="M132.965 96.2281V98.3148H136.872V99.2811H132.965V101.536C132.965 101.97 133.063 102.054 133.623 102.054H135.5C136.018 102.054 136.088 101.774 136.158 100.275C136.424 100.458 136.928 100.64 137.264 100.71C137.152 102.488 136.802 102.978 135.598 102.978H133.441C132.055 102.978 131.691 102.67 131.691 101.522V99.2811H128.722C128.455 100.78 127.489 102.208 124.24 103.174C124.086 102.936 123.708 102.544 123.47 102.348C126.229 101.564 127.167 100.458 127.461 99.2951H123.792V98.3288H127.587V96.2421H125.851V95.7099C125.052 96.214 124.212 96.6202 123.386 96.9423C123.218 96.7182 122.853 96.3541 122.629 96.158C123.764 95.7659 124.954 95.1357 125.977 94.3374C125.486 93.8892 124.674 93.301 123.988 92.8669L124.744 92.3207C125.402 92.7268 126.215 93.273 126.747 93.6932C127.335 93.119 127.867 92.5028 128.287 91.8445H124.198V90.9202H128.904L129.114 90.8782L129.926 91.2143C129.212 92.8529 127.965 94.2254 126.495 95.2897H134.253C132.657 94.0713 131.396 92.4608 130.57 90.6401L131.621 90.374C131.901 90.9902 132.251 91.5784 132.657 92.1386C133.385 91.6205 134.169 90.9622 134.688 90.4721L135.612 91.0323C134.884 91.6485 133.973 92.3067 133.189 92.7969C133.525 93.175 133.889 93.5391 134.267 93.8752C135.094 93.3431 136.046 92.6008 136.634 92.0686L137.559 92.6288C136.802 93.245 135.808 93.9173 134.968 94.4354C135.892 95.1217 136.928 95.6819 138.049 96.06C137.783 96.2561 137.391 96.6622 137.208 96.9283C136.368 96.6202 135.57 96.2 134.842 95.7099V96.2421H132.937L132.965 96.2281ZM131.691 96.2281H128.82V98.3148H131.691V96.2281Z" fill="white"/>
<path d="M158.538 97.7533C158.258 100.596 157.403 102.263 153.3 103.117C153.202 102.851 152.866 102.445 152.6 102.235C156.381 101.549 157.039 100.19 157.277 97.7533H158.538ZM159.406 92.6415H152.95V91.6752H159.406V90.3027H160.666V91.6752H167.249V92.6415H160.666V94.028H165.792V94.9523H154.49V94.028H159.406V92.6415ZM165.568 98.7617V97.0391H154.574V98.7617H153.384V96.0867H166.815V98.7617H165.582H165.568ZM165.484 101.899C166.1 101.899 166.198 101.661 166.24 100.092C166.52 100.26 167.011 100.414 167.361 100.498C167.207 102.375 166.885 102.851 165.596 102.851H163.187C161.703 102.851 161.325 102.543 161.325 101.465V97.7393H162.543V101.451C162.543 101.829 162.655 101.899 163.299 101.899H165.484Z" fill="white"/>
<path d="M0.745117 27.8564V0.504883H4.69449V27.8424H0.745117V27.8564ZM24.9035 0.504883C18.8394 5.50462 14.0497 9.93015 10.3524 14.1316C15.1001 18.249 20.1979 22.9267 24.9035 27.8424H19.3436C14.974 23.3048 10.1704 18.8793 5.04461 14.4677C8.99398 9.80411 13.4615 5.1685 18.8394 0.504883H24.9035Z" fill="white"/>
<path d="M41.0933 27.8564V0.504883H45.0426V27.8424H41.0933V27.8564Z" fill="white"/>
<path d="M88.3314 1.76461V5.88204C85.5585 4.45354 82.4774 3.69728 79.2843 3.69728C72.632 3.69728 67.2962 7.22651 67.2962 14.383C67.2962 21.5395 73.7804 24.6485 79.5784 24.6485C83.0656 24.6485 84.9143 24.2284 88.5415 22.7999V26.6652C86.7349 27.4215 83.7939 28.3458 79.2843 28.3458C71.6657 28.3458 63.1367 24.5225 63.1367 14.425C63.1367 4.3275 70.7834 0 79.3683 0C82.4354 0 86.1047 0.756262 88.3314 1.76461Z" fill="white"/>
<path d="M106.622 27.8564V0.504883H110.571V27.8424H106.622V27.8564ZM130.78 0.504883C124.716 5.50462 119.926 9.93015 116.229 14.1316C120.977 18.249 126.075 22.9267 130.78 27.8424H125.22C120.851 23.3048 116.047 18.8793 110.921 14.4677C114.871 9.80411 119.338 5.1685 124.716 0.504883H130.78Z" fill="white"/>
<path d="M165.512 1.4285V5.20981C161.983 4.11743 159.616 3.57124 156.801 3.57124C153.23 3.57124 149.603 4.45354 149.603 7.47859C149.603 9.49529 151.325 10.6297 153.594 11.2599L160.54 13.2346C163.902 14.1589 166.689 16.2176 166.689 20.3911C166.689 25.4748 162.445 28.3458 155.079 28.3458C151.507 28.3458 148.384 27.6736 145.233 26.4972V22.5058C148.426 23.5562 151.465 24.7326 155.079 24.7326C159.658 24.7326 162.613 23.094 162.613 20.5311C162.613 18.3043 160.891 17.17 158.538 16.5397L152.096 14.7751C148.608 13.8508 145.611 11.8761 145.611 7.4926C145.611 2.15675 150.695 0 156.801 0C160.204 0 162.949 0.588204 165.512 1.4285Z" fill="white"/>
<path d="M10.8566 42.7562V44.6469C9.09201 44.1007 7.9156 43.8346 6.51512 43.8346C4.7365 43.8346 2.92987 44.2688 2.92987 45.7813C2.92987 46.7896 3.79818 47.3498 4.91856 47.6719L8.39177 48.6663C10.0724 49.1284 11.4588 50.1648 11.4588 52.2375C11.4588 54.7864 9.33009 56.2009 5.66082 56.2009C3.8682 56.2009 2.31366 55.8648 0.745117 55.2766V53.2739C2.34167 53.8061 3.85419 54.3803 5.66082 54.3803C7.94361 54.3803 9.41412 53.568 9.41412 52.2795C9.41412 51.1732 8.55982 50.599 7.36941 50.2909L4.1623 49.4085C2.4257 48.9464 0.92718 47.952 0.92718 45.7813C0.92718 43.1064 3.46206 42.042 6.51512 42.042C8.2097 42.042 9.58218 42.3361 10.8566 42.7562Z" fill="white"/>
<path d="M41.1069 55.9487C40.7708 54.9403 40.3507 53.7219 39.8465 52.4195H32.4099C31.8637 53.8059 31.4156 55.0524 31.1495 55.9487H29.0208C31.0795 49.7025 34.0205 43.7645 34.9168 42.2939H37.2556C37.8298 43.2043 40.7428 48.6521 43.1516 55.9487H41.0929H41.1069ZM39.1603 50.6548C38.1939 48.246 37.0875 45.7671 36.1352 44.0866C35.2809 45.7111 34.1185 48.246 33.1382 50.6548H39.1603Z" fill="white"/>
<path d="M61.54 55.9487V42.2939H63.5147V55.9487H61.54ZM73.5982 42.2939C70.5732 44.8008 68.1783 46.9996 66.3297 49.1003C68.7105 51.159 71.2454 53.4838 73.5982 55.9487H70.8253C68.6405 53.6799 66.2457 51.4671 63.6828 49.2684C65.6575 46.9296 67.8842 44.6188 70.5732 42.2939H73.5982Z" fill="white"/>
<path d="M103.555 50.081C103.555 53.3301 102.21 56.1871 97.6027 56.1871C92.9952 56.1871 91.7207 53.3301 91.7207 50.081V42.2803H93.6954V50.095C93.6954 52.896 95.0259 54.3385 97.6027 54.3385C100.18 54.3385 101.566 52.8819 101.566 50.095V42.2803H103.541V50.081H103.555Z" fill="white"/>
<path d="M132.741 55.9487C131.663 54.3801 130.178 52.5175 128.68 50.9489H125.669V55.9487H123.694V42.2939H129.422C131.116 42.2939 134.478 43.0082 134.478 46.5374C134.478 49.0443 132.783 50.3327 131.116 50.7529C132.293 52.0133 133.847 53.904 135.332 55.9487H132.713H132.741ZM129.17 49.1423C130.5 49.1423 132.447 48.7642 132.447 46.5934C132.447 44.7028 130.878 44.0866 129.254 44.0866H125.683V49.1283H129.17V49.1423Z" fill="white"/>
<path d="M164.658 55.9487C164.322 54.9403 163.901 53.7219 163.397 52.4195H155.961C155.415 53.8059 154.966 55.0524 154.7 55.9487H152.572C154.63 49.7025 157.571 43.7645 158.468 42.2939H160.806C161.381 43.2043 164.294 48.6521 166.702 55.9487H164.644H164.658ZM162.711 50.6548C161.745 48.246 160.638 45.7671 159.686 44.0866C158.832 45.7111 157.669 48.246 156.689 50.6548H162.711Z" fill="white"/>
<path d="M0.0588379 73.6514H167.389" stroke="white" stroke-width="0.700243" stroke-miterlimit="10"/>
</g>
</g>
<defs>
<clipPath id="clip0_14_15381">
<rect width="168" height="104" fill="white"/>
</clipPath>
<clipPath id="clip1_14_15381">
<rect width="167.33" height="103.174" fill="white" transform="translate(0.0588379)"/>
</clipPath>
</defs>
</svg>
