<svg width="187" height="15" viewBox="0 0 187 15" fill="none" xmlns="http://www.w3.org/2000/svg">
<path d="M2.70996 0.719727H0.629883V14.6201H0V0.0205078H2.70996V0.719727ZM186.021 14.5996H183.311V13.8896H185.38V0H186.021V14.5996ZM33.4502 0.69043C33.3502 1.43035 33.0896 2.33059 32.6797 3.40039L32.5498 3.72949V13.9199C32.5498 14.3299 32.3898 14.5396 32.0898 14.5596C31.76 14.5495 31.5996 14.3398 31.5996 13.9199V5.66992C31.5297 5.76987 31.4797 5.87024 31.4297 5.9502C30.8099 6.82979 30.3405 7.35017 30.0205 7.53027C31.0505 5.22027 31.9397 2.74961 32.6797 0.0996094L33.4502 0.69043ZM98.0898 0.620117C98.2798 0.770107 98.3796 1.02997 98.3896 1.41992C98.3896 1.87992 98.1497 2.11035 97.6797 2.11035H96.3701V13.6104C96.37 14.2401 96.1795 14.5498 95.8096 14.5498C95.5498 14.5496 95.3803 14.3595 95.3203 13.9697C95.0203 13.4798 94.4598 13.16 93.6299 13C93.6999 12.92 93.96 12.8598 94.4199 12.8398C94.8397 12.8598 95.1696 12.9 95.3896 12.96V2.11035H87.5303L87.2803 1.41992H97.54L98.0898 0.620117ZM154.32 0.310547C154.74 0.400692 155.1 0.760314 155.38 1.37012C155.15 1.42013 154.95 1.5405 154.77 1.73047C153.87 3.08018 153.07 3.94059 152.39 4.31055C152.58 4.50057 152.68 4.89011 152.69 5.5V6.78027H154.79L155.34 5.98047C155.53 6.13048 155.63 6.39035 155.64 6.78027C155.64 7.24013 155.4 7.46973 154.93 7.46973H152.69V13.6699L152.67 13.6797C152.67 14.2397 152.47 14.5303 152.06 14.5303C151.77 14.5201 151.59 14.3496 151.54 14.0098C151.25 13.4799 150.77 13.1698 150.1 13.0898C150.2 13.0099 150.48 12.9697 150.93 12.9697C151.249 12.9797 151.5 13.0199 151.68 13.0898V7.49023H149.05L148.8 6.7998H151.69V5.33008C151.69 4.69008 151.52 4.29012 151.18 4.12012C151.25 4.07016 151.36 4.0401 151.52 4.04004C151.82 4.04004 152.06 4.09997 152.25 4.20996C152.8 3.29999 153.27 2.41978 153.66 1.5498H149.55L149.3 0.860352H153.77C153.93 0.570352 154.11 0.390547 154.32 0.310547ZM114.3 0.19043C114.69 0.19043 114.97 0.260187 115.13 0.410156C115.35 0.570129 115.45 0.959807 115.45 1.59961C115.45 2.65953 115.42 3.61978 115.38 4.46973C115.31 5.72973 115.2 6.86012 115.04 7.87012C114.98 8.14003 114.92 8.41 114.86 8.66992C115.17 8.96985 115.48 9.31985 115.79 9.71973C116.19 10.3097 116.5 10.8503 116.72 11.3203C117.09 12.1003 117.271 12.8 117.271 13.4199C117.271 13.8999 117.1 14.1401 116.78 14.1602C116.42 14.1602 116.22 13.8996 116.17 13.3896C116.14 13.0498 116.09 12.7301 116.01 12.4502C115.9 11.9002 115.75 11.3298 115.57 10.7598C115.35 10.1199 115.1 9.48011 114.811 8.82031C114.511 9.85018 114.07 10.7799 113.49 11.5898C112.47 12.9298 111.02 13.9 109.141 14.5C110.6 13.54 111.78 12.3998 112.7 11.0898C113.36 10.0299 113.801 8.90974 114.021 7.75977C114.22 6.85981 114.35 5.74957 114.41 4.42969C114.44 3.58974 114.45 2.60942 114.45 1.51953L114.47 1.49023C114.47 0.850267 114.31 0.449545 113.98 0.269531C114.04 0.219756 114.14 0.190476 114.3 0.19043ZM54.2402 0.120117C54.58 0.12012 54.8501 0.199763 55.04 0.349609C55.17 0.489559 55.24 0.73982 55.25 1.09961C55.18 2.03961 55.0902 2.94004 54.9502 3.79004C55.2902 5.42002 55.6704 6.73048 56.1104 7.73047C56.5703 8.9101 57.13 9.90989 57.7998 10.7197C58.5098 11.5597 59.3606 12.3002 60.3506 12.9102C60.1206 13.0802 59.9102 13.3302 59.7002 13.6602C59.6801 13.71 59.6102 13.7402 59.4707 13.7402C59.3907 13.7402 59.2498 13.6798 59.0498 13.5498C58.77 13.3599 58.4805 13.0997 58.1807 12.75C57.5407 12.06 57.0201 11.3296 56.6201 10.5596C56.1102 9.58974 55.7101 8.57002 55.4102 7.49023C55.1472 6.48712 54.9609 5.51216 54.8682 4.5752C54.8218 4.8534 54.7763 5.1325 54.7207 5.41992C54.3407 7.24979 53.8103 8.82975 53.1104 10.1797C52.0204 12.2895 50.7206 13.7102 49.2207 14.4502C50.4406 13.0503 51.4505 11.4801 52.2305 9.74023C52.8005 8.49023 53.2501 7.14973 53.5801 5.71973C53.9001 4.41977 54.1305 2.84943 54.2705 1.01953C54.2704 0.569823 54.1503 0.28966 53.9004 0.179688C53.9804 0.139775 54.0904 0.120117 54.2402 0.120117ZM129.2 4.67969C129.08 5.18969 128.79 5.82031 128.34 6.57031L128.28 6.66016V13.7695C128.28 14.1895 128.12 14.4097 127.8 14.4297C127.46 14.4296 127.29 14.1995 127.29 13.7695V7.96973C127.18 8.08973 127.059 8.21961 126.939 8.34961C126.249 8.94958 125.73 9.32043 125.38 9.44043C126.56 7.7805 127.579 6.01002 128.439 4.12012L129.2 4.67969ZM40.2402 0.44043C40.7001 0.450516 41.09 0.73013 41.4199 1.29004C41.2001 1.46987 41.0404 1.65979 40.9404 1.84961V13.5303C40.9404 13.9898 40.7801 14.2193 40.4805 14.2295C40.1805 14.2195 40.0202 14.0299 39.9902 13.6699H34.7197V13.79C34.7197 14.16 34.5597 14.3396 34.2598 14.3496C33.9299 14.3495 33.7705 14.1697 33.7705 13.7998H33.7598V0.549805C34.3998 0.549805 34.7197 0.68997 34.7197 0.959961V1.07031H39.8203C39.9503 0.770373 40.0903 0.560442 40.2402 0.44043ZM146.39 0.0605469C146.64 0.0605469 146.84 0.150547 146.97 0.310547C147.09 0.41058 147.15 0.640121 147.15 1C147.13 1.32 147.08 1.78035 146.99 2.36035C146.92 2.83018 146.85 3.30999 146.78 3.7998L148.02 3.66016C148.02 3.11016 147.85 2.74961 147.54 2.59961C147.59 2.55975 147.701 2.54004 147.86 2.54004C148.23 2.54008 148.49 2.60051 148.65 2.73047C148.85 2.8506 148.95 3.11061 148.97 3.53027L149.6 3.44043C149.559 3.54041 149.349 3.69022 148.95 3.87988C148.86 6.27971 148.52 8.2699 147.94 9.83984L147.6 10.6104C148.03 10.9804 148.36 11.3202 148.59 11.6602C148.8 11.97 148.9 12.2297 148.9 12.4297C148.9 12.7997 148.75 12.9805 148.46 12.9805C148.22 12.9805 148.02 12.8102 147.87 12.4805C147.65 12.1505 147.42 11.8104 147.17 11.4805C146.4 12.8903 145.529 13.8399 144.56 14.3398C145.41 13.2598 146.09 12.0798 146.62 10.7998C146.32 10.4199 146 10.0597 145.65 9.71973C145.57 10.0195 145.41 10.1802 145.19 10.1904C145.02 10.1904 144.89 10.1402 144.8 10.0303C144.74 9.97027 144.72 9.85973 144.72 9.71973C144.72 9.63989 144.73 9.54016 144.76 9.44043H144.75C145.1 7.83043 145.38 6.33996 145.61 4.95996C145.32 5.02995 145.06 5.0796 144.83 5.09961L144.48 4.02051C144.92 3.99051 145.35 3.95014 145.78 3.91016C145.86 3.37016 145.94 2.84984 146.01 2.33984C146.09 1.76992 146.15 1.27984 146.16 0.879883C146.16 0.499985 146.04 0.25963 145.84 0.139648C145.95 0.089681 146.13 0.0605727 146.39 0.0605469ZM134.86 0.25C135.32 0.260165 135.71 0.520445 136.04 1.03027C135.82 1.2002 135.66 1.36967 135.56 1.55957V7.19043L135.57 7.2002C135.57 7.62007 135.41 7.82984 135.09 7.83984C134.79 7.82983 134.62 7.66959 134.58 7.34961H132.649C132.859 8.55961 133.17 9.58039 133.59 10.4004C134.3 9.76039 134.92 9.06004 135.46 8.29004L136.21 9.09961C135.99 9.41958 135.6 9.75034 135.03 10.0703C134.6 10.2903 134.149 10.4603 133.689 10.5703C133.739 10.6603 133.78 10.7503 133.83 10.8203C134.46 11.8801 135.37 12.7204 136.56 13.3203C136.32 13.4903 136.1 13.7104 135.91 13.9902C135.86 14.1202 135.77 14.1904 135.64 14.1904C135.58 14.1804 135.51 14.1496 135.43 14.0996C135.24 13.9996 134.99 13.7994 134.67 13.5195C134.33 13.2196 133.99 12.7898 133.66 12.25C133.32 11.66 133.06 11.0096 132.87 10.3096C132.64 9.41968 132.53 8.48963 132.52 7.50977V7.33984H130.89V13.0098C131.7 12.7398 132.48 12.4401 133.229 12.1201C133.179 12.2401 133.07 12.4003 132.89 12.6201C132.72 12.78 132.52 12.9498 132.3 13.1396C131.95 13.4396 131.57 13.6897 131.16 13.8896C130.71 14.1396 130.31 14.2901 129.96 14.3301L129.58 13.4199C129.7 13.3899 129.82 13.3495 129.93 13.3096V0.389648C130.57 0.389648 130.89 0.520273 130.89 0.780273V0.80957H134.41C134.54 0.539817 134.69 0.349943 134.86 0.25ZM73.29 0.00976562C73.67 0.00976562 73.9503 0.0799609 74.1104 0.209961C74.3302 0.370034 74.4297 0.770137 74.4297 1.41992V3.99023L77.0498 2.91016C77.1798 2.60023 77.3501 2.39029 77.54 2.28027C78.0099 2.30027 78.4 2.55981 78.71 3.05957C78.54 3.13954 78.3804 3.32001 78.2305 3.58984C77.9605 6.22967 77.4303 8.29983 76.6504 9.7998C76.9204 7.37991 77.1004 5.30955 77.1904 3.59961L74.4297 4.74023V10.4102L74.4199 10.4199C74.4199 10.8098 74.2602 11.0101 73.9404 11.0303C73.6004 11.0303 73.4297 10.8199 73.4297 10.4199V5.16016L70.9502 6.17969V12.1602C70.9502 12.55 71.1201 12.7701 71.46 12.8301C72.1099 12.9001 73.11 12.9404 74.46 12.9404C75.35 12.9404 76.1702 12.9096 76.9102 12.8496C77.5994 12.7797 77.9398 12.6802 77.9404 12.5703C78.0304 11.6403 78.2405 10.95 78.5605 10.5C78.5205 10.97 78.5 11.3301 78.5 11.5801C78.5 11.98 78.6106 12.2399 78.8105 12.3799C79.1302 12.38 79.2898 12.5403 79.2998 12.8701C79.2998 13.2001 79.1596 13.4105 78.8896 13.4805C78.4996 13.6404 77.7897 13.7599 76.7803 13.8398C76.1803 13.8798 75.3897 13.9004 74.4297 13.9004C72.6103 13.9004 71.4406 13.8497 70.9404 13.7598C70.5805 13.6998 70.3199 13.5502 70.1699 13.3203C70.0399 13.1603 69.9697 12.88 69.9697 12.46V6.61035L68.6299 7.16016L68.3105 6.51953L69.9697 5.83008V2.62012C69.9697 1.99012 69.8102 1.59969 69.4902 1.42969C69.5503 1.37982 69.6603 1.34961 69.8301 1.34961C70.21 1.34961 70.4701 1.41985 70.6201 1.5498C70.8401 1.70978 70.9599 2.10991 70.96 2.75977V5.41992L73.4404 4.40039V1.28027C73.4404 0.650299 73.2702 0.259855 72.9502 0.0898438C73.0102 0.0399273 73.1202 0.00976831 73.29 0.00976562ZM107.15 0.44043C107.51 0.440453 107.77 0.499915 107.95 0.629883C108.19 0.779883 108.32 1.13043 108.33 1.69043H108.34V11.5195C109.56 10.9796 110.74 10.3797 111.88 9.71973C111.81 9.91966 111.64 10.1797 111.36 10.5195C111.1 10.7795 110.79 11.0699 110.44 11.3799C109.911 11.8698 109.33 12.2796 108.69 12.5996C107.99 12.9996 107.38 13.2298 106.84 13.2998L106.431 12.3301C106.741 12.2001 107.051 12.0704 107.351 11.9404V1.69043C107.351 1.07043 107.18 0.679531 106.83 0.519531C106.9 0.469586 107 0.44043 107.15 0.44043ZM169.01 11.1797C169.5 11.1797 169.9 11.6398 169.9 12.2197C169.9 12.7997 169.5 13.2598 169.01 13.2598C168.49 13.2595 168.12 12.7596 168.12 12.2197C168.12 11.64 168.52 11.1799 169.01 11.1797ZM34.71 12.96H39.9805V1.75H34.71V12.96ZM36.7197 2.15039C37.0496 2.15039 37.2997 2.20998 37.4697 2.33984C37.6997 2.47983 37.8103 2.80992 37.8203 3.33984V4.25977H38.7803L39.3301 3.45996C39.52 3.60994 39.6199 3.8699 39.6299 4.25977C39.6299 4.71977 39.3897 4.9502 38.9297 4.9502H37.8301V6.71973H37.9805C38.1104 6.41993 38.26 6.20979 38.4199 6.08984C38.8699 6.09984 39.2599 6.38 39.5898 6.91992C39.3699 7.09987 39.2103 7.29007 39.1104 7.5V11.46C39.1104 11.8798 38.9601 12.0894 38.6504 12.0996C38.3104 12.0996 38.1396 11.8797 38.1396 11.4697H36.4805V11.6602C36.4804 11.9999 36.3201 12.1803 36.0205 12.1904C35.7106 12.1904 35.5596 12.01 35.5596 11.6602V6.24023C36.1796 6.24023 36.4902 6.38039 36.4902 6.65039V6.70996H36.9102V4.94043H35.2803L35.0342 4.25977H36.8896V3.33984C36.8896 2.75992 36.7301 2.37948 36.4102 2.22949C36.4801 2.17966 36.5801 2.15043 36.7197 2.15039ZM92.6201 3.82031C93.11 3.83035 93.5302 4.11985 93.8701 4.67969C93.6403 4.86953 93.4704 5.0697 93.3604 5.26953V10.4404C93.3602 10.8601 93.1999 11.07 92.8701 11.0801C92.5101 11.0801 92.3301 10.8499 92.3301 10.4199V10.4004H89.8096V10.7002C89.8095 11.08 89.6401 11.2702 89.3203 11.2803C88.9903 11.2803 88.8301 11.0897 88.8301 10.7197H88.8203V3.91016C89.4798 3.9102 89.8093 4.05991 89.8096 4.34961V4.48047H92.1797C92.3097 4.17053 92.4602 3.95032 92.6201 3.82031ZM36.46 10.7803H38.1201V7.37988H36.46V10.7803ZM147.41 4.49023C147.13 4.57022 146.87 4.64996 146.62 4.70996C146.37 6.20996 146.06 7.7902 145.7 9.4502C146.07 9.62018 146.46 9.84041 146.9 10.1104C147.54 8.34048 147.9 6.39033 148 4.27051L147.41 4.49023ZM89.8096 9.71973H92.3301V5.15039H89.8096V9.71973ZM169.49 9.63965H168.55L168.33 0.860352H169.71L169.49 9.63965ZM21.9902 5.83984C22.1801 5.98983 22.28 6.24995 22.29 6.63965C22.29 7.09964 22.0498 7.33007 21.5898 7.33008H11.3301L11.0801 6.63965H21.4395L21.9902 5.83984ZM130.89 6.66992H134.57V4.42969H130.89V6.66992ZM110.22 1.30957C110.51 1.58955 110.8 1.93011 111.09 2.33008C111.41 2.82 111.65 3.25969 111.82 3.63965C112.11 4.29952 112.26 4.87972 112.26 5.38965C112.26 5.83965 112.09 6.07008 111.8 6.08008C111.46 6.0799 111.27 5.83994 111.22 5.36035C111.2 5.08042 111.16 4.82003 111.11 4.58008C111.03 4.1201 110.941 3.6499 110.811 3.16992C110.651 2.54992 110.45 1.92957 110.22 1.30957ZM129.01 0.719727C128.9 1.14973 128.63 1.67004 128.22 2.29004C127.84 2.84999 127.41 3.3503 126.91 3.78027C126.23 4.29027 125.74 4.58016 125.43 4.66016C126.5 3.25029 127.43 1.75022 128.229 0.150391V0.139648L129.01 0.719727ZM35.0342 4.25977H35L35.0303 4.25L35.0342 4.25977ZM130.89 3.74023H134.57V1.49023H130.89V3.74023Z" fill="#6A6A6A"/>
</svg>
