<svg width="216" height="70" viewBox="0 0 216 70" fill="none" xmlns="http://www.w3.org/2000/svg">
<path d="M144.572 24.125L146.021 24.8223L146.025 24.8232C146.322 24.9718 146.537 25.2187 146.537 25.5059C146.537 25.6493 146.49 25.8057 146.39 25.9297C146.292 26.0494 146.147 26.1334 145.967 26.1455L145.702 26.2334C145.049 27.8212 144.292 29.4974 143.417 31.1123L143.414 31.1182H143.413L141.561 34.3115L141.696 34.292L144.938 33.5859C144.716 32.8933 144.527 32.4086 144.185 31.9258V31.9248C144.149 31.8808 144.117 31.8312 144.093 31.7803C144.068 31.7266 144.041 31.652 144.041 31.5723C144.041 31.3048 144.258 31.0588 144.527 31.0586L144.59 31.0645C144.649 31.0751 144.702 31.0992 144.742 31.1221C144.799 31.1545 144.855 31.1977 144.909 31.2451C145.017 31.3405 145.136 31.472 145.259 31.625C145.504 31.9324 145.784 32.3505 146.046 32.8047C146.308 33.2593 146.557 33.7567 146.741 34.2236C146.923 34.6844 147.051 35.1389 147.051 35.5C147.051 35.9377 146.971 36.275 146.838 36.5107C146.706 36.7439 146.501 36.9043 146.262 36.9043C146.083 36.9042 145.86 36.8554 145.679 36.7061C145.494 36.5542 145.379 36.32 145.373 36.0049L145.251 34.9941L143.609 35.5703V49.2021C143.609 49.4015 143.503 49.5507 143.385 49.6514C143.269 49.7501 143.124 49.8193 142.994 49.8672C142.862 49.916 142.729 49.9483 142.628 49.9688C142.577 49.979 142.533 49.9872 142.498 49.9922C142.47 49.9962 142.433 50.001 142.407 50.001C142.319 50.0009 142.231 49.9785 142.152 49.9287C142.075 49.8794 142.018 49.8108 141.978 49.7354C141.901 49.5908 141.875 49.4034 141.875 49.2021V36.0762L139.593 36.6318C139.589 36.6578 139.585 36.696 139.583 36.751C139.581 36.822 139.581 36.9102 139.581 37.0234C139.581 37.1642 139.549 37.3209 139.442 37.4443C139.331 37.5737 139.17 37.6299 138.993 37.6299C138.784 37.6298 138.595 37.5448 138.448 37.3789C138.309 37.2212 138.215 36.9991 138.155 36.7285L137.724 34.9199L137.66 34.6523L137.935 34.6377L140.205 34.5156C142.294 30.9527 143.861 26.2925 144.09 25.2715L144.246 24.2959L144.294 23.9912L144.572 24.125ZM31.8203 21.2568C31.6643 22.6609 31.3522 24.2214 30.875 25.9375L30.8203 26.1943H35.1797C35.4274 25.7082 35.7018 25.3222 36.0137 25.0469C36.9829 25.0683 37.8247 25.6372 38.5293 26.7354C38.0706 26.9922 37.7218 27.341 37.4648 27.7812L36.3721 31.5996H37.5195C37.7857 31.1132 38.0798 30.746 38.4102 30.5166C39.3645 30.5626 40.2366 31.0769 41.0166 32.0771C40.5944 32.3341 40.2448 32.655 39.9512 33.0312L38.8594 37.2988H39.7773C40.0251 36.7208 40.3553 36.3537 40.7773 36.1885C41.64 36.2344 42.3834 36.7573 43.0166 37.7852C42.6129 38.0421 42.2917 38.3363 42.0439 38.6758C41.9338 39.6759 41.7866 40.6668 41.6123 41.667C41.5389 42.4287 41.3002 43.6584 40.8965 45.3652C40.6487 46.4939 40.3555 47.4671 40.0068 48.293C39.603 49.2015 39.1438 49.6611 38.6299 49.6611C37.9785 49.6427 37.6298 49.2753 37.5654 48.5781C37.0148 47.7522 36.1063 47.2011 34.8398 46.9258C34.9775 46.779 35.5555 46.6783 36.583 46.6416C37.0786 46.6416 37.5837 46.7426 38.0977 46.9629C38.4464 46.7518 38.8874 45.2829 39.4473 42.5664C39.7134 41.0614 39.9055 39.7764 40.0156 38.7119H25.2217C24.1112 40.3638 22.9731 41.7126 21.8076 42.7588C21.1928 43.3094 20.5965 43.7227 20 43.998C23.2854 39.749 25.9924 34.2886 28.1123 27.5986H21.2109L20.6973 26.1943H28.5811C29.1317 24.2671 29.6636 22.257 30.1592 20.1738L31.8203 21.2568ZM177.08 20.376C177.805 20.376 178.346 20.504 178.713 20.7607C179.208 21.0544 179.466 21.7797 179.484 22.9268L179.493 22.9082V26.0654H182.531L183.65 24.4414C184.036 24.7351 184.229 25.2762 184.257 26.0654C184.257 27.0198 183.779 27.4969 182.825 27.4971H177.896C177.86 29.1123 177.795 30.6637 177.694 32.1504H180.586C180.852 31.4714 181.2 31.0217 181.613 30.8105C182.513 30.8564 183.275 31.3698 183.908 32.3701C183.504 32.6638 183.182 33.0033 182.935 33.3887L182.761 36.8311C182.605 39.0151 182.467 40.878 182.329 42.4014C182.136 43.9707 181.907 45.3657 181.641 46.5771C181.338 47.7883 180.98 48.6324 180.576 49.1279C180.383 49.4215 180.044 49.5781 179.549 49.5781C178.916 49.4955 178.604 49.1835 178.604 48.6514C178.429 48.266 178.117 47.9264 177.658 47.6328C177.273 47.3758 176.814 47.2099 176.281 47.1182C176.511 46.9255 177.107 46.834 178.062 46.834C178.502 46.8799 178.87 46.9809 179.182 47.1553C179.484 46.9622 179.833 45.5304 180.209 42.8604C180.457 40.9057 180.641 38.9417 180.751 36.9688C180.843 35.8032 180.906 34.6552 180.925 33.5264H177.603C176.951 41.2076 175.346 46.4209 172.785 49.165C174.777 43.5211 175.813 36.2985 175.905 27.5068H173.271L172.757 26.0752H177.483V22.918C177.483 21.6698 177.126 20.8708 176.419 20.5312C176.557 20.4212 176.777 20.376 177.08 20.376ZM188.606 21.1924C188.606 22.3212 188.45 23.6151 188.147 25.0742C188.074 25.4321 187.991 25.7626 187.918 26.0654H193.819L194.939 24.4414C195.325 24.7351 195.517 25.2765 195.545 26.0654C195.545 27.0198 195.068 27.497 194.113 27.4971H192.966C192.736 33.2054 191.736 37.8865 189.956 41.5391C190.452 42.4107 191.021 43.2277 191.645 43.9893C192.654 45.2006 194.031 46.3478 195.774 47.4307C195.316 47.6876 194.865 48.0642 194.425 48.5781C194.315 48.8348 194.14 48.9629 193.911 48.9629C193.737 48.9445 193.507 48.8167 193.223 48.5781C192.801 48.3028 192.296 47.8432 191.709 47.21C190.635 46.0628 189.735 44.778 188.982 43.3555C187.34 46.0535 185.211 48.1097 182.596 49.5322C184.908 47.0727 186.725 44.3189 188.037 41.2812C187.505 39.8132 187.111 38.3634 186.863 36.9229C186.56 35.1425 186.395 33.2425 186.377 31.2236V30.4893C185.423 32.2972 184.513 33.4804 183.65 34.0586C185.22 29.2224 186.312 24.6432 186.945 20.3301L188.606 21.1924ZM66.3086 21.0273C66.3086 21.4128 66.1991 21.8533 65.9697 22.3672C65.6852 23.0004 65.3085 23.5607 64.8496 24.0195C64.2532 24.57 63.7023 24.964 63.1885 25.1934H71.7324C71.9985 24.6153 72.2927 24.221 72.623 23.9824C73.6142 24.0008 74.4681 24.561 75.1748 25.6348C74.6976 25.9743 74.3484 26.3505 74.1465 26.7451V47.8623C74.1464 48.6879 73.8162 49.1101 73.1465 49.1377C72.4215 49.1193 72.0538 48.6696 72.0537 47.7979V47.5137H59.2979V48.2471C59.2979 48.9903 58.9856 49.3947 58.3525 49.459C57.6642 49.4131 57.3156 49.0088 57.2881 48.2471V24.2764C58.6275 24.2764 59.2977 24.5697 59.2979 25.166L59.2881 25.1758V25.2031H62.7021C63.4822 23.3586 64.0331 21.6239 64.3359 20.0088L66.3086 21.0273ZM159.306 29.0566L160.632 30.3193C160.795 30.4676 160.882 30.7317 160.882 30.9668C160.882 31.104 160.851 31.3093 160.738 31.4883C160.616 31.6811 160.405 31.829 160.093 31.8291H154.972V37.4463H157.225L158.534 36.1191L158.689 35.9619L158.853 36.1113L160.129 37.2861L160.144 37.3008C160.337 37.5147 160.487 37.7881 160.487 38.0605C160.487 38.2776 160.424 38.4862 160.29 38.6436C160.153 38.8044 159.955 38.8954 159.726 38.8955H154.98V46.2539L156.322 46.4766H156.531L156.504 46.4395H156.963C158.36 46.4395 159.925 46.3756 161.671 46.0938L161.689 46.0908H161.708C161.808 46.0909 161.916 46.1235 161.998 46.209C162.08 46.294 162.111 46.4052 162.111 46.5127C162.111 46.6711 162.031 46.803 161.938 46.9043C161.843 47.0061 161.714 47.1001 161.568 47.1875L161.555 47.1953L161.54 47.2012C161.328 47.2912 161.156 47.5224 161.118 47.8438C161.103 48.0294 161.068 48.1905 161.013 48.3125C160.985 48.3739 160.948 48.4363 160.896 48.4863C160.846 48.5357 160.769 48.5823 160.67 48.585L160.671 48.5869C159.989 48.6142 159.364 48.6514 158.752 48.6514C156.763 48.6513 154.888 48.5276 153.245 47.6025C151.725 46.7461 150.436 45.2215 149.416 42.5645C149.135 43.6728 148.687 45.1722 147.917 46.6904L147.914 46.6953C147.552 47.3681 147.138 48.0332 146.778 48.5322C146.599 48.7809 146.429 48.9936 146.282 49.1465C146.21 49.2224 146.137 49.2903 146.068 49.3398C146.009 49.3824 145.913 49.4404 145.803 49.4404C145.743 49.4404 145.677 49.4317 145.612 49.4014C145.543 49.3687 145.491 49.3175 145.457 49.2559C145.4 49.1527 145.399 49.0278 145.399 48.9541C145.399 48.8956 145.397 48.7844 145.445 48.6709L145.456 48.6475L145.471 48.627C146.168 47.6698 147.474 45.5544 148.155 41.7314C148.411 40.1852 148.612 38.6444 148.667 37.1074L148.639 36.0479L148.632 35.7646L148.91 35.8164L150.287 36.0732H150.289C150.679 36.1491 150.988 36.4036 150.988 36.7764C150.988 36.8542 150.981 36.937 150.95 37.0195C150.918 37.1048 150.868 37.1747 150.805 37.2363C150.706 37.3324 150.553 37.427 150.353 37.5488L149.875 40.5146C150.568 42.414 151.632 44.4391 153.236 45.5371V31.8203H147.848L147.809 31.6387L147.607 30.6934L147.548 30.416H157.578L158.988 29.0576L159.146 28.9053L159.306 29.0566ZM106.479 21.1279C107.415 21.1464 108.222 21.7252 108.91 22.8447C108.452 23.23 108.121 23.6242 107.91 24.0186V33.8301C107.91 34.6556 107.589 35.087 106.938 35.1055C106.249 35.0871 105.909 34.6558 105.909 33.8301V33.8018H93.8408V44.2188C93.8776 45.173 94.5665 45.7057 95.9062 45.8066C97.6865 45.8709 99.5952 45.8975 101.642 45.8975C105.983 45.8975 108.333 45.7421 108.69 45.4209C109.03 43.3376 109.461 42.0253 109.984 41.4746C109.874 42.2363 109.81 42.9615 109.81 43.6406C109.81 44.5949 109.966 45.1548 110.269 45.3291C110.838 45.3475 111.141 45.7236 111.159 46.4395C111.141 47.036 110.782 47.403 110.094 47.5498C108.24 47.871 105.468 48.0273 101.779 48.0273C99.3565 48.0273 97.1723 47.9535 95.2451 47.8066C92.9692 47.4671 91.8311 46.3839 91.8311 44.5576V31.5625C93.1708 31.5625 93.8407 31.8381 93.8408 32.3887H105.909V23.7715H90.8584L90.3447 22.4316H105.615C105.881 21.7984 106.166 21.3574 106.479 21.1279ZM139.765 38.9121L140.884 39.2354L140.895 39.2383L140.905 39.2432C141.183 39.3545 141.407 39.584 141.407 39.8691C141.407 40.0781 141.337 40.2433 141.207 40.3506C141.086 40.4507 140.944 40.4746 140.848 40.4746C140.818 40.4746 140.793 40.4775 140.775 40.4814C140.773 40.4819 140.771 40.482 140.77 40.4824C140.6 42.1404 140.147 43.9672 139.687 45.3799C139.455 46.0893 139.221 46.7001 139.018 47.1367C138.917 47.3538 138.82 47.5359 138.732 47.666C138.689 47.73 138.642 47.7903 138.593 47.8369C138.551 47.8756 138.466 47.9453 138.351 47.9453C138.225 47.9451 138.105 47.8951 138.028 47.7861C137.961 47.6912 137.947 47.5798 137.947 47.4951C137.947 47.4674 137.947 47.4258 137.953 47.3828C137.959 47.3443 137.97 47.3093 137.983 47.2744C138.285 46.233 138.595 45.0396 138.822 43.7207L139.306 40.0732V39.2568L137.895 38.8496H139.765V38.9121ZM24.6533 41.3184C24.9194 41.6397 25.0746 42.5304 25.1113 43.9893C25.093 44.7784 25.0195 45.3568 24.8818 45.7422C24.7625 46.0999 24.6065 46.3935 24.3955 46.6045C24.2212 46.8614 24.029 47.0731 23.8271 47.2383C23.561 47.431 23.2759 47.5225 22.9639 47.5225C22.3951 47.5223 22.0736 47.1918 22.0186 46.5312C22.0186 46.0632 22.3127 45.586 22.9092 45.0996C23.7535 44.2278 24.3321 42.9706 24.6533 41.3096V41.3184ZM26.6631 41.1533C28.5717 41.5113 29.5719 42.7137 29.6729 44.751C29.6361 45.7052 29.2782 46.1912 28.6084 46.2188C27.9384 46.2188 27.6084 45.7601 27.6084 44.8516C27.6084 43.9431 27.507 43.2455 27.2959 42.6582C27.1399 42.1076 26.9292 41.6118 26.6631 41.1621V41.1533ZM59.2881 46.127H72.0449V40.3643H59.2881V46.127ZM30.5645 40.4941C32.4849 40.8358 33.5002 41.9369 33.5918 43.8057C33.555 44.7233 33.2058 45.1824 32.5635 45.21C31.9122 45.2098 31.5909 44.7599 31.5908 43.8701C31.5908 43.0809 31.4904 42.4192 31.2793 41.8594C31.0686 41.3463 30.8301 40.8974 30.5645 40.4941ZM144.665 38.125C144.762 38.125 144.84 38.1689 144.891 38.2061C144.945 38.2455 144.995 38.2966 145.04 38.3506C145.13 38.4591 145.225 38.608 145.319 38.7793C145.509 39.1241 145.717 39.5949 145.909 40.1133C146.291 41.1443 146.629 42.4104 146.629 43.292C146.629 43.5235 146.581 43.836 146.46 44.0986C146.341 44.3569 146.115 44.6317 145.739 44.6318H145.66L145.598 44.583L145.268 44.3262L145.201 44.2754L145.184 44.1934L145.083 43.7158L145.075 43.6797L145.079 43.6436C145.105 43.401 145.105 43.1653 145.105 42.8789C145.105 41.4706 144.877 39.8985 144.343 38.873L144.338 38.8662L144.335 38.8574C144.322 38.8269 144.305 38.7892 144.293 38.7559C144.287 38.7391 144.28 38.7191 144.274 38.6992C144.27 38.6828 144.262 38.6495 144.262 38.6113C144.262 38.4909 144.307 38.3809 144.363 38.3018C144.392 38.2614 144.429 38.221 144.474 38.1895C144.516 38.1597 144.582 38.1251 144.665 38.125ZM34.1699 39.7861C35.161 39.7861 35.9595 40.0517 36.5469 40.584C37.2352 41.1346 37.6209 41.8969 37.6943 42.8789C37.6943 43.7322 37.4002 44.1819 36.8037 44.2461C36.1888 44.2461 35.8033 43.8142 35.6289 42.9424C35.5371 42.3277 35.363 41.7677 35.1152 41.2539C34.8675 40.7676 34.5552 40.2816 34.1699 39.7861ZM30.5645 40.4941C30.561 40.4935 30.5572 40.4928 30.5537 40.4922H30.5635L30.5645 40.4941ZM187.542 27.5068C187.276 28.3602 187.001 29.1218 186.707 29.8008L186.716 29.792C186.927 31.8476 187.23 33.784 187.634 35.5918C187.918 36.9315 188.322 38.1703 188.836 39.3174C190.139 35.7109 190.846 31.7741 190.956 27.5068H187.542ZM59.2881 38.96H72.0449V33.4814H59.2881V38.96ZM28.3242 32.9766C27.7553 34.2888 27.1308 35.5367 26.4609 36.7021L26.1123 37.3076H36.8311L37.9512 32.9766H28.3242ZM59.2881 32.0859H72.0449V26.5791H59.2881V32.0859ZM30.3887 27.5889C29.9298 28.9655 29.4436 30.3056 28.9297 31.5996H34.3438L35.4639 27.5889H30.3887ZM141.748 20.4141L142.925 20.9355H142.938L142.987 20.96C143.277 21.1046 143.5 21.3217 143.5 21.6426C143.5 21.7617 143.463 21.9114 143.377 22.0371C143.285 22.1708 143.13 22.2852 142.912 22.2852C142.846 22.2852 142.811 22.2995 142.793 22.3115C142.777 22.3227 142.758 22.3428 142.744 22.3848C142.367 23.6207 141.424 25.7375 140.583 26.9082C140.967 27.4962 141.302 28.0117 141.543 28.4844C141.803 28.9937 141.967 29.4747 141.967 29.9668C141.967 30.2331 141.911 30.5089 141.794 30.7266C141.677 30.9436 141.473 31.1406 141.178 31.1406C140.965 31.1406 140.77 31.0777 140.612 30.9424C140.457 30.8093 140.354 30.6218 140.295 30.4023L140.291 30.3828C140.116 29.3892 139.803 28.4416 139.447 27.667C139.088 26.8859 138.695 26.3028 138.373 26.0176V26.0166C138.319 25.9689 138.272 25.9114 138.236 25.8516C138.212 25.8098 138.185 25.7543 138.174 25.6914L138.168 25.625L138.175 25.5547C138.189 25.4817 138.223 25.4027 138.271 25.3369C138.343 25.2393 138.47 25.1387 138.654 25.1387C138.715 25.1387 138.866 25.1362 139.007 25.2598L139.012 25.2646L139.758 25.9551L140.49 24.1328L141.204 21.5449L141.432 20.5713L141.494 20.3018L141.748 20.4141ZM153.487 20.0596L154.795 20.3418H154.796C155.025 20.3783 155.216 20.4563 155.352 20.5879C155.492 20.7246 155.55 20.8975 155.55 21.0732C155.55 21.3776 155.419 21.691 155.087 21.7969C155.01 21.8213 154.943 21.8998 154.943 22.0557V23.9824H159.469L160.189 22.9688L160.381 22.7002L160.566 22.9717L161.53 24.3818C161.761 24.6126 161.863 24.8828 161.863 25.1572C161.863 25.5113 161.748 25.7436 161.566 25.874C161.398 25.9946 161.218 25.9922 161.175 25.9922C161.134 25.9921 161.087 25.9827 161.062 25.9775C161.028 25.9708 160.99 25.962 160.955 25.9541C160.919 25.9459 160.887 25.939 160.861 25.9336C160.853 25.9318 160.845 25.9297 160.84 25.9287C160.722 25.9301 160.641 25.9784 160.582 26.0752L160.576 26.085L160.575 26.084L158.713 28.8379L158.68 28.8877L158.626 28.9141C158.607 28.9236 158.596 28.9312 158.563 28.9502C158.551 28.9575 158.531 28.9681 158.509 28.9775C158.489 28.9858 158.447 29.0029 158.395 29.0029C158.318 29.0029 158.252 28.9724 158.21 28.9473C158.163 28.9191 158.118 28.881 158.079 28.8369C158.002 28.7492 157.936 28.6189 157.936 28.4609V28.3145L157.961 28.2656C158.438 27.3285 158.837 26.3403 159.109 25.4053H148.879L148.748 26.5781L148.747 26.585L148.745 26.5928C148.707 26.8051 148.558 27.5723 148.278 28.291C148.139 28.6495 147.961 29.0107 147.739 29.2861C147.519 29.5593 147.227 29.7832 146.858 29.7832C146.628 29.7832 146.398 29.7653 146.235 29.5508C146.167 29.4606 146.12 29.3481 146.08 29.2266C146.039 29.103 145.998 28.9467 145.948 28.7588L145.94 28.7295V28.7002C145.94 28.5343 146.023 28.3667 146.117 28.2207C146.214 28.0699 146.349 27.9042 146.504 27.7305C147.271 26.7484 148.088 25.4665 148.088 23.001C148.088 22.8967 148.117 22.7833 148.184 22.6904C148.253 22.593 148.369 22.5147 148.52 22.5146L148.605 22.5234C148.8 22.5653 148.951 22.7463 148.951 22.9639V23.9639H153.209V20L153.487 20.0596ZM23.6797 20.7422C24.7258 21.0634 25.5799 21.5317 26.2314 22.1465C26.8004 22.6603 27.1306 23.2388 27.2041 23.8994C27.2041 24.8539 26.892 25.3406 26.2588 25.3682C25.7082 25.3681 25.3324 24.9548 25.1396 24.1289C25.0295 23.615 24.8914 23.1745 24.7354 22.7891C24.4509 21.9999 24.093 21.3209 23.6709 20.752L23.6797 20.7422Z" fill="white"/>
<defs>
<filter id="filter0_dd_63_19558" x="0" y="0" width="215.774" height="70.001" filterUnits="userSpaceOnUse" color-interpolation-filters="sRGB">
<feFlood flood-opacity="0" result="BackgroundImageFix"/>
<feColorMatrix in="SourceAlpha" type="matrix" values="0 0 0 0 0 0 0 0 0 0 0 0 0 0 0 0 0 0 127 0" result="hardAlpha"/>
<feOffset/>
<feGaussianBlur stdDeviation="10"/>
<feComposite in2="hardAlpha" operator="out"/>
<feColorMatrix type="matrix" values="0 0 0 0 0 0 0 0 0 0 0 0 0 0 0 0 0 0 0.8 0"/>
<feBlend mode="normal" in2="BackgroundImageFix" result="effect1_dropShadow_63_19558"/>
<feColorMatrix in="SourceAlpha" type="matrix" values="0 0 0 0 0 0 0 0 0 0 0 0 0 0 0 0 0 0 127 0" result="hardAlpha"/>
<feOffset/>
<feGaussianBlur stdDeviation="5"/>
<feComposite in2="hardAlpha" operator="out"/>
<feColorMatrix type="matrix" values="0 0 0 0 0 0 0 0 0 0 0 0 0 0 0 0 0 0 0.25 0"/>
<feBlend mode="normal" in2="effect1_dropShadow_63_19558" result="effect2_dropShadow_63_19558"/>
<feBlend mode="normal" in="SourceGraphic" in2="effect2_dropShadow_63_19558" result="shape"/>
</filter>
</defs>
</svg>
