<svg width="168" height="60" viewBox="0 0 168 60" fill="none" xmlns="http://www.w3.org/2000/svg">
<g clip-path="url(#clip0_14_15381)">
<path d="M7.53804 51.159C7.53804 53.6252 4.67957 55.8811 2.31152 57.4365H7.73421V58.8517H-0.000488281V57.5205C2.15738 55.9652 5.91264 53.2889 5.91264 51.2851C5.91264 50.2342 5.2961 49.3374 3.4465 49.3374C2.46565 49.3374 1.35869 49.6457 0.321791 50.1501V48.6088C1.27462 48.2165 2.45164 47.9082 3.62866 47.9082C6.05276 47.9082 7.52403 49.1413 7.52403 51.145L7.53804 51.159Z" fill="white"/>
<path d="M32.1015 53.4707C32.1015 56.8476 30.1959 59.0615 27.4074 59.0615C24.619 59.0615 22.7134 56.8476 22.7134 53.4707C22.7134 50.0938 24.4789 47.9219 27.4074 47.9219C30.336 47.9219 32.1015 50.1498 32.1015 53.4707ZM24.2407 53.4707C24.2407 56.2591 25.8381 57.6043 27.4074 57.6043C28.8507 57.6043 30.5742 56.2731 30.5742 53.4707C30.5742 50.6683 29.0188 49.3371 27.3514 49.3371C25.8101 49.3371 24.2267 50.5562 24.2267 53.4707H24.2407Z" fill="white"/>
<path d="M54.7595 51.159C54.7595 53.6252 51.901 55.8811 49.5329 57.4365H54.9557V58.8517H47.2209V57.5205C49.3788 55.9652 53.1341 53.2889 53.1341 51.2851C53.1341 50.2342 52.5175 49.3374 50.6679 49.3374C49.6871 49.3374 48.5801 49.6457 47.5432 50.1501V48.6088C48.4961 48.2165 49.6731 47.9082 50.8501 47.9082C53.2742 47.9082 54.7455 49.1413 54.7455 51.145L54.7595 51.159Z" fill="white"/>
<path d="M77.0385 49.3934C75.0908 49.6597 72.7929 50.6826 71.9521 52.4341C72.3024 52.0698 73.4234 51.5934 74.2922 51.5934C76.7723 51.5934 78.1875 53.2328 78.1875 55.1945C78.1875 57.1562 76.6742 59.0618 74.0259 59.0618C71.6298 59.0618 69.9624 57.4785 69.9624 54.8302C69.9624 50.9488 73.0871 48.5527 77.0385 47.9502V49.3934ZM71.5598 55.2365C71.5598 56.5817 72.4285 57.6046 74.068 57.6046C75.5673 57.6046 76.6322 56.6657 76.6322 55.2225C76.6322 53.6812 75.4552 52.9105 74.124 52.9105C72.6247 52.9105 71.5598 53.8493 71.5598 55.2365Z" fill="white"/>
<path d="M95.6889 55.9928C95.2965 56.9877 94.5959 58.0806 93.9934 58.7812C93.7972 58.6551 93.3769 58.3889 93.1387 58.2768C93.7832 57.6182 94.3577 56.6654 94.694 55.7546L95.7029 55.9928H95.6889ZM97.7206 55.012V59.8882H96.5156V55.012H93.2227V54.1152H96.5156V52.6439H93.1387V51.7612H97.6926C98.0009 51.1166 98.3932 50.1918 98.5894 49.5472L99.7104 49.7434C99.4161 50.416 99.0938 51.1726 98.7856 51.7612H100.887V52.6439H97.7206V54.1152H100.705V55.012H97.7206ZM100.635 49.4492H93.4049V48.5804H96.6417C96.4315 48.16 96.1513 47.6836 95.9131 47.3053L97.1041 47.0391C97.4544 47.5155 97.8187 48.118 98.0429 48.5804H100.635V49.4492ZM95.1004 51.6911C95.0163 51.1726 94.7501 50.3599 94.4698 49.7434L95.4507 49.5472C95.787 50.1498 96.0672 50.9344 96.1233 51.4529L95.1004 51.6911ZM99.304 55.6705C99.8365 56.3571 100.411 57.2679 100.691 57.8705L99.8225 58.2908C99.5562 57.6883 98.9677 56.7215 98.4633 56.0489L99.304 55.6705ZM108.09 52.784H106.282V59.8602H105.091V52.784H102.821V53.2745C102.821 55.2782 102.611 58.0386 101.098 59.8602C100.901 59.664 100.425 59.3417 100.159 59.2296C101.546 57.5482 101.672 55.1381 101.672 53.2745V48.4403C103.522 48.1881 105.623 47.7677 106.815 47.3473L107.795 48.118C106.436 48.5524 104.559 48.9027 102.821 49.1269V51.7892H108.076V52.77L108.09 52.784Z" fill="white"/>
<path d="M132.947 53.0358V55.1236H136.856V56.0904H132.947V58.3464C132.947 58.7808 133.045 58.8648 133.605 58.8648H135.483C136.002 58.8648 136.072 58.5846 136.142 57.0853C136.408 57.2675 136.912 57.4496 137.249 57.5197C137.137 59.2992 136.786 59.7896 135.581 59.7896H133.423C132.036 59.7896 131.672 59.4814 131.672 58.3324V56.0904H128.701C128.435 57.5897 127.468 59.019 124.217 59.9858C124.063 59.7476 123.685 59.3553 123.447 59.1591C126.207 58.3744 127.146 57.2675 127.44 56.1045H123.769V55.1376H127.566V53.0498H125.829V52.5173C125.03 53.0218 124.189 53.4281 123.363 53.7504C123.194 53.5262 122.83 53.1619 122.606 52.9657C123.741 52.5734 124.932 51.9428 125.955 51.1442C125.464 50.6958 124.652 50.1073 123.965 49.6729L124.722 49.1264C125.38 49.5328 126.193 50.0792 126.726 50.4996C127.314 49.9251 127.847 49.3086 128.267 48.65H124.175V47.7252H128.883L129.094 47.6831L129.906 48.0194C129.192 49.6589 127.945 51.0321 126.473 52.097H134.236C132.639 50.8779 131.378 49.2665 130.551 47.4449L131.602 47.1787C131.882 47.7952 132.232 48.3838 132.639 48.9442C133.367 48.4258 134.152 47.7672 134.67 47.2768L135.595 47.8373C134.867 48.4538 133.956 49.1124 133.171 49.6028C133.507 49.9811 133.872 50.3455 134.25 50.6817C135.077 50.1493 136.03 49.4066 136.618 48.8742L137.543 49.4347C136.786 50.0512 135.791 50.7238 134.951 51.2422C135.875 51.9288 136.912 52.4893 138.033 52.8676C137.767 53.0638 137.375 53.4702 137.193 53.7364C136.352 53.4281 135.553 53.0078 134.825 52.5173V53.0498H132.919L132.947 53.0358ZM131.672 53.0358H128.799V55.1236H131.672V53.0358Z" fill="white"/>
<path d="M158.533 54.5775C158.253 57.422 157.398 59.0894 153.292 59.9442C153.194 59.6779 152.858 59.2716 152.592 59.0614C156.375 58.3748 157.034 57.0156 157.272 54.5775H158.533ZM159.402 49.4631H152.942V48.4962H159.402V47.123H160.663V48.4962H167.248V49.4631H160.663V50.8503H165.791V51.7751H154.483V50.8503H159.402V49.4631ZM165.567 55.5864V53.8629H154.568V55.5864H153.376V52.9101H166.814V55.5864H165.581H165.567ZM165.483 58.7111C166.099 58.7111 166.198 58.4729 166.24 56.9035C166.52 57.0717 167.01 57.2258 167.361 57.3099C167.206 59.1875 166.884 59.6639 165.595 59.6639H163.185C161.7 59.6639 161.321 59.3556 161.321 58.2767V54.5495H162.54V58.2627C162.54 58.641 162.653 58.7111 163.297 58.7111H165.483Z" fill="white"/>
<path d="M0.630371 27.8696V0.503906H4.5818V27.8556H0.630371V27.8696ZM24.7873 0.503906C18.72 5.50624 13.9279 9.93408 10.2287 14.1377C14.9788 18.2573 20.0792 22.9373 24.7873 27.8556H19.2245C14.8527 23.3157 10.0465 18.8878 4.91809 14.474C8.86951 9.80797 13.3394 5.16995 18.72 0.503906H24.7873Z" fill="white"/>
<path d="M40.9851 27.8696V0.503906H44.9365V27.8556H40.9851V27.8696Z" fill="white"/>
<path d="M88.2484 1.76553V5.8851C85.474 4.45586 82.3913 3.69921 79.1965 3.69921C72.5408 3.69921 67.2021 7.23027 67.2021 14.3905C67.2021 21.5507 73.6898 24.6614 79.4908 24.6614C82.9798 24.6614 84.8294 24.241 88.4586 22.8118V26.6791C86.651 27.4358 83.7084 28.3606 79.1965 28.3606C71.5739 28.3606 63.0405 24.5353 63.0405 14.4325C63.0405 4.32975 70.7052 0 79.2806 0C82.3493 0 86.0204 0.756656 88.2484 1.76553Z" fill="white"/>
<path d="M106.562 27.8696V0.503906H110.514V27.8556H106.562V27.8696ZM130.719 0.503906C124.652 5.50624 119.86 9.93408 116.161 14.1377C120.911 18.2573 126.011 22.9373 130.719 27.8556H125.157C120.785 23.3157 115.979 18.8878 110.85 14.474C114.802 9.80797 119.272 5.16995 124.652 0.503906H130.719Z" fill="white"/>
<path d="M165.483 1.42924V5.21252C161.952 4.11957 159.584 3.5731 156.768 3.5731C153.195 3.5731 149.565 4.45586 149.565 7.48248C149.565 9.50023 151.289 10.6352 153.559 11.2658L160.509 13.2415C163.872 14.1663 166.66 16.2261 166.66 20.4017C166.66 25.4881 162.415 28.3606 155.044 28.3606C151.471 28.3606 148.346 27.688 145.194 26.511V22.5175C148.388 23.5684 151.429 24.7454 155.044 24.7454C159.626 24.7454 162.583 23.106 162.583 20.5418C162.583 18.3139 160.859 17.1789 158.505 16.5483L152.06 14.7828C148.571 13.858 145.572 11.8823 145.572 7.4965C145.572 2.15787 150.658 0 156.768 0C160.173 0 162.919 0.58851 165.483 1.42924Z" fill="white"/>
</g>
<defs>
<clipPath id="clip0_14_15381">
<rect width="167.375" height="60" fill="white"/>
</clipPath>
</defs>
</svg>
