<svg width="201" height="104" viewBox="0 0 201 104" fill="none" xmlns="http://www.w3.org/2000/svg">
<g clip-path="url(#clip0_14_15382)">
<g clip-path="url(#clip1_14_15382)">
<path d="M20.9551 1.42606V5.17529C17.6974 4.09405 15.5349 3.54641 12.9371 3.54641C9.63722 3.54641 6.30925 4.41702 6.30925 7.42202C6.30925 9.43004 7.896 10.5534 9.98827 11.1713L16.3774 13.1371C19.4807 14.0499 22.0364 16.1 22.0364 20.2284C22.0364 25.2695 18.1186 28.106 11.3363 28.106C8.03642 28.106 5.17184 27.432 2.26514 26.2665V22.3066C5.21397 23.3457 8.00834 24.5112 11.3363 24.5112C15.563 24.5112 18.2731 22.8823 18.2731 20.3407C18.2731 18.1361 16.6863 16.9987 14.5098 16.3809L8.58406 14.6256C5.36843 13.7129 2.61619 11.747 2.61619 7.40798C2.61619 2.12816 7.30624 0.0078125 12.9231 0.0078125C16.0685 0.0078125 18.582 0.597579 20.9411 1.42606H20.9551Z" fill="white"/>
<path d="M40.0242 4.0944V11.8877H53.0553V15.4263H40.0242V24.0201H54.1786V27.6008H36.3873V0.513672H54.1786V4.0944H40.0242Z" fill="white"/>
<path d="M87.7953 27.6008L72.5175 5.75136V27.6008H68.9087V0.513672H73.0932L87.2476 20.7764V0.513672H90.8564V27.6149H87.7953V27.6008Z" fill="white"/>
<path d="M117.213 4.0944V27.6008H113.577V4.0944H104.042V0.513672H126.762V4.0944H117.227H117.213Z" fill="white"/>
<path d="M156.601 27.6008C154.621 24.4694 151.869 20.8045 149.117 17.6731H143.57V27.6008H139.933V0.513672H150.521C153.667 0.513672 159.859 1.93192 159.859 8.93891C159.859 13.8958 156.714 16.4795 153.653 17.322C155.829 19.8215 158.694 23.5707 161.446 27.6149H156.601V27.6008ZM150.016 14.0923C152.459 14.0923 156.068 13.3481 156.068 9.05125C156.068 5.30201 153.161 4.0944 150.17 4.0944H143.584V14.1064H150.016V14.0923Z" fill="white"/>
<path d="M193.827 27.6002C193.209 25.5922 192.437 23.177 191.496 20.5932H177.777C176.766 23.3455 175.951 25.8028 175.446 27.6002H171.528C175.333 15.2151 180.754 3.41977 182.425 0.499023H186.722C187.775 2.29641 193.153 13.1369 197.618 27.6002H193.813H193.827ZM190.218 17.0967C188.435 12.3084 186.385 7.37963 184.629 4.05167C183.043 7.2673 180.908 12.3084 179.083 17.0967H190.204H190.218Z" fill="white"/>
<path d="M8.90704 94.4404C8.90704 96.9118 6.04246 99.1726 3.66935 100.731H9.10363V102.149H1.36646V100.815C3.52893 99.2568 7.29221 96.5748 7.29221 94.5667C7.29221 93.5136 6.67436 92.6149 4.8208 92.6149C3.83786 92.6149 2.72854 92.9238 1.68942 93.4293V91.8847C2.64428 91.4915 3.82382 91.1826 5.00335 91.1826C7.43263 91.1826 8.90704 92.4183 8.90704 94.4263V94.4404Z" fill="white"/>
<path d="M36.8647 96.7569C36.8647 100.141 34.955 102.36 32.1606 102.36C29.3663 102.36 27.4565 100.141 27.4565 96.7569C27.4565 93.3728 29.2258 91.1963 32.1606 91.1963C35.0954 91.1963 36.8647 93.429 36.8647 96.7569ZM28.9871 96.7569C28.9871 99.5513 30.5879 100.899 32.1606 100.899C33.607 100.899 35.3341 99.5654 35.3341 96.7569C35.3341 93.9485 33.7755 92.6145 32.1045 92.6145C30.5598 92.6145 28.9731 93.8362 28.9731 96.7569H28.9871Z" fill="white"/>
<path d="M62.7584 94.4404C62.7584 96.9118 59.8938 99.1726 57.5207 100.731H62.955V102.149H55.2037V100.815C57.3662 99.2568 61.1295 96.5748 61.1295 94.5667C61.1295 93.5136 60.5116 92.6149 58.6581 92.6149C57.6751 92.6149 56.5658 92.9238 55.5267 93.4293V91.8847C56.4816 91.4915 57.6611 91.1826 58.8406 91.1826C61.2699 91.1826 62.7443 92.4183 62.7443 94.4263L62.7584 94.4404Z" fill="white"/>
<path d="M88.3992 92.6719C86.4474 92.9387 84.1445 93.9638 83.302 95.7191C83.653 95.354 84.7764 94.8765 85.647 94.8765C88.1324 94.8765 89.5507 96.5194 89.5507 98.4853C89.5507 100.451 88.0341 102.361 85.3802 102.361C82.979 102.361 81.308 100.774 81.308 98.1202C81.308 94.2306 84.4394 91.8294 88.3992 91.2256V92.6719ZM82.8947 98.5415C82.8947 99.8895 83.7653 100.915 85.4083 100.915C86.9108 100.915 87.978 99.9738 87.978 98.5275C87.978 96.9828 86.7984 96.2105 85.4644 96.2105C83.9619 96.2105 82.8947 97.1513 82.8947 98.5415Z" fill="white"/>
<path d="M112.65 99.2854C112.257 100.282 111.555 101.378 110.951 102.08C110.754 101.953 110.333 101.687 110.094 101.574C110.74 100.914 111.316 99.9594 111.653 99.0467L112.664 99.2854H112.65ZM114.686 98.3024V103.189H113.478V98.3024H110.179V97.4037H113.478V95.9293H110.094V95.0447H114.658C114.967 94.3987 115.36 93.472 115.557 92.826L116.68 93.0226C116.385 93.6966 116.062 94.4549 115.753 95.0447H117.86V95.9293H114.686V97.4037H117.677V98.3024H114.686ZM117.621 92.7277H110.375V91.8571H113.619C113.408 91.4359 113.127 90.9584 112.889 90.5793L114.082 90.3125C114.433 90.7899 114.798 91.3937 115.023 91.8571H117.621V92.7277ZM112.074 94.9885C111.99 94.469 111.723 93.6545 111.442 93.0367L112.425 92.8401C112.762 93.4439 113.043 94.2302 113.099 94.7498L112.074 94.9885ZM116.273 98.9624C116.806 99.6505 117.382 100.563 117.663 101.167L116.792 101.588C116.526 100.984 115.936 100.016 115.43 99.3415L116.273 98.9624ZM125.077 96.0838H123.266V103.175H122.072V96.0838H119.797V96.5753C119.797 98.5833 119.587 101.35 118.07 103.175C117.874 102.978 117.396 102.655 117.129 102.543C118.52 100.858 118.646 98.4429 118.646 96.5753V91.7308C120.5 91.478 122.606 91.0567 123.799 90.6355L124.782 91.4078C123.42 91.8431 121.539 92.1941 119.797 92.4188V95.0868H125.063V96.0698L125.077 96.0838Z" fill="white"/>
<path d="M157.023 96.3364V98.4286H160.94V99.3975H157.023V101.658C157.023 102.094 157.121 102.178 157.683 102.178H159.564C160.084 102.178 160.154 101.897 160.224 100.395C160.491 100.577 160.997 100.76 161.334 100.83C161.221 102.613 160.87 103.105 159.663 103.105H157.5C156.11 103.105 155.745 102.796 155.745 101.644V99.3975H152.768C152.501 100.9 151.532 102.332 148.275 103.301C148.12 103.063 147.741 102.669 147.502 102.473C150.268 101.686 151.209 100.577 151.504 99.4116H147.825V98.4427H151.631V96.3504H149.889V95.8168C149.089 96.3223 148.246 96.7296 147.418 97.0525C147.249 96.8279 146.884 96.4628 146.66 96.2662C147.797 95.873 148.991 95.2411 150.016 94.4407C149.524 93.9914 148.71 93.4016 148.022 92.9663L148.78 92.4186C149.44 92.8259 150.254 93.3735 150.788 93.7948C151.378 93.219 151.911 92.6012 152.333 91.9412H148.232V91.0144H152.951L153.161 90.9723L153.976 91.3093C153.259 92.9522 152.01 94.3284 150.535 95.3956H158.315C156.714 94.1739 155.45 92.5591 154.622 90.7336L155.675 90.4668C155.956 91.0846 156.307 91.6744 156.714 92.2361C157.444 91.7165 158.23 91.0566 158.75 90.5651L159.677 91.1268C158.946 91.7446 158.034 92.4046 157.247 92.8961C157.584 93.2752 157.949 93.6403 158.329 93.9773C159.157 93.4437 160.112 92.6995 160.702 92.1659L161.629 92.7276C160.87 93.3454 159.873 94.0194 159.031 94.539C159.957 95.2271 160.997 95.7887 162.12 96.1679C161.853 96.3645 161.46 96.7717 161.277 97.0385C160.435 96.7296 159.635 96.3083 158.904 95.8168V96.3504H156.995L157.023 96.3364ZM155.745 96.3364H152.866V98.4286H155.745V96.3364Z" fill="white"/>
<path d="M189.671 97.8659C189.39 100.716 188.533 102.387 184.419 103.244C184.32 102.977 183.983 102.57 183.717 102.359C187.508 101.671 188.168 100.309 188.407 97.8659H189.671ZM190.555 92.7405H184.082V91.7716H190.555V90.3955H191.819V91.7716H198.419V92.7405H191.819V94.1307H196.958V95.0575H185.626V94.1307H190.555V92.7405ZM196.72 98.8769V97.1497H185.697V98.8769H184.503V96.1949H197.969V98.8769H196.734H196.72ZM196.635 102.022C197.253 102.022 197.352 101.784 197.394 100.211C197.674 100.379 198.166 100.534 198.517 100.618C198.363 102.5 198.04 102.977 196.748 102.977H194.332C192.844 102.977 192.465 102.668 192.465 101.587V97.8518H193.687V101.573C193.687 101.952 193.799 102.022 194.445 102.022H196.635Z" fill="white"/>
<path d="M12.6704 42.724V44.6196C10.9011 44.072 9.72152 43.8052 8.31731 43.8052C6.53397 43.8052 4.72254 44.2405 4.72254 45.757C4.72254 46.7681 5.59315 47.3298 6.71652 47.6527L10.1989 48.6497C11.884 49.1131 13.2742 50.1522 13.2742 52.2304C13.2742 54.7861 11.1398 56.2043 7.46075 56.2043C5.66336 56.2043 4.10469 55.8673 2.53198 55.2776V53.2695C4.13278 53.8031 5.64932 54.3789 7.46075 54.3789C9.7496 54.3789 11.224 53.5644 11.224 52.2726C11.224 51.1632 10.3675 50.5875 9.17388 50.2786L5.95825 49.3939C4.21703 48.9305 2.71453 47.9336 2.71453 45.757C2.71453 43.075 5.25614 42.0078 8.31731 42.0078C10.0164 42.0078 11.3925 42.3027 12.6704 42.724Z" fill="white"/>
<path d="M48.6881 55.9508C48.3511 54.9397 47.9299 53.7181 47.4243 52.4122H39.968C39.4204 53.8023 38.971 55.0521 38.7042 55.9508H36.5698C38.634 49.688 41.5828 43.7342 42.4815 42.2598H44.8266C45.4023 43.1725 48.323 48.6349 50.7383 55.9508H48.6741H48.6881ZM46.7363 50.6429C45.7674 48.2276 44.6581 45.7422 43.7032 44.0572C42.8466 45.686 41.6811 48.2276 40.6982 50.6429H46.7363Z" fill="white"/>
<path d="M74.8625 55.9508V42.2598H76.8425V55.9508H74.8625ZM86.9528 42.2598C83.9197 44.7733 81.5185 46.9779 79.6649 49.0842C82.0521 51.1484 84.5937 53.4794 86.9528 55.9508H84.1724C81.9819 53.676 79.5807 51.4573 77.011 49.2527C78.9909 46.9077 81.2236 44.5907 83.9197 42.2598H86.9528Z" fill="white"/>
<path d="M122.676 50.0685C122.676 53.3263 121.328 56.1908 116.708 56.1908C112.088 56.1908 110.81 53.3263 110.81 50.0685V42.2471H112.79V50.0825C112.79 52.891 114.124 54.3373 116.708 54.3373C119.292 54.3373 120.682 52.8769 120.682 50.0825V42.2471H122.662V50.0685H122.676Z" fill="white"/>
<path d="M157.626 55.9508C156.545 54.3781 155.057 52.5105 153.554 50.9378H150.535V55.9508H148.555V42.2598H154.298C155.998 42.2598 159.368 42.9759 159.368 46.5145C159.368 49.028 157.669 50.3199 155.998 50.7412C157.177 52.005 158.736 53.9006 160.224 55.9508H157.598H157.626ZM154.046 49.1263C155.38 49.1263 157.332 48.7472 157.332 46.5707C157.332 44.675 155.759 44.0572 154.13 44.0572H150.549V49.1123H154.046V49.1263Z" fill="white"/>
<path d="M195.316 55.9508C194.979 54.9397 194.557 53.7181 194.052 52.4122H186.595C186.048 53.8023 185.598 55.0521 185.332 55.9508H183.197C185.261 49.688 188.21 43.7342 189.109 42.2598H191.454C192.03 43.1725 194.95 48.6349 197.366 55.9508H195.302H195.316ZM193.35 50.6429C192.381 48.2276 191.271 45.7422 190.317 44.0572C189.46 45.686 188.295 48.2276 187.312 50.6429H193.35Z" fill="white"/>
<path d="M0.0605469 73.7012H199.823" stroke="white" stroke-width="0.702103" stroke-miterlimit="10"/>
</g>
</g>
<defs>
<clipPath id="clip0_14_15382">
<rect width="200.792" height="104" fill="white"/>
</clipPath>
<clipPath id="clip1_14_15382">
<rect width="199.762" height="103.293" fill="white" transform="translate(0.0605469 0.0078125)"/>
</clipPath>
</defs>
</svg>
