<svg width="197" height="60" viewBox="0 0 197 60" fill="none" xmlns="http://www.w3.org/2000/svg">
<g clip-path="url(#clip0_14_15382)">
<path d="M10.3576 51.1133C10.3576 53.594 7.48443 55.8785 5.1018 57.4342H10.5538V58.8638H2.76123V57.5183C4.94764 55.9486 8.71778 53.2576 8.71778 51.2394C8.71778 50.1742 8.1011 49.2772 6.23705 49.2772C5.25597 49.2772 4.13474 49.5996 3.0976 50.0901V48.5484C4.06466 48.156 5.24196 47.8477 6.41925 47.8477C8.85794 47.8477 10.3436 49.095 10.3436 51.1133H10.3576Z" fill="white"/>
<path d="M37.6037 53.4398C37.6037 56.8315 35.6836 59.06 32.8805 59.06C30.0775 59.06 28.1573 56.8315 28.1573 53.4398C28.1573 50.0481 29.9373 47.8477 32.8805 47.8477C35.8238 47.8477 37.6037 50.0901 37.6037 53.4398ZM29.685 53.4398C29.685 56.2569 31.2968 57.6024 32.8805 57.6024C34.3241 57.6024 36.0761 56.2569 36.0761 53.4398C36.0761 50.6227 34.5063 49.2772 32.8385 49.2772C31.2968 49.2772 29.699 50.5106 29.699 53.4398H29.685Z" fill="white"/>
<path d="M62.8031 51.1133C62.8031 53.594 59.93 55.8785 57.5474 57.4342H62.9994V58.8638H55.2068V57.5183C57.3932 55.9486 61.1633 53.2576 61.1633 51.2394C61.1633 50.1742 60.5467 49.2772 58.6826 49.2772C57.7015 49.2772 56.5803 49.5996 55.5432 50.0901V48.5484C56.5102 48.156 57.6875 47.8477 58.8648 47.8477C61.3035 47.8477 62.7891 49.095 62.7891 51.1133H62.8031Z" fill="white"/>
<path d="M87.7227 49.3336C85.7606 49.5999 83.448 50.637 82.5931 52.3889C82.9435 52.0245 84.0787 51.534 84.9617 51.534C87.4564 51.534 88.886 53.1878 88.886 55.164C88.886 57.1402 87.3583 59.0603 84.6954 59.0603C82.2848 59.0603 80.6029 57.4625 80.6029 54.7996C80.6029 50.8893 83.7424 48.4786 87.7227 47.876V49.3196V49.3336ZM82.2007 55.2201C82.2007 56.5655 83.0836 57.6027 84.7234 57.6027C86.2371 57.6027 87.3023 56.6496 87.3023 55.206C87.3023 53.6643 86.125 52.8795 84.7795 52.8795C83.2658 52.8795 82.2007 53.8325 82.2007 55.2201Z" fill="white"/>
<path d="M111.661 55.9771C111.268 56.9862 110.568 58.0794 109.951 58.7942C109.755 58.6681 109.334 58.4018 109.082 58.2896C109.727 57.6309 110.315 56.6639 110.652 55.7388L111.661 55.9771ZM113.707 54.982V59.8874H112.488V54.982H109.18V54.071H112.488V52.5854H109.096V51.6884H113.693C114.015 51.0437 114.394 50.1046 114.59 49.4599L115.725 49.6561C115.431 50.3289 115.109 51.0997 114.8 51.6884H116.917V52.5854H113.721V54.071H116.734V54.982H113.721H113.707ZM116.65 49.3899H109.362V48.5069H112.628C112.418 48.0864 112.123 47.5959 111.899 47.2175L113.09 46.9512C113.441 47.4277 113.805 48.0444 114.043 48.5069H116.65V49.3899ZM111.072 51.6463C110.988 51.1278 110.722 50.3009 110.442 49.6842L111.423 49.488C111.759 50.0906 112.039 50.8895 112.109 51.4081L111.072 51.6463ZM115.305 55.6547C115.837 56.3415 116.426 57.2665 116.706 57.8692L115.823 58.2896C115.557 57.687 114.954 56.7059 114.464 56.0332L115.319 55.6547H115.305ZM124.163 52.7536H122.355V59.8874H121.163V52.7536H118.879V53.2441C118.879 55.2623 118.669 58.0374 117.155 59.8734C116.959 59.6772 116.468 59.3548 116.202 59.2427C117.603 57.5468 117.73 55.1222 117.73 53.2441V48.3807C119.594 48.1285 121.71 47.708 122.901 47.2735L123.882 48.0584C122.523 48.4929 120.617 48.8573 118.879 49.0815V51.7725H124.163V52.7676V52.7536Z" fill="white"/>
<path d="M155.333 53.006V55.1083H159.272V56.0894H155.333V58.3599C155.333 58.7944 155.431 58.8785 155.992 58.8785H157.884C158.403 58.8785 158.487 58.5982 158.543 57.0845C158.809 57.2667 159.328 57.4489 159.664 57.519C159.552 59.313 159.202 59.8035 157.982 59.8035H155.81C154.408 59.8035 154.044 59.4951 154.044 58.3319V56.0754H151.045C150.778 57.5891 149.797 59.0326 146.532 59.9857C146.377 59.7474 145.999 59.355 145.747 59.1448C148.522 58.3459 149.475 57.2387 149.769 56.0614H146.069V55.0803H149.895V52.978H148.143V52.4454C147.345 52.9499 146.49 53.3704 145.663 53.6928C145.495 53.4685 145.13 53.1041 144.892 52.8939C146.041 52.5015 147.232 51.8567 148.27 51.0579C147.765 50.6094 146.952 50.0067 146.279 49.5722L147.05 49.0256C147.709 49.4321 148.536 49.9927 149.068 50.4132C149.671 49.8385 150.204 49.2078 150.61 48.5491H146.49V47.6101H151.227L151.437 47.568L152.25 47.9044C151.535 49.5582 150.274 50.9457 148.788 52.0109H156.609C154.997 50.7776 153.736 49.1518 152.895 47.3298L153.96 47.0635C154.24 47.6802 154.591 48.2828 155.011 48.8434C155.74 48.3249 156.539 47.6521 157.057 47.1616L157.982 47.7222C157.253 48.3389 156.328 49.0116 155.544 49.5022C155.88 49.8806 156.244 50.245 156.623 50.5954C157.45 50.0628 158.417 49.3059 159.005 48.7734L159.93 49.334C159.16 49.9507 158.164 50.6374 157.324 51.156C158.249 51.8427 159.3 52.4174 160.435 52.7958C160.169 52.992 159.776 53.3984 159.58 53.6787C158.725 53.3704 157.926 52.9499 157.197 52.4454V52.978H155.277L155.333 53.006ZM154.044 53.006H151.143V55.1083H154.044V53.006Z" fill="white"/>
<path d="M187.218 54.5474C186.938 57.4206 186.069 59.0884 181.948 59.9434C181.85 59.6771 181.514 59.2706 181.248 59.0464C185.06 58.3596 185.719 56.9861 185.957 54.5334H187.218V54.5474ZM188.101 49.4038H181.598V48.4227H188.101V47.0352H189.363V48.4227H196.006V49.4038H189.363V50.8053H194.52V51.7443H183.14V50.8053H188.101V49.4038ZM194.296 55.5705V53.8326H183.21V55.5705H182.005V52.8656H195.529V55.5705H194.282H194.296ZM194.212 58.724C194.829 58.724 194.927 58.4857 194.983 56.902C195.263 57.0702 195.768 57.2244 196.118 57.3085C195.964 59.2005 195.642 59.6911 194.338 59.6911H191.913C190.414 59.6911 190.035 59.3827 190.035 58.2895V54.5474H191.269V58.2755C191.269 58.6539 191.381 58.724 192.04 58.724H194.24H194.212Z" fill="white"/>
<path d="M18.6545 1.41556V5.15767C15.4029 4.07849 13.2446 3.53189 10.6517 3.53189C7.35809 3.53189 4.03644 4.40084 4.03644 7.40014C4.03644 9.40435 5.62018 10.5256 7.70848 11.1423L14.0855 13.1044C17.1829 14.0154 19.7337 16.0617 19.7337 20.1822C19.7337 25.2137 15.8234 28.0448 9.05396 28.0448C5.76034 28.0448 2.90119 27.3721 0 26.2088V22.2565C2.94324 23.2936 5.73231 24.4569 9.05396 24.4569C13.2726 24.4569 15.9776 22.8311 15.9776 20.2943C15.9776 18.0939 14.3938 16.9587 12.2214 16.342L6.30694 14.59C3.09741 13.6931 0.350385 11.7309 0.350385 7.40014C0.350385 2.11633 5.03153 0 10.6377 0C13.7772 0 16.2859 0.588648 18.6405 1.41556H18.6545Z" fill="white"/>
<path d="M37.6871 4.07881V11.8574H50.6934V15.3893H37.6871V23.9667H51.8147V27.5406H34.0571V0.504883H51.8147V4.07881H37.6871Z" fill="white"/>
<path d="M85.354 27.5406L70.1053 5.73263V27.5406H66.5033V0.504883H70.6799L84.8074 20.7291V0.504883H88.4094V27.5546H85.354V27.5406Z" fill="white"/>
<path d="M114.73 4.07881V27.5406H111.1V4.07881H101.584V0.504883H124.261V4.07881H114.744H114.73Z" fill="white"/>
<path d="M154.043 27.5406C152.067 24.4152 149.32 20.7572 146.573 17.6317H141.037V27.5406H137.407V0.504883H147.975C151.114 0.504883 157.295 1.92044 157.295 8.91413C157.295 13.8616 154.156 16.4404 151.1 17.2813C153.273 19.7761 156.132 23.5182 158.879 27.5546H154.043V27.5406ZM147.47 14.0578C149.909 14.0578 153.511 13.315 153.511 9.02626C153.511 5.28414 150.61 4.07881 147.624 4.07881H141.051V14.0718H147.47V14.0578Z" fill="white"/>
<path d="M191.184 27.54C190.567 25.5358 189.796 23.1251 188.857 20.5463H175.164C174.155 23.2933 173.342 25.746 172.838 27.54H168.927C172.726 15.1784 178.135 3.40544 179.803 0.490234H184.092C185.143 2.28421 190.511 13.1041 194.968 27.54H191.17H191.184ZM187.596 17.0565C185.816 12.2772 183.77 7.35779 182.018 4.03614C180.434 7.24567 178.304 12.2772 176.482 17.0565H187.582H187.596Z" fill="white"/>
</g>
<defs>
<clipPath id="clip0_14_15382">
<rect width="196.118" height="60" fill="white"/>
</clipPath>
</defs>
</svg>
