<svg width="219" height="70" viewBox="0 0 219 70" fill="none" xmlns="http://www.w3.org/2000/svg">
<g filter="url(#filter0_dd_63_19559)">
<path d="M147.3 24.1123L148.806 24.8066L148.81 24.8086C149.109 24.9535 149.333 25.2046 149.333 25.4893C149.333 25.7532 149.147 26.1039 148.752 26.127L148.506 26.2051C147.826 27.8007 147.041 29.4944 146.121 31.1191L146.118 31.125L144.192 34.3184L144.348 34.2949L147.722 33.5898C147.495 32.9039 147.294 32.4177 146.934 31.9268V31.9258C146.898 31.8826 146.865 31.8325 146.839 31.7812C146.814 31.7307 146.781 31.6518 146.781 31.5674C146.782 31.2903 147.009 31.0537 147.269 31.0537L147.329 31.0586C147.388 31.0686 147.44 31.0918 147.481 31.1143C147.54 31.146 147.598 31.1891 147.653 31.2363C147.765 31.3311 147.889 31.4616 148.016 31.6143C148.27 31.9209 148.559 32.3383 148.831 32.792C149.103 33.2462 149.362 33.7437 149.553 34.2109C149.741 34.6718 149.874 35.1272 149.874 35.4902C149.874 35.9262 149.791 36.2631 149.651 36.499C149.513 36.7335 149.302 36.8875 149.062 36.8877C148.881 36.8876 148.656 36.8374 148.472 36.6914C148.284 36.5425 148.16 36.3109 148.153 35.9961L148.025 34.9717L146.294 35.5605V49.2061C146.294 49.4078 146.182 49.5573 146.062 49.6562C145.942 49.7537 145.793 49.8218 145.659 49.8691C145.523 49.9172 145.387 49.9496 145.282 49.9697C145.186 49.9882 145.097 49.9999 145.059 50C144.869 49.9999 144.718 49.9044 144.627 49.7422C144.546 49.5977 144.518 49.4097 144.518 49.2061V36.0625L142.114 36.623C142.11 36.6485 142.106 36.687 142.104 36.7461C142.101 36.8159 142.102 36.9029 142.102 37.0146C142.102 37.1594 142.066 37.3163 141.957 37.4385C141.843 37.5651 141.681 37.6181 141.506 37.6182C141.297 37.6181 141.104 37.5339 140.953 37.3691C140.809 37.2116 140.711 36.9901 140.656 36.7178L140.205 34.9141L140.139 34.6475L140.412 34.6338L142.78 34.5137C143.859 32.7473 144.808 30.708 145.517 28.9707C146.237 27.2041 146.706 25.7661 146.821 25.2568L146.982 24.2803L147.031 23.9883L147.3 24.1123ZM31.8135 21.5127C31.6602 22.9195 31.3441 24.4798 30.8662 26.2021L30.8125 26.4551H35.168C35.4202 25.9685 35.6898 25.5801 35.9961 25.3096C36.9667 25.3304 37.8031 25.8988 38.5137 26.9961C38.0538 27.2486 37.7017 27.5999 37.4492 28.0508L36.3584 31.874H37.5029C37.7734 31.3871 38.0719 31.0264 38.3965 30.792C39.3522 30.8372 40.2175 31.3517 41.002 32.3525C40.5783 32.605 40.227 32.9299 39.9385 33.3086L38.8467 37.5732H39.7666C40.0191 36.9963 40.3529 36.6264 40.7676 36.4551C41.6243 36.5002 42.3727 37.0328 43.0039 38.0518C42.5983 38.3042 42.2737 38.6017 42.0303 38.9443C41.913 39.9453 41.769 40.9375 41.5977 41.9385C41.5165 42.705 41.2817 43.9315 40.876 45.6357C40.6235 46.7629 40.3351 47.7368 39.9834 48.5664C39.5776 49.4772 39.1265 49.9375 38.6035 49.9375C37.9543 49.9195 37.6022 49.5579 37.5391 48.8545C36.98 48.0252 36.0785 47.4748 34.8164 47.1953C34.9522 47.0512 35.5292 46.9523 36.5654 46.9072C37.0614 46.9072 37.5668 47.0152 38.0898 47.2227C38.4325 47.0057 38.8834 45.5449 39.4424 42.8223C39.7129 41.3164 39.9023 40.0267 40.0195 38.9717H25.2119C24.1028 40.6308 22.9669 41.9745 21.8037 43.0205C21.1906 43.5705 20.5861 43.9851 20 44.2646C23.2914 40.0173 25.9971 34.5436 28.1162 27.8525H21.1992L20.6855 26.4551H28.5762C29.1263 24.5253 29.6583 22.5138 30.1543 20.4307L31.8135 21.5127ZM179.822 20.6201C180.553 20.6201 181.093 20.7466 181.454 20.999C181.95 21.2966 182.211 22.0179 182.229 23.1631L182.248 23.1719V26.3281H185.287L186.405 24.7051C186.784 25.0026 186.992 25.5438 187.01 26.3281C187.01 27.284 186.531 27.7627 185.575 27.7627H180.643C180.607 29.3766 180.535 30.9274 180.444 32.415H183.339C183.609 31.7389 183.952 31.2884 184.367 31.0811C185.269 31.1261 186.026 31.6399 186.657 32.6406C186.251 32.9382 185.927 33.2815 185.684 33.6602L185.513 37.1045C185.359 39.2958 185.215 41.1537 185.08 42.6777C184.891 44.2466 184.656 45.6443 184.395 46.8525C184.088 48.0609 183.736 48.9093 183.33 49.4053C183.141 49.7027 182.798 49.8555 182.302 49.8555C181.671 49.7742 181.356 49.4592 181.355 48.9365C181.184 48.5578 180.868 48.2146 180.408 47.917C180.029 47.6646 179.569 47.4935 179.028 47.4033C179.254 47.214 179.849 47.1143 180.805 47.1143C181.247 47.1593 181.617 47.2584 181.924 47.4297C182.23 47.239 182.573 45.8055 182.951 43.1289C183.204 41.1722 183.384 39.2062 183.492 37.2314C183.591 36.0591 183.646 34.9134 183.664 33.7861H180.336C179.687 41.4782 178.081 46.6902 175.521 49.4316C177.504 43.7776 178.551 36.5547 178.65 27.7627H176.008L175.494 26.3281H180.228V23.1719C180.227 21.9186 179.876 21.1249 179.164 20.7822C179.299 20.6741 179.516 20.6201 179.822 20.6201ZM100.763 20.5576C101.547 20.5576 102.097 20.6924 102.422 20.9717C102.864 21.2873 103.081 22.0991 103.081 23.3975V27.4736H109.077C109.348 26.8334 109.637 26.3912 109.971 26.1387C110.962 26.1569 111.819 26.7436 112.522 27.8887C112.045 28.2674 111.702 28.6645 111.494 29.0703V48.1875C111.494 49.0352 111.16 49.4864 110.493 49.5225C109.79 49.4773 109.42 49.0534 109.402 48.251H94.6943V48.6299C94.6942 49.3691 94.3782 49.7748 93.7471 49.8379C93.0619 49.7928 92.7017 49.3871 92.6836 48.6299V26.4551C94.0179 26.4551 94.6943 26.7526 94.6943 27.3477H94.6855V27.4736H101.079V23.1455C101.079 21.8743 100.745 21.0625 100.078 20.7197C100.195 20.6116 100.42 20.5577 100.763 20.5576ZM191.356 21.4502C191.356 22.5773 191.203 23.8762 190.896 25.3369C190.815 25.6974 190.743 26.0307 190.671 26.3281H196.577L197.695 24.7051C198.074 25.0026 198.282 25.5438 198.3 26.3281C198.3 27.2839 197.822 27.7626 196.866 27.7627H195.721C195.495 33.4798 194.485 38.1604 192.709 41.8125C193.205 42.687 193.773 43.4983 194.404 44.2646C195.414 45.473 196.794 46.6188 198.534 47.71C198.074 47.9624 197.623 48.3496 197.19 48.8545C197.073 49.1069 196.902 49.2333 196.677 49.2334C196.505 49.2154 196.271 49.089 195.991 48.8545C195.567 48.5749 195.062 48.1246 194.467 47.4844C193.394 46.3392 192.493 45.0494 191.744 43.6338C190.103 46.3299 187.966 48.3948 185.351 49.8105C187.668 47.3488 189.48 44.5984 190.797 41.5596C190.265 40.0988 189.868 38.638 189.625 37.1953C189.318 35.4099 189.156 33.5069 189.138 31.4961V30.7656C188.182 32.569 187.271 33.7588 186.414 34.3359C187.983 29.4936 189.084 24.9129 189.715 20.6025L191.356 21.4502ZM67.2891 21.2969C67.289 21.6754 67.1725 22.1262 66.9473 22.6309C66.6587 23.2711 66.288 23.8211 65.8281 24.29C65.233 24.8401 64.683 25.2372 64.1689 25.4717H72.7178C72.9883 24.8945 73.2777 24.4981 73.6113 24.2637C74.6031 24.2819 75.4598 24.8409 76.1631 25.9229C75.6851 26.2655 75.3422 26.6352 75.1348 27.041V48.1699C75.1347 48.9994 74.801 49.4234 74.1338 49.4414C73.4035 49.4233 73.043 48.9721 73.043 48.1064V47.8184H60.2822V48.5488C60.2821 49.2879 59.9669 49.6937 59.3359 49.7568C58.6507 49.7118 58.2897 49.315 58.2715 48.5488V24.543C59.606 24.543 60.2821 24.8405 60.2822 25.4355H60.2734V25.4717H63.6826C64.4671 23.6231 65.0079 21.8915 65.3145 20.2773L67.2891 21.2969ZM162.606 29.0479L163.986 30.3105L164.044 30.3701C164.172 30.5211 164.249 30.7419 164.249 30.9541C164.249 31.0952 164.216 31.3024 164.097 31.4805C163.969 31.6715 163.752 31.8113 163.438 31.8115H158.099V37.4385H160.46L161.828 36.1133L161.979 35.9678L162.135 36.1064L163.46 37.2783L163.471 37.2871V37.2881C163.691 37.5088 163.825 37.7891 163.825 38.0518C163.825 38.2705 163.76 38.4792 163.62 38.6357C163.477 38.7953 163.273 38.8807 163.04 38.8809H158.099V46.2539L159.504 46.4736H159.975V46.4561H160.2C161.654 46.456 163.283 46.3934 165.088 46.1074L165.105 46.1045H165.124C165.22 46.1047 165.328 46.1328 165.413 46.2119C165.501 46.2937 165.538 46.4062 165.538 46.5195C165.538 46.6811 165.456 46.8133 165.357 46.915C165.259 47.0164 165.124 47.108 164.973 47.1934L164.96 47.2012L164.945 47.2061C164.721 47.2961 164.544 47.5326 164.499 47.8496C164.483 48.0357 164.446 48.1948 164.39 48.3154C164.361 48.3769 164.323 48.4387 164.271 48.4873C164.222 48.5344 164.147 48.5787 164.052 48.582L164.053 48.584C163.34 48.6201 162.695 48.6474 162.058 48.6475C159.991 48.6475 158.045 48.5228 156.342 47.5996C154.758 46.7412 153.415 45.21 152.353 42.5312C152.063 43.6417 151.594 45.1537 150.786 46.6963L150.784 46.7012C150.41 47.3714 149.981 48.0367 149.606 48.5361C149.42 48.7847 149.243 48.9974 149.091 49.1504C149.015 49.2263 148.94 49.2937 148.869 49.3428C148.807 49.3857 148.711 49.4403 148.603 49.4404C148.472 49.4403 148.337 49.3962 148.256 49.2646C148.192 49.1612 148.188 49.039 148.188 48.9629C148.188 48.9053 148.186 48.7962 148.233 48.6846L148.244 48.6602L148.261 48.6377C148.983 47.6778 150.346 45.5536 151.051 41.7344C151.311 40.188 151.526 38.6491 151.579 37.1143L151.552 36.0547L151.545 35.7793L151.816 35.8271L153.25 36.0801H153.252C153.648 36.1531 153.969 36.3996 153.969 36.7803C153.969 36.8583 153.961 36.9416 153.928 37.0244C153.894 37.1092 153.84 37.1775 153.775 37.2373C153.674 37.3316 153.516 37.427 153.308 37.5508L152.803 40.5254C153.52 42.4328 154.637 44.4741 156.322 45.5625V31.8115H150.721L150.683 31.6338L150.475 30.6875L150.415 30.4131H160.833L162.301 29.0488L162.453 28.9072L162.606 29.0479ZM143.496 39.2412L143.511 39.2451L143.523 39.251C143.789 39.3636 144.031 39.575 144.031 39.873C144.031 40.0842 143.958 40.25 143.826 40.3564C143.703 40.4552 143.56 40.4775 143.463 40.4775C143.428 40.4775 143.4 40.4802 143.379 40.4844C143.375 40.4852 143.371 40.4865 143.368 40.4873C143.193 42.1483 142.721 43.9749 142.243 45.3867C142.003 46.0957 141.759 46.7064 141.548 47.1426C141.443 47.3594 141.342 47.541 141.25 47.6709C141.205 47.735 141.156 47.7948 141.104 47.8408C141.06 47.8802 140.976 47.9442 140.865 47.9443C140.736 47.9442 140.618 47.8921 140.54 47.7881C140.47 47.6943 140.451 47.5835 140.451 47.4932C140.451 47.4287 140.451 47.3601 140.487 47.2656C140.8 46.228 141.113 45.04 141.354 43.7197L141.857 40.0615V39.0703H142.086L142.144 38.8623L143.496 39.2412ZM24.6416 41.6045C24.9077 41.9274 25.059 42.8167 25.0947 44.2734C25.0767 45.058 24.9954 45.6447 24.8691 46.0234C24.752 46.3839 24.5901 46.6725 24.3828 46.8799C24.2115 47.1324 24.0221 47.3492 23.8057 47.5205C23.5351 47.7099 23.2458 47.8086 22.9482 47.8086C22.3714 47.8084 22.056 47.4745 22.002 46.8164C22.0022 46.3476 22.2996 45.8696 22.8945 45.3828C23.7316 44.5097 24.3166 43.2503 24.6416 41.6045ZM94.6855 46.8525H101.079V38.4395H94.6855V46.8525ZM103.081 46.8525H109.394V38.4395H103.081V46.8525ZM26.6514 41.4346C28.5596 41.7965 29.5591 42.9952 29.6582 45.0312C29.6221 45.9871 29.2701 46.4742 28.5938 46.4922C27.9265 46.4922 27.5928 46.0319 27.5928 45.1211C27.5927 44.2105 27.4847 43.516 27.2773 42.9209C27.1252 42.375 26.9189 41.874 26.6514 41.4346ZM60.2734 46.4023H73.0342V40.6309H60.2734V46.4023ZM30.5576 40.7686C32.477 41.1144 33.4821 42.2138 33.5811 44.0752C33.545 44.9859 33.202 45.4556 32.5527 45.4736C31.9035 45.4736 31.5791 45.0314 31.5791 44.1387C31.5791 43.3542 31.4701 42.687 31.2627 42.1279C31.0572 41.6187 30.8164 41.1714 30.5576 40.7686ZM147.507 38.1309C147.571 38.1442 147.625 38.1736 147.664 38.2012C147.719 38.2399 147.771 38.2908 147.817 38.3447C147.911 38.4531 148.009 38.6018 148.107 38.7734C148.305 39.1188 148.521 39.591 148.721 40.1104C149.118 41.1425 149.469 42.4097 149.469 43.291C149.469 43.5252 149.416 43.8379 149.289 44.0996C149.163 44.3584 148.932 44.6248 148.558 44.625H148.483L148.424 44.5811L148.081 44.3291L148.014 44.2793L147.995 44.1973L147.927 43.8945H147.847L147.874 43.6455C147.9 43.4072 147.899 43.1668 147.899 42.876C147.899 41.4653 147.666 39.896 147.106 38.8721L147.102 38.8623L147.098 38.8525C147.085 38.8226 147.068 38.7847 147.055 38.749C147.044 38.7202 147.024 38.6625 147.024 38.6016C147.024 38.4775 147.077 38.3668 147.138 38.2891C147.191 38.2218 147.296 38.1241 147.439 38.124L147.507 38.1309ZM34.1641 40.0625C35.1531 40.0636 35.9442 40.3346 36.5381 40.8564C37.2234 41.4065 37.6114 42.1726 37.6836 43.1465C37.6836 43.9942 37.3862 44.4545 36.791 44.5176C36.1779 44.5176 35.7905 44.0845 35.6191 43.21C35.5199 42.5968 35.348 42.0284 35.1045 41.5234C34.8535 41.0393 34.5398 40.5555 34.1641 40.0625ZM24.6416 41.6045C24.6392 41.6016 24.6371 41.5985 24.6348 41.5957H24.6436C24.643 41.5986 24.6422 41.6015 24.6416 41.6045ZM26.6514 41.4346C26.6496 41.4342 26.6473 41.4339 26.6455 41.4336V41.4238C26.6475 41.4271 26.6494 41.4313 26.6514 41.4346ZM30.5576 40.7686C30.5524 40.7676 30.5472 40.7666 30.542 40.7656L30.5508 40.7568C30.5532 40.7606 30.5552 40.7648 30.5576 40.7686ZM34.1641 40.0625C34.1621 40.0625 34.1602 40.0625 34.1582 40.0625V40.0537C34.1603 40.0565 34.1619 40.0597 34.1641 40.0625ZM190.31 27.7627C190.039 28.6101 189.769 29.3766 189.48 30.0527L189.472 30.0615C189.679 32.1266 189.985 34.0568 190.391 35.8604C190.679 37.195 191.077 38.4397 191.6 39.585C192.898 35.9779 193.611 32.037 193.719 27.7627H190.31ZM60.2734 39.2334H73.0342V33.75H60.2734V39.2334ZM28.3057 33.2451C27.7285 34.5617 27.1058 35.8064 26.4385 36.9697L26.0957 37.5732H36.8184L37.9365 33.2363H28.2959L28.3057 33.2451ZM94.6855 37.0322H101.079V28.8447H94.6855V37.0322ZM103.081 37.0322H109.394V28.8447H103.081V37.0322ZM60.2734 32.3525H73.0342V26.8428H60.2734V32.3525ZM30.3701 27.8613C29.9102 29.241 29.4232 30.5846 28.9092 31.874H34.3291L35.4473 27.8613H30.3701ZM144.39 20.4033L145.661 20.9443L145.701 20.9619L145.718 20.9785C145.992 21.1203 146.204 21.3352 146.204 21.6387C146.204 21.7624 146.165 21.914 146.075 22.0391C145.98 22.1714 145.824 22.279 145.609 22.2793C145.486 22.2793 145.443 22.3296 145.425 22.3818C145.036 23.6151 144.05 25.7349 143.188 26.9033C143.585 27.493 143.931 28.0076 144.18 28.4795C144.448 28.9881 144.617 29.4688 144.617 29.9629C144.617 30.2315 144.557 30.5088 144.434 30.7266C144.31 30.9444 144.1 31.1345 143.806 31.1348C143.592 31.1348 143.392 31.0747 143.229 30.9424C143.068 30.8108 142.961 30.6223 142.902 30.3984L142.899 30.3896L142.898 30.3818C142.717 29.3883 142.392 28.4424 142.022 27.668C141.65 26.8878 141.242 26.3021 140.907 26.0117V26.0107C140.847 25.9614 140.798 25.9017 140.763 25.8418C140.737 25.7979 140.711 25.7418 140.7 25.6797L140.694 25.6162L140.704 25.5361C140.71 25.5113 140.718 25.4879 140.726 25.4678C140.743 25.4232 140.769 25.3741 140.805 25.3281C140.877 25.2351 141.003 25.1377 141.182 25.1377C141.236 25.1377 141.397 25.1339 141.537 25.2568L141.538 25.2578L142.339 25.9678L143.113 24.1182L143.848 21.542L144.082 20.5586L144.145 20.2988L144.39 20.4033ZM156.576 20.0566L157.941 20.3428H157.942C158.179 20.378 158.375 20.4529 158.515 20.582C158.661 20.7176 158.721 20.8922 158.721 21.0713C158.721 21.3872 158.577 21.6907 158.245 21.792C158.157 21.8189 158.09 21.8999 158.09 22.0537V23.9834H162.811L163.562 22.9658L163.748 22.7158L163.928 22.9697L164.926 24.3779C165.167 24.6081 165.268 24.8867 165.268 25.1562C165.268 25.5112 165.147 25.7419 164.962 25.8701C164.792 25.9875 164.611 25.9854 164.564 25.9854C164.526 25.9854 164.479 25.9767 164.453 25.9717C164.42 25.9652 164.38 25.9569 164.345 25.9492C164.308 25.9412 164.274 25.933 164.247 25.9277C164.212 25.921 164.21 25.9228 164.222 25.9229C164.096 25.9229 163.998 25.9786 163.928 26.0781L161.999 28.8291L161.975 28.8643L161.939 28.8877C161.906 28.9099 161.869 28.9312 161.833 28.9482C161.808 28.9603 161.747 28.9882 161.679 28.9883C161.605 28.9883 161.542 28.9616 161.496 28.9355C161.447 28.9075 161.401 28.87 161.361 28.8252C161.282 28.7353 161.219 28.6047 161.219 28.4473V28.292L161.245 28.2422C161.746 27.3044 162.158 26.3157 162.442 25.3721H151.788L151.649 26.5615L151.648 26.5703L151.646 26.5791C151.605 26.7894 151.449 27.5579 151.159 28.2773C151.015 28.6357 150.831 28.9966 150.603 29.2715C150.375 29.545 150.076 29.7635 149.703 29.7637C149.463 29.7637 149.232 29.7445 149.067 29.5322C148.998 29.4421 148.95 29.3296 148.909 29.208C148.867 29.0845 148.825 28.928 148.773 28.7412L148.766 28.7119V28.6816C148.766 28.5166 148.85 28.3493 148.947 28.2041C149.047 28.0539 149.187 27.8896 149.348 27.7188C150.146 26.7355 150.993 25.4491 150.993 22.9824C150.993 22.8743 151.027 22.7623 151.095 22.6729C151.165 22.5804 151.28 22.5049 151.426 22.5049L151.515 22.5146C151.714 22.5588 151.858 22.7478 151.858 22.9561V23.9658H156.304V20L156.576 20.0566ZM23.6611 21.0078C24.7162 21.3234 25.5636 21.7928 26.2129 22.415C26.79 22.929 27.1153 23.5058 27.1875 24.1641C27.1875 25.1199 26.8714 25.6067 26.2402 25.6338C25.6811 25.6338 25.3114 25.2193 25.1221 24.3896C25.0048 23.8756 24.8691 23.4334 24.7158 23.0547C24.4273 22.2703 24.0761 21.5846 23.6523 21.0166L23.6611 21.0078Z" fill="white"/>
</g>
<defs>
<filter id="filter0_dd_63_19559" x="0" y="0" width="218.534" height="70" filterUnits="userSpaceOnUse" color-interpolation-filters="sRGB">
<feFlood flood-opacity="0" result="BackgroundImageFix"/>
<feColorMatrix in="SourceAlpha" type="matrix" values="0 0 0 0 0 0 0 0 0 0 0 0 0 0 0 0 0 0 127 0" result="hardAlpha"/>
<feOffset/>
<feGaussianBlur stdDeviation="10"/>
<feComposite in2="hardAlpha" operator="out"/>
<feColorMatrix type="matrix" values="0 0 0 0 0 0 0 0 0 0 0 0 0 0 0 0 0 0 0.8 0"/>
<feBlend mode="normal" in2="BackgroundImageFix" result="effect1_dropShadow_63_19559"/>
<feColorMatrix in="SourceAlpha" type="matrix" values="0 0 0 0 0 0 0 0 0 0 0 0 0 0 0 0 0 0 127 0" result="hardAlpha"/>
<feOffset/>
<feGaussianBlur stdDeviation="5"/>
<feComposite in2="hardAlpha" operator="out"/>
<feColorMatrix type="matrix" values="0 0 0 0 0 0 0 0 0 0 0 0 0 0 0 0 0 0 0.25 0"/>
<feBlend mode="normal" in2="effect1_dropShadow_63_19559" result="effect2_dropShadow_63_19559"/>
<feBlend mode="normal" in="SourceGraphic" in2="effect2_dropShadow_63_19559" result="shape"/>
</filter>
</defs>
</svg>
