<svg width="211" height="16" viewBox="0 0 211 16" fill="none" xmlns="http://www.w3.org/2000/svg">
<path d="M50.2295 11.4697C50.9695 11.4697 51.3398 11.9999 51.3398 13.0498C51.3398 14.3798 50.7298 15.2399 49.5098 15.6299C50.0596 15.1 50.3299 14.6103 50.3301 14.1504C50.3301 13.9704 50.2099 13.8503 49.96 13.7803C49.43 13.6603 49.17 13.3001 49.1699 12.7002C49.1699 12.3204 49.2698 12.0303 49.4795 11.8203C49.6694 11.5904 49.9197 11.4698 50.2295 11.4697ZM2.87012 0.770508H0.669922V15.5303H0V0.0205078H2.87012V0.770508ZM67.5195 0.0605469C67.9395 0.0605469 68.2397 0.140547 68.4297 0.310547C68.6396 0.480621 68.7402 0.9501 68.7402 1.71973V2.84961C68.7402 3.59961 68.7603 4.29016 68.7803 4.91016H71.6201L72.2002 4.06055C72.3999 4.22061 72.4998 4.50047 72.5098 4.91016C72.5097 5.40009 72.2597 5.63965 71.7598 5.63965H68.7998C68.8698 7.10965 68.9696 8.21016 69.0996 8.91016C69.1496 9.21014 69.1998 9.50053 69.2598 9.77051C69.9297 8.78059 70.5298 7.74029 71.0498 6.65039L71.7803 7.25C71.5503 7.94999 71.2396 8.6599 70.8496 9.37988C70.4996 10.0299 70.0996 10.6199 69.6396 11.1299C69.7696 11.4599 69.9 11.7705 70.04 12.0605C70.5898 13.0501 70.9798 13.5502 71.2197 13.5703C71.4897 12.8603 71.8403 12.3505 72.2803 12.0205C72.1103 12.5404 72.0198 13.0406 72.0098 13.5205L72.0498 14.0801C72.2297 14.22 72.32 14.3998 72.3301 14.5996C72.3301 15.0296 72.1297 15.25 71.7197 15.25C71.4197 15.2499 71.0094 15.0203 70.4795 14.5703C69.9295 14.0403 69.4696 13.3798 69.0996 12.5898C68.9898 12.3701 68.9002 12.1502 68.8203 11.9404C67.6403 13.0204 66.5799 13.6902 65.6299 13.9502C66.6698 13.0203 67.6095 11.99 68.4395 10.8701C68.2895 10.3501 68.1701 9.80975 68.0801 9.25977C67.9101 8.40978 67.7897 7.1995 67.7197 5.63965H64.6201V8.58008C65.3299 8.30015 66.0297 8.0101 66.7295 7.7002C66.5894 8.03015 66.1398 8.51013 65.3701 9.12988C65.1302 9.30982 64.88 9.46994 64.6201 9.62988V14.6504C64.62 15.2402 64.4195 15.5303 64.0195 15.5303C63.7398 15.5301 63.57 15.35 63.5 14.9805C63.22 14.5405 62.6995 14.2501 61.9395 14.1201C62.0095 14.0301 62.2903 13.9802 62.7803 13.9502C63.1201 13.9602 63.3804 13.9903 63.5703 14.0303V10.1602C63.4403 10.2402 63.3097 10.3004 63.1797 10.3604C62.4598 10.6603 61.8097 10.8605 61.2197 10.9805L60.8301 9.98047C61.74 9.68048 62.6503 9.3605 63.5703 9.02051V5.65039H60.8594L60.5898 4.91992L60.6494 4.90039H63.6299V2.16016C63.0699 2.22016 62.4896 2.24977 61.8896 2.25977C61.2798 2.24976 60.9394 2.20034 60.8594 2.11035C62.8994 1.60035 64.8201 1.00961 66.6201 0.349609L66.5303 1.58008C66.1203 1.78007 65.4999 1.93981 64.6699 2.0498V4.91016H67.7402C67.7202 4.26023 67.7002 3.56022 67.7002 2.82031V1.57031C67.7002 0.820312 67.5094 0.350156 67.1494 0.160156C67.2294 0.0901987 67.3497 0.0605832 67.5195 0.0605469ZM210.28 15.5098H207.41V14.7598H209.61V0H210.28V15.5098ZM84.6602 5.26953C85.18 5.26965 85.6203 5.5598 85.9902 6.13965C85.7404 6.31955 85.5602 6.50987 85.4502 6.71973V14.5195C85.4502 15.0995 85.2598 15.3799 84.8799 15.3799C84.5699 15.3799 84.3796 15.1996 84.3096 14.8496V14.8398C83.9196 14.29 83.4197 13.9599 82.7998 13.8799C82.8699 13.7599 83.1599 13.7002 83.6797 13.7002C83.9694 13.7002 84.2095 13.7498 84.3994 13.8496V10.4902C84.2896 10.63 84.17 10.7801 84.0303 10.9199C83.7103 11.2199 83.3495 11.4802 82.9395 11.7002C82.5698 11.89 82.24 12.0201 81.9502 12.0801L81.7295 11.5098C81.5195 13.4496 80.9702 14.7602 80.0703 15.4502C80.5403 14.0002 80.78 11.9997 80.79 9.46973V5.40039C81.4898 5.40042 81.8398 5.55998 81.8398 5.87988V5.90039H84.2002C84.3402 5.59039 84.4902 5.37953 84.6602 5.26953ZM103.07 7.28027C103.01 7.45022 102.94 7.61032 102.85 7.78027H103.85C103.99 7.45027 104.17 7.21008 104.4 7.08008C104.84 7.21021 105.21 7.60068 105.52 8.23047C105.32 8.34044 105.139 8.48985 104.979 8.67969C104.52 10.2396 104.06 11.3798 103.59 12.0898C103.16 12.8198 102.62 13.4698 101.97 14.0498C101.04 14.7997 100.2 15.2701 99.4404 15.4502C100.25 14.8103 100.89 14.2204 101.36 13.6904C101.99 13.0005 102.52 12.2002 102.95 11.2803C103.34 10.4003 103.66 9.48 103.91 8.5H102.41C102.06 9.01999 101.69 9.44981 101.3 9.7998C101.55 9.88976 101.79 10.0299 102.02 10.2197C102.359 10.5396 102.56 10.8897 102.63 11.2695C102.63 11.6795 102.48 11.8999 102.18 11.9199C101.93 11.9198 101.77 11.7799 101.69 11.4902C101.67 11.3802 101.65 11.2198 101.62 11.0098C101.58 10.7399 101.52 10.5098 101.44 10.2998C101.37 10.1399 101.3 10.0104 101.22 9.90039C101.18 9.92996 101.16 9.95941 101.15 9.96973C100.541 10.4996 100 10.8198 99.5303 10.9199C100.6 9.66997 101.52 8.19967 102.31 6.50977V6.48047L103.07 7.28027ZM107.18 0.519531C107.16 1.03947 107.03 1.68985 106.79 2.46973H109.83C109.97 2.10989 110.13 1.87973 110.32 1.75977L110.33 1.75C110.81 1.77005 111.21 2.08021 111.54 2.66016C111.33 2.82015 111.15 3.02028 111 3.28027C110.98 5.69996 110.93 7.78973 110.84 9.55957C110.76 10.8195 110.66 11.9199 110.54 12.8398C110.41 13.6897 110.27 14.3998 110.11 14.9697C110.01 15.2697 109.84 15.4199 109.59 15.4199C109.28 15.3899 109.12 15.1695 109.1 14.7695C108.71 14.3197 108.15 13.9795 107.42 13.7695C107.54 13.7096 107.8 13.6904 108.2 13.6904C108.65 13.7104 109 13.7603 109.25 13.8203C109.47 13.2403 109.65 11.9698 109.8 10.0098C109.93 8.26988 110 6.00011 110.02 3.19043H106.56C106.31 3.78006 106.01 4.29977 105.66 4.76953C105.04 5.54953 104.53 6.04 104.13 6.25C105.11 4.31011 105.82 2.28026 106.25 0.150391L107.18 0.519531ZM39.6299 0.179688C39.9599 0.179698 40.2397 0.250402 40.4697 0.400391C40.7197 0.570447 40.8494 1.02013 40.8594 1.75V14.2998C40.8594 15.0097 40.6699 15.3697 40.29 15.3799C39.99 15.3799 39.81 15.1896 39.75 14.8096C39.38 14.1898 38.8098 13.82 38.04 13.71C38.1501 13.64 38.3804 13.6104 38.7402 13.6104C39.14 13.6104 39.4899 13.6598 39.7998 13.7598V1.5498C39.7998 0.870038 39.6196 0.450533 39.2598 0.270508C39.3298 0.210508 39.4501 0.19043 39.6201 0.19043L39.6299 0.179688ZM162.55 4.29004C163.05 4.30004 163.48 4.58012 163.84 5.12012C163.6 5.30008 163.43 5.49047 163.32 5.69043V9.30957C163.32 9.74957 163.15 9.98023 162.81 9.99023C162.48 9.9801 162.3 9.78978 162.26 9.41992H161.479V14.5596C161.479 15.0894 161.29 15.3601 160.9 15.3604C160.631 15.3604 160.47 15.1901 160.41 14.8604C160.17 14.4504 159.74 14.1796 159.11 14.0596C159.181 13.9698 159.461 13.9196 159.95 13.8896C160.18 13.8997 160.35 13.9399 160.47 14.0098V9.41992H159.54V9.49023C159.54 9.87993 159.37 10.0797 159.03 10.0898C158.69 10.0898 158.52 9.89977 158.52 9.50977H158.51V4.41992C159.19 4.41992 159.53 4.57012 159.53 4.87012V4.88965H162.09C162.24 4.59984 162.39 4.40003 162.55 4.29004ZM165.58 0.19043C165.99 0.190446 166.28 0.269937 166.45 0.419922C166.67 0.58 166.78 1.00035 166.78 1.7002C166.75 2.78992 166.7 3.7897 166.65 4.72949H168.83L169.41 3.87988C169.61 4.03983 169.71 4.31981 169.72 4.72949C169.72 5.21949 169.47 5.45996 168.97 5.45996H166.59C166.56 5.86996 166.53 6.25036 166.49 6.61035C166.86 6.62038 167.11 6.69011 167.25 6.83008C167.49 7.00012 167.61 7.42044 167.61 8.11035V13.6104C167.61 13.8001 167.65 13.8997 167.74 13.9297C167.83 13.9597 167.96 13.9795 168.13 13.9795C168.509 13.9595 168.699 13.9201 168.7 13.8604C168.74 13.0504 168.89 12.4403 169.16 12.0303C169.12 12.2902 169.1 12.5803 169.1 12.9102C169.12 13.3201 169.22 13.5897 169.4 13.7197C169.69 13.7199 169.84 13.8901 169.85 14.2197C169.85 14.5097 169.7 14.7 169.39 14.79C169.06 14.89 168.65 14.9499 168.15 14.96C167.74 14.96 167.42 14.9299 167.18 14.8799C166.77 14.7798 166.57 14.4094 166.57 13.7695V7.96973C166.57 7.62983 166.53 7.3496 166.44 7.13965C166.36 7.86965 166.26 8.53012 166.14 9.12012C165.36 12.56 164.18 14.6299 162.59 15.3398C164.26 13.2198 165.26 9.93948 165.61 5.47949H164.07L163.8 4.75V4.71973H165.67C165.73 3.7398 165.76 2.72961 165.76 1.67969C165.76 0.949841 165.59 0.479506 165.25 0.269531C165.31 0.209714 165.42 0.19043 165.58 0.19043ZM129.01 3.7998C129.53 3.8098 129.97 4.09993 130.34 4.66992C130.09 4.84992 129.91 5.04 129.8 5.25V9.13965C129.8 9.57945 129.63 9.81012 129.28 9.82031C128.92 9.81031 128.73 9.60973 128.71 9.21973H128.35V13.1904C128.35 13.6599 128.42 13.8894 128.56 13.8896C128.61 13.9196 128.75 13.9404 128.979 13.9404C129.339 13.9304 129.52 13.8695 129.53 13.7695C129.66 12.8098 129.89 12.1397 130.229 11.7598C130.17 12.1097 130.14 12.4498 130.14 12.7598C130.14 13.2698 130.23 13.5596 130.42 13.6396C130.75 13.6397 130.93 13.8099 130.96 14.1396C130.96 14.4296 130.84 14.6395 130.6 14.7695C130.39 14.8995 129.86 15.0003 129 15.0703C128.68 15.0703 128.39 15.05 128.12 15C127.59 14.89 127.33 14.4101 127.33 13.5703V9.20996H126.689C126.679 9.68996 126.639 10.1403 126.569 10.5703C126.489 11.43 126.3 12.1898 126 12.8496C125.68 13.6395 125.22 14.2497 124.62 14.6797C124.05 15.0796 123.47 15.3 122.87 15.3301C123.43 14.9302 123.89 14.5001 124.26 14.0303C124.69 13.5403 125.03 12.8695 125.28 12.0195C125.45 11.4798 125.56 10.87 125.62 10.1904C125.65 9.88043 125.66 9.54996 125.66 9.20996H125.229V9.24023C125.229 9.64 125.06 9.84031 124.71 9.86035C124.36 9.86035 124.189 9.65977 124.189 9.25977V3.94043C124.889 3.94043 125.24 4.10039 125.24 4.40039V4.42969H128.55C128.69 4.12982 128.84 3.91977 129.01 3.7998ZM143.75 0.120117C144.13 0.120141 144.41 0.179915 144.6 0.299805C144.86 0.469805 144.99 0.850195 145 1.4502V2.75977H148.439L149.02 1.91016C149.219 2.07013 149.32 2.34989 149.33 2.75977C149.33 3.24967 149.08 3.49014 148.58 3.49023H144.99V6.28027H149.42L150 5.42969C150.2 5.58969 150.3 5.87027 150.31 6.28027C150.309 6.77009 150.059 7.00977 149.56 7.00977H144.979V9.2998H148.18L148.76 8.4502C148.96 8.61018 149.059 8.88998 149.069 9.2998C149.069 9.7898 148.819 10.0303 148.319 10.0303H144.97V13.4902C145.12 13.5202 145.27 13.5503 145.43 13.5703C146.5 13.6603 147.58 13.7002 148.689 13.7002C149.209 13.7002 149.73 13.6804 150.26 13.6504C150.14 13.9502 150.04 14.29 149.95 14.6797C149.91 14.7797 149.65 14.8301 149.16 14.8301C147.81 14.8201 146.729 14.7697 145.899 14.6797C144.32 14.5396 143.06 14.0396 142.1 13.1797C141.6 12.6698 141.24 12.1698 141.01 11.6699C140.84 12.1697 140.66 12.6196 140.46 13.0195C139.94 14.0695 139.309 14.8303 138.569 15.2803C139.669 13.2603 140.39 10.7202 140.74 7.65039L141.729 8.11035C141.679 8.85005 141.58 9.5698 141.42 10.2695C141.33 10.6594 141.23 11.0197 141.12 11.3496C141.59 11.8696 142.14 12.32 142.77 12.71C143.139 12.9199 143.53 13.0905 143.939 13.2305V7H138.779L138.51 6.26953H143.939V3.48047H139.779L139.51 2.75L139.529 2.75977H143.96V1.4502C143.96 0.800422 143.78 0.3803 143.41 0.200195C143.48 0.150263 143.59 0.120117 143.75 0.120117ZM182.66 0.120117C183.04 0.120141 183.32 0.179911 183.51 0.299805C183.77 0.469805 183.9 0.850195 183.91 1.4502V2.75977H187.35L187.93 1.91016C188.13 2.07013 188.23 2.34989 188.24 2.75977C188.24 3.24967 187.99 3.49014 187.49 3.49023H183.9V6.28027H188.33L188.91 5.42969C189.11 5.58969 189.21 5.87027 189.22 6.28027C189.22 6.77009 188.97 7.00977 188.47 7.00977H183.89V9.2998H187.09L187.67 8.4502C187.87 8.61018 187.969 8.88998 187.979 9.2998C187.979 9.7898 187.729 10.0303 187.229 10.0303H183.88V13.4902C184.03 13.5202 184.18 13.5503 184.34 13.5703C185.41 13.6603 186.49 13.7002 187.6 13.7002C188.12 13.7002 188.64 13.6804 189.17 13.6504C189.05 13.9502 188.95 14.29 188.86 14.6797C188.82 14.7797 188.56 14.8301 188.07 14.8301C186.72 14.8201 185.64 14.7697 184.81 14.6797C183.23 14.5396 181.97 14.0396 181.01 13.1797C180.51 12.6698 180.15 12.1698 179.92 11.6699C179.75 12.1697 179.57 12.6196 179.37 13.0195C178.85 14.0695 178.219 14.8303 177.479 15.2803C178.579 13.2603 179.3 10.7202 179.65 7.65039L180.64 8.11035C180.59 8.85005 180.49 9.5698 180.33 10.2695C180.24 10.6594 180.14 11.0197 180.03 11.3496C180.5 11.8696 181.05 12.32 181.68 12.71C182.05 12.9199 182.44 13.0905 182.85 13.2305V7H177.689L177.42 6.26953H182.85V3.48047H178.689L178.42 2.75L178.439 2.75977H182.87V1.4502C182.87 0.800422 182.69 0.3803 182.32 0.200195C182.39 0.150263 182.5 0.120117 182.66 0.120117ZM122.43 9C122.93 9.01 123.36 9.31039 123.72 9.90039C123.48 10.0902 123.31 10.29 123.2 10.5098V14.2998C123.2 14.7398 123.029 14.9695 122.689 14.9795C122.32 14.9694 122.14 14.7399 122.14 14.2803V14.2598H120.43V14.5898C120.43 14.9798 120.26 15.1804 119.92 15.1904C119.58 15.1904 119.41 15.0001 119.41 14.6104V9.05957C120.09 9.05962 120.43 9.20996 120.43 9.50977V9.67969H121.97C122.11 9.34986 122.26 9.11999 122.43 9ZM198.28 11.1699C198.81 11.17 199.26 11.3498 199.61 11.7197C199.96 12.0697 200.13 12.5504 200.13 13.1504C200.13 13.75 199.96 14.2297 199.61 14.5996C199.26 14.9496 198.81 15.1299 198.26 15.1299C197.71 15.1298 197.28 14.9496 196.93 14.5996C196.59 14.2297 196.42 13.75 196.42 13.1504C196.42 12.5504 196.6 12.0697 196.96 11.7197C197.31 11.3498 197.75 11.1699 198.28 11.1699ZM35.0098 7.13965C35.1698 7.14965 35.3097 7.20051 35.4297 7.27051C35.8396 7.5205 36.0496 7.84023 36.0596 8.2002C36.0595 8.54017 35.8701 9.0303 35.4902 9.66016C35.1002 10.3502 34.6496 11.0001 34.1396 11.6201C34.5696 11.9001 35.02 12.2597 35.5 12.7197C35.99 13.2097 36.25 13.6799 36.29 14.1299C36.29 14.5697 36.1399 14.8198 35.8301 14.8799C35.5001 14.8799 35.2997 14.6501 35.2197 14.2002C34.9197 13.4102 34.4999 12.6401 33.96 11.8701L33.6797 12.1904C33.0298 12.9203 32.3199 13.5502 31.54 14.0801C30.69 14.6101 30.0298 14.9105 29.5498 14.9805C30.3396 14.3806 30.9795 13.8302 31.4795 13.3203C32.2094 12.5804 32.86 11.7903 33.4199 10.9404C33.9599 10.1304 34.4002 9.37969 34.7402 8.67969C34.96 8.20007 35.07 7.83022 35.0801 7.57031C35.0801 7.42031 35.0598 7.26965 35.0098 7.13965ZM86.5303 7.69043C86.9398 7.69049 87.2294 7.77012 87.3994 7.91992C87.6394 8.07992 87.7598 8.5002 87.7598 9.2002V10.1602H90.8301L91.4102 9.30957C91.6101 9.44958 91.7097 9.74018 91.7197 10.1602C91.7197 10.65 91.4697 10.8896 90.9697 10.8896H87.75V13.1201C87.75 13.54 87.83 13.7901 88 13.8701C88.32 13.9401 88.8201 13.9697 89.5 13.9697C90.3295 13.9397 90.7398 13.8501 90.7402 13.7002C90.8702 12.7803 91.08 12.1504 91.3799 11.8203C91.3299 12.15 91.3096 12.4597 91.3096 12.7295C91.3096 13.1595 91.3998 13.4401 91.5498 13.5801C91.8398 13.5901 92.0003 13.7599 92.0303 14.0898C92.0303 14.4298 91.8799 14.6399 91.5801 14.71C91.1901 14.87 90.4995 14.9495 89.5195 14.9795C88.3703 14.9795 87.6405 14.93 87.3203 14.8301C87.0904 14.7501 86.9301 14.6 86.8301 14.3701C86.7501 14.1902 86.71 13.8802 86.71 13.4404V9.0498C86.7099 8.3899 86.5299 7.95952 86.1699 7.76953C86.23 7.70974 86.3505 7.69043 86.5303 7.69043ZM13.21 0.219727C13.5898 0.219727 13.8696 0.290058 14.0596 0.419922C14.3195 0.579903 14.4499 0.949928 14.46 1.5498V5.51953H15.6104L16.1904 4.66992H16.2295C16.4294 4.82986 16.53 5.10979 16.54 5.51953C16.54 6.00951 16.29 6.24998 15.79 6.25H14.4902V12.4199C15.1501 12.15 15.7998 11.8798 16.4297 11.5898C16.3497 11.7798 16.1397 12.0297 15.7998 12.3496C15.4899 12.5896 15.1203 12.8702 14.6904 13.1602C14.0606 13.6101 13.3702 13.9996 12.6104 14.3096C11.7604 14.6896 11.0199 14.9097 10.3799 14.9697L9.95996 13.9697C10.3298 13.8698 10.6797 13.75 11.0195 13.6201V4.37012C11.0195 3.74012 10.85 3.32965 10.5 3.13965C10.57 3.09971 10.68 3.07033 10.8398 3.07031C11.1998 3.07031 11.4702 3.13957 11.6602 3.26953C11.9002 3.42953 12.0203 3.79012 12.0303 4.37012V13.3096C12.5101 13.1396 12.9701 12.9795 13.4199 12.8096V1.5498C13.4199 0.89995 13.24 0.479797 12.8701 0.299805C12.9401 0.239934 13.0501 0.219727 13.21 0.219727ZM16.6396 0.139648C17.0496 0.139648 17.3302 0.220117 17.4902 0.370117C17.7401 0.530233 17.8604 0.950615 17.8604 1.65039V5.54004H20.4795L21.0596 4.69043C21.2596 4.85043 21.3601 5.13004 21.3701 5.54004C21.3701 6.02997 21.12 6.26948 20.6201 6.26953H17.8496V12.9404C17.8497 13.3602 17.9204 13.6105 18.0703 13.6904C18.3503 13.7604 18.7804 13.79 19.3701 13.79C20.1 13.76 20.46 13.6695 20.46 13.5195C20.58 12.4798 20.7701 11.7696 21.04 11.3896C20.97 11.7696 20.9404 12.1204 20.9404 12.4404C20.9605 12.9401 21.0697 13.2604 21.2695 13.4004C21.5595 13.4104 21.72 13.58 21.75 13.9199C21.75 14.2599 21.5998 14.47 21.2998 14.54C20.9398 14.7 20.2998 14.7796 19.3799 14.8096L19.4004 14.79C18.3404 14.79 17.6699 14.7396 17.3799 14.6396C17.17 14.5596 17.0199 14.4099 16.9199 14.1699C16.85 13.9899 16.8203 13.68 16.8203 13.2402V1.5C16.8203 0.830086 16.6402 0.409756 16.2803 0.219727C16.3403 0.159994 16.4601 0.139671 16.6396 0.139648ZM198.26 11.8301C197.91 11.8301 197.63 11.9502 197.42 12.2002C197.2 12.4502 197.09 12.7802 197.09 13.1602C197.09 13.5401 197.2 13.8701 197.42 14.1201C197.64 14.35 197.92 14.4696 198.27 14.4697C198.62 14.4697 198.91 14.3501 199.11 14.1201C199.294 13.9102 199.393 13.639 199.415 13.3135L199.42 13.1797C199.42 12.7699 199.32 12.4396 199.11 12.1797C198.91 11.9497 198.63 11.8301 198.26 11.8301ZM160.04 11.4902C160 11.7601 159.86 12.08 159.62 12.4697C159.42 12.7896 159.17 13.0999 158.86 13.3799C158.5 13.6998 158.21 13.8901 157.99 13.9502C158.46 13.0002 158.86 11.9801 159.19 10.9102L160.04 11.4902ZM161.99 10.71C162.32 10.94 162.68 11.3305 163.08 11.8604C163.35 12.2602 163.5 12.6399 163.53 13.0098C163.53 13.4297 163.38 13.6599 163.08 13.71C162.77 13.71 162.58 13.4896 162.5 13.0596C162.39 12.2997 162.22 11.5096 161.99 10.7197V10.71ZM120.43 13.5303H122.14V10.3896H120.43V13.5303ZM108.09 4.83984C108.56 4.84984 108.96 5.1399 109.3 5.71973C109.07 5.90973 108.91 6.10984 108.81 6.33984V11.6396C108.81 12.0796 108.65 12.3103 108.33 12.3203C108.01 12.3103 107.84 12.1295 107.81 11.7695H106.55V11.9199C106.55 12.3099 106.4 12.5095 106.09 12.5195C105.76 12.5095 105.6 12.3099 105.6 11.9199V5.04004C106.24 5.04004 106.56 5.19023 106.56 5.49023H106.55V5.50977H107.66C107.79 5.18991 107.93 4.96981 108.09 4.83984ZM32.3496 0.0302734C32.7296 0.0302734 33.0102 0.100469 33.2002 0.230469C33.4599 0.390628 33.5896 0.76072 33.5996 1.36035V2.69043H35.5195L36.0996 1.83984C36.2996 1.99984 36.4002 2.28043 36.4102 2.69043C36.41 3.18016 36.1696 3.41992 35.6797 3.41992H32.9297C32.3198 4.97968 31.56 6.19959 30.6602 7.05957C31.55 6.95958 32.44 6.85045 33.3398 6.73047C33.5198 6.35047 33.6698 5.99992 33.7998 5.66992C33.9698 5.23003 34.0593 4.88009 34.0693 4.62012C34.0693 4.48019 34.0499 4.34013 34 4.2002C34.1499 4.21023 34.29 4.26011 34.4199 4.33008C34.8099 4.58007 35.0095 4.89027 35.0195 5.24023C35.0195 5.56018 34.8694 6.01984 34.5596 6.59961C34.1596 7.41959 33.6698 8.20998 33.0898 8.95996C32.5699 9.64993 32.0001 10.2402 31.3701 10.7402C30.6802 11.2402 30.14 11.5203 29.75 11.5703C30.3699 11.0204 30.8698 10.5004 31.2598 10.0205C31.8197 9.3106 32.3196 8.56017 32.7695 7.78027C32.8595 7.64027 32.9302 7.48961 32.9902 7.34961C32.5203 7.56958 32.04 7.74012 31.54 7.87012C31.0201 8.00011 30.5499 8.09011 30.1299 8.12012L29.8301 7.13965C30.01 7.11966 30.1799 7.09984 30.3398 7.08984C30.8998 5.79991 31.3595 4.57987 31.7295 3.41992H29.8799L29.6094 2.69043H32.5596V1.36035C32.5596 0.710408 32.3797 0.290377 32.0098 0.110352C32.0797 0.0603718 32.1897 0.0302978 32.3496 0.0302734ZM37.2295 2.25C37.6295 2.25 37.9101 2.31973 38.0801 2.46973C38.3001 2.62974 38.4102 3.03023 38.4102 3.7002V10.4697C38.4102 10.8697 38.2498 11.0796 37.9199 11.0996C37.5699 11.0896 37.3994 10.8797 37.3994 10.4697V3.55957C37.3993 2.91983 37.2296 2.51004 36.8896 2.33008C36.9496 2.28011 37.0597 2.25004 37.2295 2.25ZM106.55 11.04H107.81V6.21973H106.55V11.04ZM81.8301 7.61035C82.0099 7.65034 82.1704 7.70026 82.3203 7.74023C82.7901 7.8802 83.1904 8.0503 83.5303 8.24023C83.89 8.45016 84.0794 8.68054 84.1094 8.94043C84.1092 9.30005 83.9599 9.51027 83.6602 9.57031C83.4602 9.57031 83.31 9.50002 83.21 9.37012C83.13 9.29019 83.06 9.19016 83 9.07031C82.83 8.82031 82.6294 8.58012 82.3994 8.37012C82.2395 8.20019 82.0502 8.02953 81.8203 7.84961V9.5C81.8203 10.0399 81.7998 10.5498 81.7598 11.0098L81.7695 11.0195C82.6494 10.7696 83.5295 10.47 84.3994 10.1201V6.58008H81.8301V7.61035ZM159.52 8.69043H162.24V5.59961H159.52V8.69043ZM125.229 8.5H128.7V5.16016H125.229V8.5ZM123 6.49023C123.2 6.61027 123.3 6.8401 123.31 7.16992C123.31 7.65992 123.06 7.90039 122.56 7.90039H119.76L119.49 7.16992H122.42L123 6.49023ZM102.86 0.919922L102.68 1.32031H104C104.15 0.970599 104.32 0.750642 104.52 0.69043C105.04 0.96043 105.38 1.36039 105.55 1.90039C105.31 1.94045 105.11 2.10042 104.94 2.36035C104.48 3.4002 104.03 4.22988 103.58 4.83984C103.09 5.52984 102.57 6.0998 102.02 6.5498C101.11 7.26973 100.37 7.66977 99.8096 7.75977C100.42 7.26977 100.99 6.72988 101.53 6.12988C102.07 5.53993 102.56 4.8497 103.01 4.0498C103.39 3.29984 103.67 2.61951 103.86 2.01953H102.229C101.92 2.45948 101.59 2.83013 101.24 3.12012C101.44 3.22009 101.61 3.34031 101.76 3.49023C102.09 3.81023 102.28 4.16005 102.34 4.54004C102.34 4.93001 102.2 5.13016 101.92 5.16016C101.69 5.16015 101.54 5.02008 101.46 4.74023L101.39 4.26953C101.36 3.99974 101.309 3.76944 101.229 3.55957C101.19 3.45981 101.15 3.37009 101.1 3.28027C100.59 3.70002 100.14 3.95999 99.7402 4.04004C100.65 2.92012 101.44 1.60997 102.1 0.120117L102.86 0.919922ZM86.6797 0.120117C87.3097 0.160117 87.6397 0.530195 87.6797 1.2002V2.83008H90.6699L91.25 1.97949H91.2695C91.4695 2.13949 91.5701 2.42008 91.5801 2.83008C91.58 3.31993 91.3299 3.55949 90.8301 3.55957H87.6895V5.74023C87.7095 6.07993 87.8298 6.26946 88.0596 6.30957C88.2896 6.34957 88.6598 6.37988 89.1797 6.37988C89.9997 6.34988 90.7098 6.2398 91.2998 6.0498C91.6798 6.0498 91.8802 6.24012 91.9102 6.62012C91.9001 6.93997 91.7199 7.14015 91.3701 7.2002C90.7801 7.2802 90.0597 7.32008 89.2197 7.33008C88.5499 7.33007 87.95 7.29015 87.4102 7.2002C86.8802 7.11021 86.6202 6.7301 86.6201 6.07031V1.2002C86.5601 0.720233 86.3896 0.390434 86.0996 0.19043C86.2196 0.150436 86.4098 0.120127 86.6797 0.120117ZM123 4.13965C123.2 4.25965 123.3 4.49032 123.31 4.82031C123.309 5.31009 123.059 5.5498 122.56 5.5498H119.76L119.49 4.82031H122.42L123 4.13965ZM83.2803 0.469727C83.2003 0.839665 83.0595 1.20968 82.8496 1.59961C82.6796 2.01961 82.4401 2.44035 82.1201 2.86035C81.7801 3.30031 81.4697 3.64013 81.1797 3.87012C82.4397 3.72012 83.64 3.50023 84.79 3.24023C84.6601 2.69032 84.4995 2.14027 84.3096 1.61035C84.6895 1.89033 85.1101 2.35963 85.5801 3.01953C85.9 3.50942 86.0696 3.97978 86.0996 4.42969C86.0996 4.84969 85.9494 5.07988 85.6494 5.12988C85.3397 5.12969 85.1503 4.9093 85.0703 4.47949C85.0103 4.13962 84.9396 3.7996 84.8496 3.46973C84.5096 3.70972 83.9095 4.01989 83.0596 4.37988C82.0097 4.75982 81.2099 4.99007 80.6699 5.08008L80.2998 3.97949L80.8203 3.91016C81.4758 2.56931 81.9429 1.30703 82.2334 0.124023L83.2803 0.469727ZM123.42 3.91016V3.90039C123.423 3.89928 123.426 3.8976 123.429 3.89648C123.426 3.90096 123.423 3.90568 123.42 3.91016ZM126.38 0.759766C126.26 1.29977 125.96 1.85992 125.47 2.41992C124.803 3.1468 124.126 3.63564 123.429 3.89648C124.265 2.65124 124.981 1.43568 125.569 0.25L126.38 0.759766ZM127.24 0.120117C127.66 0.240096 128.04 0.390377 128.39 0.570312C128.95 0.870309 129.43 1.2304 129.84 1.65039C130.28 2.09031 130.51 2.59001 130.54 3.12988C130.54 3.48984 130.39 3.69974 130.09 3.75977C129.89 3.75977 129.74 3.68957 129.64 3.55957C129.54 3.4196 129.45 3.22959 129.37 3.00977C129.14 2.51984 128.88 2.08992 128.58 1.70996C128.25 1.18997 127.799 0.66034 127.229 0.110352L127.24 0.120117ZM69.5996 0.709961C70.1796 0.929961 70.6402 1.24992 70.9902 1.66992C71.3002 2.01989 71.4803 2.42017 71.5303 2.87012C71.5303 3.38008 71.3595 3.64039 71.0195 3.65039C70.7298 3.65023 70.5394 3.4301 70.4395 2.98047C70.3795 2.64062 70.3001 2.33024 70.2002 2.07031C70.0402 1.55031 69.8396 1.09996 69.5996 0.709961ZM167.278 0.987305C167.78 1.18704 168.184 1.4743 168.49 1.83984C168.77 2.15981 168.93 2.51997 168.97 2.91992C168.97 3.39979 168.81 3.64027 168.49 3.65039C168.22 3.65039 168.04 3.44 167.94 3.03027C167.89 2.72037 167.83 2.44014 167.75 2.2002C167.622 1.74759 167.464 1.33389 167.278 0.987305ZM160.29 0.0800781C160.67 0.0800894 160.95 0.15031 161.14 0.280273C161.4 0.440273 161.53 0.810156 161.54 1.41016H161.56V2.69043H163.21L163.79 1.83008C163.99 1.99009 164.09 2.27051 164.1 2.69043C164.099 3.18011 163.849 3.41992 163.35 3.41992H158.229L157.96 2.69043H160.5V1.41016C160.5 0.760318 160.32 0.340231 159.95 0.160156C160.02 0.110185 160.13 0.0800781 160.29 0.0800781ZM120.67 0.0996094C121.05 0.0996262 121.33 0.16993 121.52 0.299805C121.779 0.459779 121.91 0.829856 121.92 1.42969V2.54004H122.79L123.39 1.69043C123.58 1.85045 123.679 2.13014 123.689 2.54004C123.689 3.03 123.439 3.26953 122.939 3.26953H119.3L119.03 2.54004H120.88V1.42969C120.88 0.779922 120.7 0.359694 120.33 0.179688C120.4 0.129828 120.51 0.0996094 120.67 0.0996094ZM167.278 0.987305C167.272 0.984867 167.266 0.981903 167.26 0.979492L167.27 0.969727C167.273 0.975352 167.275 0.981643 167.278 0.987305ZM82.2334 0.124023L82.2197 0.120117L82.2402 0.0996094C82.2383 0.107663 82.2354 0.115962 82.2334 0.124023Z" fill="#6A6A6A"/>
</svg>
