<svg width="30" height="30" viewBox="0 0 30 30" fill="none" xmlns="http://www.w3.org/2000/svg">
<circle cx="15" cy="15" r="12" fill="#781F2B"/>
<circle cx="15" cy="15" r="13.5" stroke="white" stroke-opacity="0.5" stroke-width="3"/>
<g clip-path="url(#clip0_178_6935)">
<path d="M18.5289 13.0105L14.5539 10.0939C14.2434 9.86653 13.8761 9.72962 13.4926 9.69831C13.109 9.66701 12.7243 9.74253 12.3811 9.91652C12.0379 10.0905 11.7496 10.3561 11.5481 10.684C11.3466 11.0118 11.2399 11.3891 11.2397 11.7739V17.6072C11.2398 17.9922 11.3466 18.3696 11.5481 18.6976C11.7497 19.0256 12.0382 19.2913 12.3816 19.4653C12.725 19.6393 13.1099 19.7147 13.4936 19.6832C13.8773 19.6517 14.2447 19.5145 14.5552 19.2868L18.5302 16.3701C18.794 16.1766 19.0086 15.9237 19.1565 15.6318C19.3044 15.3399 19.3815 15.0173 19.3815 14.6901C19.3815 14.3629 19.3044 14.0403 19.1565 13.7484C19.0086 13.4566 18.794 13.2036 18.5302 13.0101L18.5289 13.0105ZM18.0356 15.698L14.0606 18.6147C13.8743 18.7508 13.6541 18.8327 13.4242 18.8514C13.1942 18.87 12.9636 18.8247 12.7579 18.7204C12.5522 18.6161 12.3793 18.4569 12.2584 18.2604C12.1375 18.064 12.0734 17.8379 12.0731 17.6072V11.7739C12.0708 11.5428 12.1337 11.3157 12.2547 11.1188C12.3756 10.9218 12.5497 10.763 12.7568 10.6605C12.933 10.5709 13.1279 10.5241 13.3256 10.5239C13.5905 10.5249 13.8482 10.6109 14.0606 10.7693L18.0356 13.686C18.1937 13.8021 18.3223 13.9538 18.4109 14.1288C18.4995 14.3038 18.5457 14.4973 18.5457 14.6935C18.5457 14.8896 18.4995 15.0831 18.4109 15.2581C18.3223 15.4331 18.1937 15.5848 18.0356 15.701V15.698Z" fill="white"/>
</g>
<defs>
<clipPath id="clip0_178_6935">
<rect width="10" height="10" fill="white" transform="translate(9.98975 9.69043)"/>
</clipPath>
</defs>
</svg>
